<svg width="36" height="31" viewBox="0 0 36 31" fill="none" xmlns="http://www.w3.org/2000/svg">
<path fill-rule="evenodd" clip-rule="evenodd" d="M34.7143 0H20.5714L19.6714 0.385715L18 2.03143L16.3286 0.385715L15.4286 0H1.28571L0 1.28571V27L1.28571 28.2857H14.8886L17.1 30.4714H18.9L21.1114 28.2857H34.7143L36 27V1.28571L34.7143 0ZM16.7143 26.5371L16.2514 26.1L15.4286 25.7143H2.57143V2.57143H14.8886L16.7914 4.47429L16.7143 26.5371ZM33.4286 25.7143H20.5714L19.6714 26.1L19.3114 26.4343V4.37143L21.1114 2.57143H33.4286V25.7143ZM12.8571 7.71429H5.14286V10.2857H12.8571V7.71429ZM12.8571 18H5.14286V20.5714H12.8571V18ZM5.14286 12.8571H12.8571V15.4286H5.14286V12.8571ZM30.8571 7.71429H23.1429V10.2857H30.8571V7.71429ZM23.1429 12.8571H30.8571V15.4286H23.1429V12.8571ZM23.1429 18H30.8571V20.5714H23.1429V18Z" fill="#B8B8B8"/>
</svg>
