<svg width="30" height="27" viewBox="0 0 30 27" fill="none" xmlns="http://www.w3.org/2000/svg">
<path d="M15 0C16.85 0 18.3333 1.50187 18.3333 3.375C18.3333 5.24813 16.85 6.75 15 6.75C13.15 6.75 11.6667 5.24813 11.6667 3.375C11.6667 1.50187 13.1667 0 15 0ZM30 20.25V16.875C26.2667 16.875 23.0667 15.255 20.6667 12.3525L18.4333 9.6525C18.1232 9.27192 17.7338 8.9656 17.2929 8.75552C16.852 8.54545 16.3706 8.43684 15.8833 8.4375H14.1667C13.15 8.4375 12.2167 8.87625 11.5833 9.6525L9.35 12.3525C6.93333 15.255 3.73333 16.875 0 16.875V20.25C4.61667 20.25 8.65 18.2756 11.6667 14.7656V18.5625L5.2 21.1781C4.08333 21.6337 3.33333 22.7812 3.33333 23.9794C3.33333 25.65 4.66667 27 6.31667 27H10V26.1562C10 25.0374 10.439 23.9643 11.2204 23.1731C12.0018 22.382 13.0616 21.9375 14.1667 21.9375H19.1667C19.6333 21.9375 20 22.3088 20 22.7812C20 23.2537 19.6333 23.625 19.1667 23.625H14.1667C12.7833 23.625 11.6667 24.7556 11.6667 26.1562V27H23.6833C25.3333 27 26.6667 25.65 26.6667 23.9794C26.6667 22.7812 25.9167 21.6337 24.8 21.1781L18.3333 18.5625V14.7656C21.35 18.2756 25.3833 20.25 30 20.25Z" fill="#B8B8B8"/>
</svg>
