<svg width="36" height="29" viewBox="0 0 36 29" fill="none" xmlns="http://www.w3.org/2000/svg">
<path d="M3.375 0C1.51172 0 0 1.39174 0 3.10714V25.8929C0 27.6083 1.51172 29 3.375 29H32.625C34.4883 29 36 27.6083 36 25.8929V3.10714C36 1.39174 34.4883 0 32.625 0H3.375ZM3.375 2.07143H10.8281C11.0602 2.07143 11.25 2.24621 11.25 2.45982V3.75446C11.25 3.96808 11.0602 4.14286 10.8281 4.14286H2.67188C2.43984 4.14286 2.25 3.96808 2.25 3.75446V3.10714C2.25 2.5375 2.75625 2.07143 3.375 2.07143ZM33.3281 8.28571H2.67188C2.43984 8.28571 2.25 8.11094 2.25 7.89732V5.56696C2.25 5.35335 2.43984 5.17857 2.67188 5.17857H12.375L14.4984 2.24621C14.5758 2.13616 14.7094 2.07143 14.85 2.07143H32.625C33.2438 2.07143 33.75 2.5375 33.75 3.10714V7.89732C33.75 8.11094 33.5602 8.28571 33.3281 8.28571ZM18 25.375C13.3453 25.375 9.5625 21.8924 9.5625 17.6071C9.5625 13.3219 13.3453 9.83929 18 9.83929C22.6547 9.83929 26.4375 13.3219 26.4375 17.6071C26.4375 21.8924 22.6547 25.375 18 25.375ZM18 11.9107C14.5898 11.9107 11.8125 14.4676 11.8125 17.6071C11.8125 20.7467 14.5898 23.3036 18 23.3036C21.4102 23.3036 24.1875 20.7467 24.1875 17.6071C24.1875 14.4676 21.4102 11.9107 18 11.9107ZM14.625 18.6429C14.0062 18.6429 13.5 18.1768 13.5 17.6071C13.5 15.3221 15.518 13.4643 18 13.4643C18.6188 13.4643 19.125 13.9304 19.125 14.5C19.125 15.0696 18.6188 15.5357 18 15.5357C16.7625 15.5357 15.75 16.4679 15.75 17.6071C15.75 18.1768 15.2438 18.6429 14.625 18.6429Z" fill="#B8B8B8"/>
</svg>
