<svg width="40" height="38" viewBox="0 0 40 38" fill="none" xmlns="http://www.w3.org/2000/svg">
<path d="M0 31.6665H16.6667V34.8332H0V31.6665Z" fill="#CECECE"/>
<path d="M0 22.1665H16.6667V25.3332H0V22.1665Z" fill="#CECECE"/>
<path d="M36.6667 15.8333H3.33333C2.44928 15.8333 1.60143 15.4997 0.976311 14.9058C0.351189 14.312 0 13.5065 0 12.6667V3.16667C0 2.32681 0.351189 1.52136 0.976311 0.927495C1.60143 0.33363 2.44928 0 3.33333 0H36.6667C37.5507 0 38.3986 0.33363 39.0237 0.927495C39.6488 1.52136 40 2.32681 40 3.16667V12.6667C40 13.5065 39.6488 14.312 39.0237 14.9058C38.3986 15.4997 37.5507 15.8333 36.6667 15.8333ZM3.33333 3.16667V12.6667H36.6667V3.16667H3.33333Z" fill="#CECECE"/>
<path d="M36.6668 37.9998H26.6668C25.7828 37.9998 24.9349 37.6662 24.3098 37.0723C23.6847 36.4785 23.3335 35.673 23.3335 34.8332V25.3332C23.3335 24.4933 23.6847 23.6879 24.3098 23.094C24.9349 22.5001 25.7828 22.1665 26.6668 22.1665H36.6668C37.5509 22.1665 38.3987 22.5001 39.0239 23.094C39.649 23.6879 40.0002 24.4933 40.0002 25.3332V34.8332C40.0002 35.673 39.649 36.4785 39.0239 37.0723C38.3987 37.6662 37.5509 37.9998 36.6668 37.9998ZM26.6668 25.3332V34.8332H36.6668V25.3332H26.6668Z" fill="#CECECE"/>
</svg>
