<svg width="28" height="40" viewBox="0 0 28 40" fill="none" xmlns="http://www.w3.org/2000/svg">
<path d="M7.00684 30.7695H20.9931V33.5668H7.00684V30.7695Z" fill="#CECECE"/>
<path d="M9.8042 36.3643H18.196V39.1615H9.8042V36.3643Z" fill="#CECECE"/>
<path d="M14.0002 0C10.2908 0 6.73331 1.47355 4.11037 4.09648C1.48744 6.71941 0.0138937 10.2769 0.0138937 13.9863C-0.0806894 16.0189 0.308688 18.045 1.14999 19.8978C1.99129 21.7506 3.26048 23.3772 4.85314 24.6438C6.25177 25.9445 7.00702 26.6858 7.00702 27.9725H9.80428C9.80428 25.399 8.2518 23.9585 6.74129 22.5738C5.43407 21.5728 4.39225 20.2665 3.70708 18.7693C3.0219 17.2722 2.71428 15.6299 2.81115 13.9863C2.81115 11.0188 3.98998 8.17278 6.08833 6.07444C8.18668 3.97609 11.0326 2.79725 14.0002 2.79725C16.9677 2.79725 19.8136 3.97609 21.912 6.07444C24.0103 8.17278 25.1892 11.0188 25.1892 13.9863C25.2844 15.6311 24.9746 17.2742 24.287 18.7714C23.5993 20.2687 22.5548 21.5743 21.245 22.5738C19.7485 23.9725 18.196 25.3711 18.196 27.9725H20.9933C20.9933 26.6858 21.7346 25.9445 23.1472 24.6298C24.7387 23.3654 26.0073 21.7412 26.8486 19.8908C27.6899 18.0405 28.0799 16.0168 27.9864 13.9863C27.9864 12.1496 27.6246 10.3308 26.9218 8.63395C26.2189 6.93706 25.1887 5.39523 23.8899 4.09648C22.5912 2.79774 21.0494 1.76752 19.3525 1.06464C17.6556 0.361765 15.8369 0 14.0002 0Z" fill="#CECECE"/>
</svg>
