<svg width="1928" height="141" viewBox="0 0 1928 141" fill="none" xmlns="http://www.w3.org/2000/svg">
<path d="M883.5 97.9C882 97.8 881.6 97.8 881.6 98C881.6 98.2 882.6 98.3 883.5 98.2C885 98.2 885 98.1 883.5 97.9Z" fill="#282829"/>
<path d="M464.9 84.7C464.9 84.8 466.8 84.9 468.8 84.9C470.7 84.9 472.2 84.8 471.7 84.7C471.7 84.6 469.8 84.5 467.8 84.5C466.3 84.5 464.9 84.6 464.9 84.7Z" fill="#282829"/>
<path d="M1234.7 94.8C1235.7 94.7 1235.7 94.6 1234.2 94.4C1232.8 94.3 1232.3 94.3 1232.3 94.5C1232.8 94.8 1233.7 94.9 1234.7 94.8Z" fill="#282829"/>
<path d="M58.8003 57.8C59.3003 57.7 59.3003 57.4 57.8003 57.3C56.8003 57.1 55.9003 57.2 56.3003 57.5C56.9003 57.8 57.9003 57.9 58.8003 57.8Z" fill="#282829"/>
<path d="M710.8 98.1C710.8 98.6 711.8 99.1 712.7 99.2C713.7 99.3 715.6 99.8 717.6 100.2C719.5 100.6 722 100.9 722.9 100.9C725.8 100.9 738.4 103.1 736 103.2C735 103.3 734.1 103.2 733.6 103C733.1 102.8 731.7 102.7 730.2 102.6C728.7 102.6 728.7 102.9 730.2 103.4C731.7 103.9 734.6 104.3 736 104.3C737.9 104.3 737.9 104.2 736.5 104.1C735 104 736.5 103.9 740.4 103.9C743.8 103.9 749.1 104.1 751.6 104.4C754.5 104.6 756.5 104.7 756.5 104.6C756 104.4 766.7 104.4 771.1 104.7C772.6 104.8 775 104.8 776 104.7C777.5 104.6 776 104.5 773.6 104.4C769.7 104.3 769.2 104.1 771.2 103.7C773.6 103.1 771.7 102.7 766.8 102.7C765.3 102.7 765.3 103 766.8 103.3C768.7 103.6 768.7 103.8 767.3 103.8C762.4 103.6 755.2 102.2 753.2 101.1C752.2 100.4 750.8 100.2 749.3 100.5C747.4 100.9 746.9 100.9 744 100.5C742.5 100.3 739.6 100.1 738.7 100.1C735.8 100.1 724.6 98.7 719.8 97.7C715.2 96.9 710.3 97 710.8 98.1ZM749.6 103.3C750.6 103.4 751.1 103.6 750.1 103.7C749.1 103.8 748.2 103.7 748.2 103.5C747.7 103.2 748.6 103.2 749.6 103.3Z" fill="#282829"/>
<path d="M1253.1 139.8C1252.1 139.7 1249.2 139.5 1246.8 139.5C1244.4 139.5 1242.9 139.6 1243.9 139.7C1244.9 139.8 1247.8 140 1250.2 140C1252.7 140 1254.1 139.9 1253.1 139.8Z" fill="#282829"/>
<path d="M1046.5 140C1046.5 140.1 1048 140.1 1049.9 140.1C1051.8 140.1 1053.3 140 1052.8 139.9C1052.8 139.8 1050.9 139.8 1049.4 139.8C1048 139.9 1046.5 140 1046.5 140Z" fill="#282829"/>
<path d="M1083.8 103.8C1082.8 103.7 1081.9 103.8 1082.4 104C1082.9 104.3 1083.8 104.4 1084.3 104.2C1085.3 104.2 1084.8 104 1083.8 103.8Z" fill="#282829"/>
<path d="M1108.6 108C1106.7 107.9 1105.2 108 1105.2 108.1C1105.2 108.2 1107.1 108.3 1109.1 108.3C1111.1 108.3 1112.5 108.2 1112.5 108.2C1112.5 108.1 1110.5 108 1108.6 108Z" fill="#282829"/>
<path d="M1047.5 122.2C1049.4 122.3 1050.9 122.2 1050.9 122.1C1050.9 122 1049 121.9 1047 121.8C1045.1 121.7 1043.6 121.8 1043.6 121.9C1043.6 122 1045.5 122.1 1047.5 122.2Z" fill="#282829"/>
<path d="M1102.3 102.6C1100.8 102.5 1100.4 102.5 1100.4 102.7C1100.4 102.9 1101.4 103 1102.3 102.9C1103.3 102.9 1103.3 102.8 1102.3 102.6Z" fill="#282829"/>
<path d="M626.4 122.1C627.4 122.2 630.3 122.5 633.7 122.9C642.4 123.9 645.8 123.7 638.1 122.7C634.7 122.3 629.9 121.9 628.4 121.9C626.9 122 625.9 122 626.4 122.1Z" fill="#282829"/>
<path d="M1085.8 102.3C1085.8 102.5 1086.8 102.6 1087.7 102.5C1088.7 102.4 1088.7 102.3 1087.2 102.1C1086.3 102 1085.8 102 1085.8 102.3Z" fill="#282829"/>
<path d="M961.1 123C961.6 123.3 962.1 123.3 963.5 122.9C964.5 122.6 965 122.2 965 122.1C964.5 121.8 964 121.8 962.6 122.2C961.6 122.4 960.6 122.8 961.1 123Z" fill="#282829"/>
<path d="M1104.7 120.5C1105.2 120.4 1105.2 120.1 1103.7 120C1102.7 119.8 1101.8 119.9 1102.3 120.2C1103.3 120.5 1104.2 120.6 1104.7 120.5Z" fill="#282829"/>
<path d="M981 121C979.5 121.2 979.1 121.5 979.5 121.8C980 122.2 980 122.2 982.4 121.8C983.9 121.6 984.3 121.3 983.9 121C983.4 120.6 983.4 120.6 981 121Z" fill="#282829"/>
<path d="M1079 101.3C1074.6 101.1 1074.2 101.2 1075.1 101.5C1075.6 101.7 1078 101.9 1080.4 101.9C1086.3 101.8 1085.8 101.6 1079 101.3Z" fill="#282829"/>
<path d="M252.4 111.1C249.5 111.1 247.5 111.2 247.5 111.3C247.5 111.4 249.9 111.5 252.8 111.5C255.7 111.5 257.7 111.4 257.7 111.3C257.7 111.2 255.3 111.1 252.4 111.1Z" fill="#282829"/>
<path d="M605.1 112.2C606.6 112.3 608 112.5 609 112.5C610 112.5 610 112.4 610 112.2C609.5 112 608.1 111.9 606.1 111.9C604.1 112 603.6 112.1 605.1 112.2Z" fill="#282829"/>
<path d="M471.2 112.4C467.3 112 466.8 112.1 468.3 112.8C469.8 113.5 470.2 113.6 472.7 113.2C474.6 112.9 474.6 112.7 471.2 112.4Z" fill="#282829"/>
<path d="M1021.8 103.5C1022.3 103.5 1022.3 103.1 1021.3 102.7C1020.3 102.2 1019.4 102 1017.9 102.3C1015.9 102.6 1018.8 103.5 1021.8 103.5Z" fill="#282829"/>
<path d="M1017.4 104.2C1015.5 105.1 1015.9 105.5 1018.9 105C1020.4 104.8 1020.8 104.4 1019.9 104C1018.8 103.6 1018.8 103.6 1017.4 104.2Z" fill="#282829"/>
<path d="M1034.4 100.7C1033.4 100.6 1032.5 100.7 1032.9 100.9C1033.4 101.1 1034.4 101.3 1034.8 101.1C1035.8 101.1 1035.3 100.8 1034.4 100.7Z" fill="#282829"/>
<path d="M1134.3 119.2C1130.9 119.6 1130.9 119.6 1134.8 119.5C1136.7 119.4 1137.7 119.3 1137.7 119.1C1137.2 119 1135.8 119 1134.3 119.2Z" fill="#282829"/>
<path d="M1004.3 106.4C1004.3 106.6 1005.3 106.7 1006.2 106.6C1007.2 106.5 1007.2 106.4 1005.7 106.2C1004.8 106.2 1004.3 106.2 1004.3 106.4Z" fill="#282829"/>
<path d="M1019.8 105.6C1017.9 105.5 1016.4 105.6 1016.4 105.7C1016.4 105.8 1018.3 105.9 1020.3 105.9C1022.2 105.9 1023.7 105.8 1023.7 105.8C1023.7 105.8 1021.8 105.7 1019.8 105.6Z" fill="#282829"/>
<path d="M884 109.6C885.9 109.6 887.9 109.7 887.9 110C888.4 110.2 889.8 110.4 891.8 110.4C893.7 110.4 894.2 110.2 892.3 109.9C890.8 109.7 890.8 109.4 892.3 109.4C893.8 109.4 894.7 108.9 893.8 108.4C892.8 107.9 891.9 107.5 891.4 107.7C890.9 107.8 889 107.9 887 107.9C885.1 107.8 883.1 108.1 881.7 108.4C879.1 109.2 879.6 109.6 884 109.6Z" fill="#282829"/>
<path d="M897.6 113.7C899.1 113.5 900 113.2 899.1 112.9C898.1 112.4 897.6 112.4 895.7 112.7C894.2 112.9 893.8 113.3 894.2 113.5C894.2 113.8 895.1 113.9 897.6 113.7Z" fill="#282829"/>
<path d="M474.1 116.5C475.1 117.1 475.6 117.2 479.4 116.8C485.2 116.3 484.7 116 477.9 115.9C474.1 115.8 473.1 116 474.1 116.5Z" fill="#282829"/>
<path d="M901.5 114.9C902.5 114.8 902.5 114.7 901 114.5C899.5 114.4 899.1 114.4 899.1 114.6C899.5 114.9 900.5 115 901.5 114.9Z" fill="#282829"/>
<path d="M1087.7 111.5C1090.1 111.6 1090.1 111.4 1088.2 110.9C1086.3 110.5 1083.8 110.2 1083.4 110.1C1082.4 110.1 1082.4 110.3 1082.9 110.7C1083.4 111.1 1085.3 111.4 1087.7 111.5Z" fill="#282829"/>
<path d="M967.4 117.2C966.9 117 966.4 116.2 966.4 115.2C965.9 113.4 964 113.2 959.1 114.7C956.2 115.6 961 119.2 965.9 119.3C967.4 119.5 968.9 117.8 967.4 117.2Z" fill="#282829"/>
<path d="M1159.5 118.1C1158 118.1 1156.1 118.3 1155.6 118.5C1152.7 119.4 1156.1 119.6 1160 118.7C1161.5 118.4 1161.5 118.1 1159.5 118.1Z" fill="#282829"/>
<path d="M808.3 119.3C810.2 119.4 811.7 119.3 811.7 119.2C811.7 119.1 809.8 119 807.8 119C805.8 119 804.4 119.1 804.4 119.1C804.4 119.1 806.4 119.2 808.3 119.3Z" fill="#282829"/>
<path d="M523.1 120C522.1 119.9 521.2 120 521.6 120.2C522.1 120.4 523.1 120.6 523.5 120.4C524.5 120.3 524 120.1 523.1 120Z" fill="#282829"/>
<path d="M1024.2 107.8C1025.7 107.8 1027.1 107.7 1026.6 107.6C1026.1 107.2 1016.4 107.5 1015.4 108C1014.9 108.3 1013.5 108.8 1012.5 109.1C1011.5 109.4 1011 109.9 1011 110.2C1012 111.2 1016.8 110.5 1019.3 109.2C1020.3 108.4 1022.2 107.8 1024.2 107.8Z" fill="#282829"/>
<path d="M977.6 114.4C979.1 114.4 979.5 114.1 979.1 113.8C978.6 113.5 978.6 112.9 979.1 112.5C980.1 112 979.6 111.9 975.7 112.1C970.8 112.3 972.3 114.4 977.6 114.4Z" fill="#282829"/>
<path d="M1046 114.4C1042.1 114.4 1046 114.8 1050.9 114.8C1055.7 114.9 1055.7 114.9 1051.9 114.6C1049.4 114.5 1046.5 114.4 1046 114.4Z" fill="#282829"/>
<path d="M1011.1 117.5C1011.6 117.4 1011.6 117.1 1010.1 117C1009.1 116.8 1008.2 116.9 1008.6 117.2C1009.6 117.4 1010.6 117.6 1011.1 117.5Z" fill="#282829"/>
<path d="M1102.8 119.1C1103.3 118.9 1101.8 118.7 1099.9 118.6C1097.5 118.5 1097.5 118.6 1098.9 119C1101.3 119.3 1102.3 119.4 1102.8 119.1Z" fill="#282829"/>
<path d="M1066.9 111.4C1066.9 111.6 1067.9 111.7 1068.8 111.6C1069.8 111.5 1069.8 111.4 1068.3 111.2C1067.8 111.1 1066.9 111.1 1066.9 111.4Z" fill="#282829"/>
<path d="M1084.8 113.9C1082.4 113.7 1081.4 113.4 1082.9 113.4C1083.9 113.4 1083.4 113.3 1081.9 113.2C1080 113.1 1078.5 113.1 1076.6 113.3C1073.2 113.7 1073.7 113.8 1078 113.8C1079.9 113.8 1081.4 113.9 1081.9 114.1C1082.4 114.3 1083.8 114.4 1085.8 114.4C1087.2 114.4 1087.2 114.2 1084.8 113.9Z" fill="#282829"/>
<path d="M1008.7 111.1C1007.2 111.4 1007.7 111.8 1010.6 112.1C1011.1 112.2 1012.1 111.9 1013.5 111.6C1015.4 111.1 1011.1 110.6 1008.7 111.1Z" fill="#282829"/>
<path d="M1129.4 119.2C1130.4 119.1 1130.4 119 1128.9 118.8C1127.4 118.7 1127 118.7 1127 118.9C1127.5 119.1 1128.5 119.3 1129.4 119.2Z" fill="#282829"/>
<path d="M993.1 112.5C994.6 112.5 995.5 112.4 995.5 112.1C995.5 111.9 994 111.7 992.1 111.7C988.8 111.7 989.3 112.4 993.1 112.5Z" fill="#282829"/>
<path d="M648.2 98.6C648.2 98.7 651.1 99.1 654.5 99.6C659.8 100.4 660.8 100.4 659.8 99.9C659.3 99.6 657.4 98.9 655.4 98.4C652 97.6 651.5 97.6 650.1 98C649.2 98.3 648.2 98.5 648.2 98.6Z" fill="#282829"/>
<path d="M910.2 104.9C910.2 105.1 911.2 105.2 912.1 105.1C913.1 105 913.1 104.9 911.6 104.7C910.7 104.6 909.7 104.6 910.2 104.9Z" fill="#282829"/>
<path d="M869 106.3C875.3 106.3 875.8 106.2 871.4 106.1C868.5 106 865.1 106 863.6 106C862.1 106 861.2 106.1 861.2 106.2C861.2 106.3 864.6 106.3 869 106.3Z" fill="#282829"/>
<path d="M852 104.8L847.6 103.9L849.1 104.9C850.1 105.5 852.5 106.1 854 106.4C857.4 106.8 857.4 106.8 856.4 106.3C856.8 106 854.4 105.3 852 104.8Z" fill="#282829"/>
<path d="M687 106.1C674.9 105.5 675.8 105.7 690.9 106.6C695.8 106.9 699.6 107.1 699.1 106.9C699.2 106.8 693.3 106.4 687 106.1Z" fill="#282829"/>
<path d="M866 102.9C862.6 103.3 862.6 103.4 867 103.6C868.9 103.7 870.4 103.5 869.4 103.2C869 102.8 868 102.7 866 102.9Z" fill="#282829"/>
<path d="M878.7 102.4C880.6 102.5 883.6 103.3 885 104.2C886.5 105.2 888.9 105.8 891.3 105.8C893.2 105.8 894.2 105.6 894.2 105.4C893.7 105.2 895.2 105 897.6 105C901.5 105 899.5 104.3 891.3 102.6C886 101.5 884.5 101.4 879.7 101.8C876.2 102.1 876.2 102.3 878.7 102.4Z" fill="#282829"/>
<path d="M754 99.9C755 99.8 755 99.7 753.5 99.5C752 99.4 751.6 99.4 751.6 99.6C752 99.9 753 100 754 99.9Z" fill="#282829"/>
<path d="M755.4 98.6C756.4 98.5 756.4 98.4 754.9 98.2C753.4 98.1 753 98.1 753 98.3C753.5 98.5 754.5 98.7 755.4 98.6Z" fill="#282829"/>
<path d="M828.7 99.3999C828.7 99.0999 828.2 98.4999 826.8 98.1999C825.3 97.8999 825.3 98.0999 826.3 98.7999C827.2 99.4999 828.2 99.6999 828.7 99.3999Z" fill="#282829"/>
<path d="M846.2 99.6C844.7 99.6 843.3 100.1 842.8 100.9C841.3 102.7 842.3 103.4 845.2 103.2C848.1 102.9 849.1 99.6 846.2 99.6Z" fill="#282829"/>
<path d="M647.7 102.3C655 103.1 658.9 103.2 657.9 102.6C657.4 102.3 654.5 102.1 650.1 101.9C643.4 101.8 643.4 101.9 647.7 102.3Z" fill="#282829"/>
<path d="M497.9 102.3C498.4 102.5 499.8 102.7 501.8 102.7C506.2 102.7 505.7 102.5 500.8 102.2C497.9 102 497.4 102 497.9 102.3Z" fill="#282829"/>
<path d="M621.6 99C621.6 99.2 624.5 99.7 628.4 100.2C632.3 100.7 634.7 101.4 634.2 101.8C633.7 102.2 635.2 102.5 637.1 102.6C642.4 102.8 643.4 101.5 638.1 100.9C635.7 100.6 630.8 100 627.4 99.6C624 99 621.6 98.8 621.6 99Z" fill="#282829"/>
<path d="M60.3006 106.8C60.8006 107 62.2006 107.1 64.2006 107.1C66.1006 107.1 66.1006 107 65.2006 106.8C63.7006 106.7 62.3006 106.5 61.3006 106.5C60.3006 106.5 59.8006 106.6 60.3006 106.8Z" fill="#282829"/>
<path d="M690 98C690.5 97.8 690 97.5 689 97.3C688 97.1 687.5 97.2 688 97.6C688.5 98 689.5 98.2 690 98Z" fill="#282829"/>
<path d="M704.5 101C706.4 101.4 706.4 101.7 704.5 101.8C700.1 102 701.1 102.5 706 102.8C712.3 103.3 713.3 102.5 708.4 100.8C706 99.9 705 99.1 706.5 99C708 98.9 707.5 98.5 705.5 98.1C702.1 97.4 701.6 97.5 701.6 98.9C701.6 99.7 703 100.7 704.5 101Z" fill="#282829"/>
<path d="M672.5 97.9C673.5 97.8 673.5 97.7 672 97.5C670.5 97.4 670.1 97.4 670.1 97.6C670.5 97.8 671.5 97.9 672.5 97.9Z" fill="#282829"/>
<path d="M1238.1 98.7C1237.1 98.6 1236.2 98.7 1236.7 98.9C1237.2 99.1 1238.1 99.3 1238.6 99.1C1239.6 99.1 1239.6 98.9 1238.1 98.7Z" fill="#282829"/>
<path d="M569.2 108.7L568.2 108C567.7 107.6 568.7 107.3 571.1 107.4C576.4 107.5 574.5 106.9 568.7 106.7C565.8 106.6 561.9 106 559.5 105.6C557.6 105.1 554.2 104.6 552.7 104.6C548.8 104.5 557.1 107 563.9 108L569.2 108.7Z" fill="#282829"/>
<path d="M606 101.7C607 102.2 607.5 102.2 609.9 101.8C612.3 101.5 611.8 101.3 607 101.1C597.8 100.6 589.5 99.8 584.2 98.8C579.3 98 566.7 97.1 563.3 97.3C561.4 97.4 591.4 101 596.8 101.3C599.2 101.4 602.1 101.4 603.1 101.4C604.1 101.3 605.1 101.4 606 101.7Z" fill="#282829"/>
<path d="M494 106.7C492.5 106.6 492.1 106.6 492.1 106.8C492.1 107 493.1 107.1 494 107C494.9 107 494.9 106.8 494 106.7Z" fill="#282829"/>
<path d="M204.9 99.9C204.9 99.8 203 99.7 201 99.7C199.1 99.7 197.6 99.8 198.1 99.9C198.1 100 200 100.1 202 100.1C203.9 100.1 205.3 100 204.9 99.9Z" fill="#282829"/>
<path d="M431.4 99.1C431.4 99.2 432.4 99.3 433.3 99.3C434.2 99.3 435.7 99.2 436.7 99.1C437.7 99 436.7 98.9 434.8 98.9C432.8 99 431.4 99 431.4 99.1Z" fill="#282829"/>
<path d="M854.4 109.7C855.4 110.2 856.3 110.4 856.3 110.1C856.8 109.9 856.3 109.5 854.8 109.3C853.9 109.1 853.4 109.3 854.4 109.7Z" fill="#282829"/>
<path d="M737.5 97.4C743.3 97.7 743.8 97.7 746.7 97C749.1 96.5 748.6 96.2 745.7 96C742.3 95.8 741.8 95.8 742.3 96.4C742.8 97.1 742.8 97.1 740.4 96.5C738.9 96.2 733.6 95.6 728.3 95.2C718.6 94.5 718.6 94.5 722 95.1C723.9 95.4 726.9 95.9 728.3 96.3C729.7 96.9 734.1 97.3 737.5 97.4Z" fill="#282829"/>
<path d="M863.1 111.6C863.1 111.7 866 111.8 868.4 111.8C871.3 111.8 872.8 111.7 871.3 111.6C869.8 111.5 867.4 111.4 866 111.4C864.6 111.4 863.1 111.5 863.1 111.6Z" fill="#282829"/>
<path d="M445.5 113.9L453.3 114.3L452.3 113.6C451.3 112.9 442.1 112.2 435.8 112.2C429.9 112.3 437.2 113.5 445.5 113.9Z" fill="#282829"/>
<path d="M219.4 100.4C219.9 100.7 237.3 101.7 239.3 101.6C240.3 101.5 235.9 101.2 229.6 100.8C223.8 100.5 219.4 100.3 219.4 100.4Z" fill="#282829"/>
<path d="M508 96.2C506.1 96.1 504.6 96.2 504.6 96.3C504.6 96.4 506.5 96.5 508.5 96.5C510.4 96.5 511.9 96.4 511.9 96.4C511.4 96.4 510 96.3 508 96.2Z" fill="#282829"/>
<path d="M673 96C672 95.9 671.1 96 671.5 96.2C672 96.4 673 96.6 673.4 96.4C674.4 96.3 673.9 96.1 673 96Z" fill="#282829"/>
<path d="M616.7 98C620.1 98 613.3 96.1 608.9 95.9C607 95.8 606 96 607 96.5C608.5 97.4 612.8 98 616.7 98Z" fill="#282829"/>
<path d="M687.5 96.5C688 96.3 687.5 96 686.5 95.8C685.5 95.6 685 95.7 685.5 96.1C686 96.5 687 96.7 687.5 96.5Z" fill="#282829"/>
<path d="M494 101.4C496.4 101.8 492.5 100.7 485.8 99.2L481.4 98.3L482.9 99.5C483.9 100.2 485.8 100.8 487.8 100.9C490.1 100.9 492.5 101.2 494 101.4Z" fill="#282829"/>
<path d="M124.3 102.5C124.3 102.6 126.2 102.6 128.2 102.7C130.1 102.8 131.6 102.7 131.6 102.6C131.6 102.5 129.7 102.4 127.7 102.4C125.8 102.4 124.3 102.4 124.3 102.5Z" fill="#282829"/>
<path d="M635.6 103.7C636.1 103.5 633.7 102.9 630.7 102.6C627.8 102.2 625.8 101.8 626.8 101.6C628.7 101.2 620 100.2 616.1 100.3C612.2 100.5 617.6 101.8 627.3 103.1C633.2 104 635.1 104.1 635.6 103.7Z" fill="#282829"/>
<path d="M1210.6 97.4C1211.2 96.7 1212.3 96 1213.2 95.8C1213.1 95.8 1212.9 95.8 1212.8 95.8C1209.8 95.9 1209.4 96.6 1210.6 97.4Z" fill="#282829"/>
<path d="M1922.7 65.8V64.2C1922.7 59.5 1923.2 54.8 1924.2 50.3C1923 45.7 1922.5 40.9 1922.7 36V34.4C1922.7 29.2 1925.9 7.8 1927.1 2.8C1892.4 8.20001 1850.3 3 1815.1 2.8C1776.5 2.5 1746.7 2.8 1708.1 2.8C1630.1 2.8 1552.6 -3.5 1477.1 2.8C1410.3 8.4 1344.3 4.3 1277.1 2.8C1209.9 1.3 1146.4 2 1079.1 2.8C1045.6 3.2 1016.6 1.4 983.1 1.8C948.2 2.2 911 2.5 876.1 2.8C808.1 3.5 730.1 3.9 662.1 2.8C525.5 0.500005 404.1 1.8 261.1 2.8C175.7 3.4 88.3 11.2 3.4 2.8C2.9 26.2 1.1 49.5 0 72.7C0 72.7 0 72.7 0 72.8L4.1 73.1L3.1 72.6C2.7 72.3 3.7 72.1 5.6 72.1C7.5 72.2 9.5 72.1 10 71.9C10.5 71.8 15.8 74.3 21.6 77.6C27.4 80.9 33.7 83.8 36.2 84.2C39.6 84.7 39.1 84.2 35.2 82.4C30.3 80.3 30.3 79.8 35.2 79.2C38.1 78.8 40.1 78.4 40.1 78.2C39.6 78 40.6 78 45 78.1C49.4 78.3 50.8 78.2 53.2 77.9C55.6 77.6 54.7 77.4 47.4 76.8C38.7 76.2 38.2 76.1 31.9 71.7C28 69.3 26.6 66.9 27.5 66.5C29 66 30.4 65.4 30.9 65.2C32.8 64.2 36.7 64.5 36.7 65.6C36.7 66.9 43 67 44.9 65.8C45.9 65.1 46.4 65.1 49.3 65.6C52.2 66.1 52.2 66.1 53.2 65.5C53.7 65.2 53.7 64 53.2 62.9C52.7 61.8 53.2 60.9 54.2 61C58.6 61.2 77 63.5 78 64C78.5 64.3 79.9 64.5 81.4 64.4C82.4 64.3 85.8 64.6 88.7 65C92.6 65.5 94.5 65.6 96.5 65.4C99.4 65.1 102.3 66 103.8 67.6C104.3 68.4 105.7 68.6 107.7 68.3C109.2 68.1 110.1 67.7 109.6 67.3C108.1 66.3 113.5 66.4 118.3 67.4C121.2 68 122.7 68.1 124.1 67.8C125.6 67.5 126.5 67.5 129.4 68C131.3 68.3 133.3 69 133.8 69.5C134.8 70.8 137.2 71.2 139.1 70.5C140.1 70.1 141.5 70.7 142.5 71.9C143.5 73 145.4 74.6 146.9 75.5C149.8 77.1 146.9 78.1 141.6 77.2C135.3 76.1 134.8 76.1 138.7 77.4C141.1 78.2 144 79.1 145 79.5C146 79.9 149.9 80.5 153.7 80.8C157.1 81.1 159.5 81.5 159 81.5C158 81.6 160.9 81.7 164.3 81.7C168.2 81.7 171.1 81.9 171.6 82.1C172.1 82.4 171.6 82.4 168.7 82.1C165.8 81.7 165.3 81.7 162.4 82.2C158 82.8 158.5 82.8 165.3 82.8C170.2 82.8 170.2 82.8 164.8 83C161.4 83.1 160.4 83.2 162.4 83.2C164.8 83.2 166.8 83.4 167.3 83.7C168.3 84.2 176 84.3 179.4 83.9C180.4 83.8 179.4 83.7 177.5 83.7C175.6 83.7 173.6 83.6 173.6 83.5C173.6 83.4 176.5 83.4 179.9 83.4C185.2 83.5 186.2 83.4 184.3 83C182.8 82.8 183.3 82.7 184.3 82.8C185.8 82.9 187.7 83 188.7 82.9C191.6 82.8 193.6 84.6 191.6 85.2C190.6 85.5 191.1 85.7 193.5 85.7C195.4 85.7 197.9 85.9 198.4 86.3C199.4 87 202.3 86.9 202.3 86.2C202.3 85.9 203.3 85.7 205.2 85.7C206.7 85.7 207.6 85.8 206.7 86C206.2 86.2 207.2 86.5 209.1 86.6C212.5 86.8 213 86.8 212.5 86.6C212.5 86.4 214.9 86.5 217.8 86.8C222.7 87.3 223.1 87.3 224.6 86.9C225.6 86.7 227.5 86.5 229.5 86.5C233.9 86.5 233.9 86.8 229.5 86.9C227.1 87 227.6 87.1 231.4 87.5C237.7 88 237.7 88.6 232.4 89.1C229.5 89.3 230 89.3 233.9 89.1C239.7 88.8 243.6 88.9 241.7 89.3C240.7 89.5 241.2 89.5 243.6 89.4C245.5 89.3 247 89.1 246.5 88.9C246 88.7 247 88.5 248.9 88.5C250.4 88.5 254.2 89.1 256.7 89.8L261.6 91.1L262.6 90.1C264.1 89 266.5 88.6 267.5 89.4C268 89.7 269.9 89.9 271.9 90C275.8 90.1 275.8 89.6 272.9 88.3C271.9 87.9 272.4 87.7 273.4 87.8C274.9 87.9 277.3 88 278.7 87.9C280.6 87.8 281.1 87.9 279.2 88.1C277.7 88.3 278.2 88.7 280.2 89L283.6 89.5L283.1 88.8C282.1 87.9 289.4 88.4 291.3 89.4C293.2 90.4 299.5 90.2 304.9 89L309.3 88V88.9C309.3 89.6 310.3 89.8 314.2 89.8C317.1 89.8 319.5 90 320 90.3C320.5 90.6 323.9 91.1 326.8 91.5C330.2 91.9 334.1 92.7 335 93.2C337.4 94.2 337.4 94.2 338.4 93.5C338.9 93.1 339.9 92.9 340.8 93.1C341.3 93.3 344.2 93.5 347.6 93.6C352 93.7 352.5 93.6 350 93.3C348.5 93.1 345.1 92.8 342.2 92.6C336.4 92.2 333 90.7 337.8 90.5C340.2 90.4 340.2 90.3 337.8 90.2C335.4 90.1 335.4 89.8 337.8 89.2C341.2 88.4 342.2 88.3 347.5 88.5C357.2 88.9 365.9 89.5 366.4 90C366.9 90.4 367.9 90.4 373.2 90.2C379 90 379 90 370.3 88.9C365.4 88.3 361.1 87.9 360.6 88.1C360.1 88.4 359.1 88.4 354.8 88.2C351.9 88.1 349.5 87.9 349.5 87.8C349.5 87.7 344.6 87.2 339.3 86.7C333 86.1 328.1 85.4 325.7 84.6C323.8 83.9 323.3 83.6 324.7 83.8C328.1 84.3 333.4 84.3 332.5 83.7C332 83.3 332.5 83.3 336.9 83.5C339.8 83.6 343.7 84 346.1 84.3C350 84.8 350.5 84.8 349 83.8C347.5 82.5 350.9 82.2 357.2 83.1C360.1 83.5 362.5 83.7 362.1 83.5C362.1 83.3 359.2 82.9 355.8 82.5C351.9 82.1 350.9 81.7 352.9 81.6C354.4 81.5 356.3 81.6 356.3 81.8C356.8 82 359.2 82.1 362.1 82.1C366 82.1 367.4 82.2 367.4 82.7C367.4 83.1 369.8 83.4 373.7 83.6C377.6 83.8 379.5 84 378.6 84.3C377.6 84.6 378.6 84.7 382 84.6C384.9 84.5 386.4 84.7 385.9 84.9C385.4 85.2 386.4 85.2 389.3 85C392.2 84.8 392.2 84.7 388.8 84.5C386.4 84.4 383 83.9 381.5 83.5C380 83.1 377.6 82.5 375.7 82.2C373.3 81.8 373.8 81.7 376.7 81.9C379.6 82.1 380.1 82 377.7 81.4C375.3 80.8 375.3 80.7 379.6 81C384 81.3 384.5 81.3 385.9 81C387.4 80.7 387.8 80.7 396.1 81C402.4 81.2 405.3 81.5 406.3 82.1C407.3 82.7 409.2 82.9 415.5 82.9C420.8 83 423.3 83.1 423.7 83.4C424.2 83.7 423.7 83.8 420.8 83.6C417.4 83.4 416.9 83.4 417.4 83.7C417.9 83.9 420.3 84.1 423.2 84.1C428.1 84.2 429 84.5 430.5 86.5C431.5 87.8 432.4 89.8 432.4 90.9C432.4 92.3 433.9 93.2 437.3 93.8C439.7 94.2 442.6 94.9 443.6 95.3C444.6 95.8 446 96 448.5 95.9C450.9 95.8 449.5 94.6 443.2 91.9C435 88.3 433.5 86.2 438.3 86.4C440.2 86.5 442.7 86.8 445.1 87.4C445.6 87.6 448 87.7 450.4 87.7C453.8 87.7 453.8 87.6 450.4 87.2C445.1 86.6 442.2 84.8 445.5 83.9L447.9 83.1L452.3 83.8C454.7 84.2 458.1 84.6 460.1 84.7C462 84.8 464 85.1 464.5 85.3C465 85.5 467.4 85.7 470.8 85.8C475.2 85.9 476.1 86.1 475.7 86.9C475.2 87.4 477.6 89.4 481 91.2L486.8 94.5L479 94.2C474.6 94 469.8 93.7 467.8 93.5C464.4 93.2 464.4 93.2 464.9 93.6C465.4 93.8 469.8 94.2 475.6 94.4C485.3 94.8 486.3 95 490.6 96.4C495 97.9 502.7 99.4 504.2 98.9C505.2 98.5 502.7 96.8 500.8 96.7C496.4 96.3 489.6 93.3 481.4 87.5C480.9 87 481.9 86.8 485.3 86.8C489.2 86.8 489.7 86.7 486.3 86.3C483.9 86.1 483.4 85.7 484.4 85.6C485.4 85.5 486.3 85 485.9 84.6C484 83 484 82.6 486.4 82.7C490.8 82.9 492.7 84 489.3 84.3C486.9 84.5 487.8 84.5 491.2 84.5C494.1 84.5 497.5 84.6 499 84.6C500.5 84.7 499 84.7 496.1 84.7C491.7 84.6 490.8 84.8 491.7 85.3C492.7 85.8 493.6 85.9 495.6 85.7C497.1 85.5 497.5 85.3 496.6 85.3C495.6 85.2 496.1 85.2 497.6 85.1C499.1 85.1 504.4 85.7 508.8 86.4C513.2 87.1 517.5 87.8 518.5 87.8C519.5 87.8 518 87.4 516.1 86.9C513.7 86.3 513.7 86 516.1 86C518 86 520 86.1 520.5 86.3C521 86.5 522.4 86.7 524.4 86.7C526.3 86.7 528.8 87.1 530.2 87.5C532.6 88.3 538 88.6 537 87.8C536.5 87.4 536.5 87.4 539.9 87.7C541.8 87.9 543.3 87.9 543.3 87.8C542.8 87.4 550.1 87.5 550.6 87.9C551.1 88.2 552.1 88.3 555 88.1C557.4 87.9 559.9 87.9 563.2 88C567.1 88.1 568.1 88.1 567.6 87.9C567.1 87.7 565.2 87.6 563.2 87.7C561.3 87.7 558.3 87.6 557.9 87.4C556.9 87.2 557.4 87.1 558.9 87.3C560.8 87.5 562.3 87.5 565.7 87.3C569.1 87.1 570.1 87.1 570.6 87.4C571.1 87.6 572.5 87.7 573.5 87.6C575 87.5 577.9 88.8 579.3 90.4C581.7 92.5 583.7 93.4 586.6 93.5C589.5 93.6 589.5 92.9 586.1 90.9C583.2 89.2 582.7 88.1 585.1 88.1C587.5 88 588.5 88.3 588.5 89.1C588.5 89.8 589.5 90.3 591.9 90.3C593.8 90.4 595.3 90.2 594.8 90C594.3 89.8 595.3 89.6 597.2 89.6C603 89.6 607.4 90.6 612.2 92.9C619 96.1 620.4 96.6 628.2 97.2C631.6 97.5 636.4 98.1 638.4 98.6C642.8 99.7 649.1 99.9 645.2 98.8C638.4 96.7 629.2 92.5 631.1 92.2C632.1 92 632.1 91.4 630.6 90.8C629.1 90.1 629.6 89.9 631.6 90C633.5 90.1 636.5 90.2 637.9 90.2C639.4 90.1 642.3 90.7 643.7 91.5C645.6 92.4 645.6 92.7 643.2 92.3C639.8 91.7 637.9 91.9 635.4 92.8C634.9 93.1 635.9 93.3 637.8 93.3C639.7 93.3 641.7 93.4 641.7 93.6C642.2 93.8 643.6 94 645.6 94.1C647.5 94.2 650 94.5 651.4 94.8C652.9 95.1 652.9 94.5 651.4 93.5C649.9 92.5 649.9 91.5 650.9 91.3C652.8 90.9 652.8 90.9 655.8 91.3C657.3 91.5 661.1 91.8 664 91.9C668.4 92.1 669.3 92 668.4 91.6C667.9 91.3 666 91.1 663.5 91.2C660.6 91.3 659.1 91 658.6 90.1C658.1 89.1 657.6 89 653.3 89.4C648.9 89.8 648.4 89.8 648 89.3C647.5 89 648.5 88.8 650.4 88.7C652.3 88.6 653.3 88.3 652.8 88C652.3 87.7 653.3 87.5 655.2 87.4C655.5 87.4 655.9 87.4 656.2 87.4C656 87.4 655.8 87.3 655.7 87.2C655.2 87 655.7 86.8 656.7 87C657.6 87.1 658.1 87.3 657.7 87.4C660.6 87.5 662.6 87.8 664.9 88.5C668.3 89.4 675.6 89.6 674.1 88.7C673.6 88.3 671.7 88 669.7 88C667.8 88 666.3 87.9 665.8 87.7C665.3 87.5 666.8 87.4 668.7 87.4C670.6 87.4 670.6 87 668.7 86.5C666.3 85.8 666.3 85.7 669.2 85.9C672.6 86.1 673.1 86.1 672.6 85.9C672.6 85.7 670.2 85.5 668.2 85.4C665.3 85.3 665.3 85.1 667.2 84.8C669.1 84.6 669.6 84.3 668.2 84.1C665.4 83.8 669.7 83.2 674.2 83.1C672.8 83.1 671.7 83 671.6 83C671.6 82.9 670.6 82.7 669.7 82.6C668.7 82.5 668.2 82.2 669.2 82C670.2 81.7 671.1 81.7 677.9 82.2C681.8 82.5 684.2 82.9 683.2 83C682.2 83.1 679 83.2 676.3 83.2C677.3 83.2 677.7 83.3 676.9 83.5C675.9 83.7 677.9 83.9 680.8 84C686.6 84.3 689 85 693.9 88.3C696.8 90.2 693.9 92.8 689.5 92C688.5 91.8 686.1 91.6 684.2 91.7C681.8 91.8 681.3 91.7 682.3 91.5C682.5 91.5 682.7 91.4 682.8 91.4C682.4 91.4 682 91.3 681.8 91.2C681.8 91 682.2 90.9 683.4 91.1C683.5 90.9 683.5 90.8 683.3 90.6C682.3 90 682.8 90 686.2 90.3C688.6 90.5 689.1 90.3 686.2 89.6C684.3 89 683.8 88.6 685.2 88.6C686.7 88.6 686.2 87.7 684.7 86.5C682.8 85.3 681.3 84.5 680.8 84.8C679.8 85.9 675.5 86.9 672.1 86.7C669.7 86.5 669.2 86.5 669.2 86.8C669.7 87 671.1 87.1 672.6 87.1C676.5 87.1 680.4 89.3 676.5 89.4C675 89.5 673.6 89.7 674.1 89.9C674.6 90.3 674.1 90.3 671.2 90C669.3 89.8 669.7 90.6 671.7 91.8C673.6 93 676.1 93.7 676.6 93.4C678.1 93 678.5 93 681 93.6C683.9 94.3 683.9 94.3 682.9 93.4C682.4 92.8 682.9 92.6 685.3 92.7C687.2 92.8 688.7 93.2 688.2 93.6C687.7 94.2 688.2 94.2 690.6 93.8C692.1 93.6 693.5 93.1 694 92.8C694 92.5 696.4 91.9 698.4 91.5L702.3 90.8L703.8 91.7C705.3 92.4 706.2 92.6 709.1 92.4C711.5 92.2 712 91.6 709.1 90.4C708.6 90.2 708.2 90 707.9 89.8C707.7 89.8 707.4 89.8 707.2 89.8C705.3 89.8 703.8 89.8 703.8 89.7C703.8 89.6 705.3 89.6 706.7 89.5C706.9 89.5 707.2 89.5 707.4 89.5C706.5 88.9 707.3 88.9 710.1 89.2C712.5 89.5 715.9 89.9 716.9 90C718.4 90.1 720.3 91.1 721.8 92.2C723.7 93.8 724.7 94.1 729.6 94.2C734.5 94.3 734.5 94.1 731.1 93.1C728.7 92.3 728.2 91.8 730.1 91.8C732 91.7 732 91.3 730.1 90.7C728.2 90.2 725.7 89.8 724.3 89.8C722.8 89.9 719.9 89.3 717.5 88.6C715.1 87.9 711.2 87.2 709.3 87C706.9 86.8 706.4 86.6 708.3 86.6C710.2 86.6 711.7 86.4 711.7 86.1C712.2 85.3 718.5 85.4 720.9 86.3C722.4 86.7 724.8 87.1 726.2 87.1C728.1 87.1 730.1 87.4 730.6 87.7C731.1 88.1 734.5 88.6 737.9 89C750.5 90.3 770.9 94.9 763.1 94.7C761.2 94.6 759.2 94.3 759.2 93.9C759.2 93.5 758.7 93.4 758.2 93.5C757.7 93.7 756.3 93.8 754.8 93.8C749.9 93.7 757.7 95.2 763 95.5C767.4 95.7 768.8 96 768.8 97.2C769.3 98.2 769.8 98.4 771.2 97.9C772.2 97.5 772.7 96.7 771.7 96C770.7 95.2 771.7 94.8 773.2 95C775.1 95.2 776.1 95.1 775.6 94.7C775.2 94.4 776 94.2 779.1 94.3C779 94.3 779 94.2 779 94.2C778.5 94 779.5 93.9 780.5 94.1C781.2 94.2 781.6 94.3 781.5 94.4C783.9 94.5 786 94.6 786.8 94.7C787.8 94.9 787.8 94.8 786.8 94.5C785.8 94.2 785.8 93.7 787.3 93.4C790.2 92.8 786.8 92.4 782.4 92.9C780.5 93.1 779 92.8 777.5 91.9C775.6 90.6 775.6 90.6 780.9 91.1L786.2 91.6L785.7 91.1C785.2 90.8 786.7 90.4 788.1 90.3C790.5 90.1 791.5 90.6 793 92.2C794.5 94.1 795.9 94.4 800.8 94.7C805.7 94.9 806.1 95.1 803.7 95.7C801.3 96.2 801.8 96.6 805.6 97.1C808.5 97.6 810 97.6 809.5 97.3C807.1 96.4 809.5 94.2 812.4 94.5C813.9 94.7 815.8 94.8 817.3 94.7C822.6 94.5 835.2 95.6 836.7 96.3C839.1 97.5 845.4 98.1 844 96.9C843.5 96.4 844 96.1 845.9 96.1C849.3 96.2 860 99.4 861.4 100.8C862.9 102.2 865.3 101.5 865.8 99.7C865.8 98.9 866.5 98.2 867.2 97.9C866.8 97.7 866.3 97.5 865.8 97.2C863.9 96.2 864.3 95.5 867.3 95.1C871.2 94.7 871.2 94.8 872.2 96.1C872.5 96.7 872.4 97.3 871.8 97.7C873.7 97.9 875.7 98.3 878 99C879.9 99.7 882.9 100.2 884.3 100.2C885.8 100.2 889.2 100.4 891.6 100.7C894 101 899.8 101.5 904.7 101.8C915.9 102.6 918.8 104.6 913.9 108.4C911 110.6 911.5 111.4 915.4 112.2C917.8 112.8 920.7 113.3 921.2 113.3C922.7 113.4 923.6 109.1 922.2 107.8C920.7 106.2 926.1 105.9 932.9 107.2L938.2 108.2L935.3 107.3C931.9 106.2 933.4 105.7 938.7 106.1C941.1 106.3 941.6 106 940.6 105.5C937.7 103.8 937.7 103.6 944.5 103.6C947.9 103.6 950.8 103.6 950.8 103.7C949.8 104.4 953.7 104.8 960 104.8C965.8 104.8 966.3 104.7 962.4 104.4C957.1 104 955.6 101.8 960.9 101.7C963.3 101.6 962.8 101 960.4 100C958 99 957.5 98.3 959.4 98.2C961.3 98.1 962.8 98.3 963.3 98.5C963.8 98.7 965.2 98.8 967.2 98.7C971.6 98.5 973.5 100.5 970.1 101.4C967.2 102.1 969.1 102.8 974 102.6C975.5 102.5 977.4 102.7 977.4 102.8C977.9 103 976.9 103.2 975 103.3C969.2 103.5 968.2 106.2 973.5 106.6C975.4 106.7 976.4 106.3 976.4 105.5C976.4 103.7 977.9 103.2 981.3 103.2C982.8 103.3 984.7 103.1 985.7 103C986.7 102.8 985.7 102.6 983.3 102.6C980.9 102.5 979.4 102.3 979.4 102.1C979.4 101.9 978.4 101.6 976.5 101.4C974.6 101.3 975 101.1 977.5 101C979.9 100.9 982.4 100.8 982.4 100.9C983.9 101 992.6 103.4 993.6 104C994.1 104.4 996.5 104.7 999.9 104.8C1004.3 104.9 1004.3 104.6 999.9 103.2C997 102.2 996.5 101.5 998.4 101.5C1000.3 101.5 1001.8 101.6 1001.8 101.7C1002.3 102.1 1013.9 100.9 1013.4 100.6C1012.9 100.2 1025.5 101.3 1027.5 101.8C1028 102 1033.3 102.5 1039.1 103.1C1044.9 103.6 1050.7 104.3 1052.2 104.7C1053.7 105 1056.1 105.4 1057.5 105.5C1058.9 105.6 1058.5 105.7 1056 105.7C1051.1 105.7 1058.4 107.8 1063.8 107.9C1065.7 107.9 1067.2 108 1067.2 108.1C1067.2 108.2 1065.7 108.2 1063.8 108.2C1061.9 108.1 1060.4 108.2 1060.4 108.3C1060.4 108.4 1062.8 108.5 1065.7 108.5C1069.1 108.6 1070.6 108.5 1070.6 108.3C1070.2 108.2 1071.1 108.1 1072.4 108.1L1069.6 107.7C1067.7 107.4 1065.7 106.9 1065.2 106.7C1063.9 106.3 1064.2 106.3 1066.7 106.5C1065.6 106.3 1064.8 106.1 1064.2 105.9C1062.7 105.4 1059.8 104.7 1057.9 104.2C1055.5 103.6 1055.5 103.4 1058.9 103.2C1062.3 103.1 1062.3 103 1058.4 102.8C1056 102.7 1053.1 102.3 1052.1 101.8L1050.2 101.1V101.8C1050.2 102.6 1048.8 102.6 1039 102.2C1031.7 101.9 1029.3 101.4 1035.1 101.4C1037.5 101.4 1037 101.2 1033.2 101C1026.4 100.5 1021.1 99.5 1022.5 98.8C1023.5 98.3 1024 98.3 1028.8 98.6C1033.2 98.9 1033.6 98.8 1030.7 98.1L1027.3 97.3L1037.5 98.2C1045.8 98.9 1047.7 99.2 1047.2 100C1046.7 100.5 1048.2 101 1050.1 101.1C1052 101.2 1055.4 101.6 1057.4 101.9C1063.7 103 1067.1 102.5 1062.7 101C1059.8 100 1059.3 99.6 1062.2 99.8C1065.6 100 1066.1 100 1065.6 99.7C1065.1 99.5 1063.2 99.2 1060.7 99.1C1058.3 99 1057.3 98.7 1057.8 98.6C1058.8 98.3 1059.3 98.3 1063.1 98.7C1065.5 99 1069.9 99.2 1072.8 99.2C1075.7 99.2 1078.1 99.3 1078.6 99.6C1079.1 99.8 1082 100.3 1084.9 100.6L1090.7 101.1L1088.3 100.4C1085.9 99.8 1085.9 99.8 1090.2 100.2C1093.6 100.5 1095.1 100.6 1097 100.4C1100.4 100 1107.7 102.3 1106.7 103.3C1106.2 103.8 1106.2 104.5 1107.2 104.9C1109.1 106 1121.8 109.2 1127.1 110C1131.9 110.7 1130.5 111 1124.7 110.6C1121.8 110.4 1121.3 110.4 1121.8 110.7C1122.3 110.9 1120.8 111 1119.4 111.1C1117.5 111.1 1118.9 111.4 1122.3 111.6C1127.6 112.1 1128.1 112.3 1125.7 113.6C1124.2 114.4 1123.3 115.3 1123.8 115.6C1124.8 116.2 1134 116.7 1136.4 116.3C1137.4 116.2 1137.4 116.3 1136.4 116.6C1135.4 116.9 1135.4 117.5 1135.4 117.9C1135.9 118.3 1135.4 119 1134.9 119.5C1133.9 120.2 1135.9 120.5 1147.5 121.6L1161.1 122.8L1158.8 121.8C1158 121.9 1155.4 121.7 1150.9 121.2C1144.1 120.5 1143.1 120.2 1147 119.8C1150.2 119.5 1152.1 119.6 1156.2 120.7C1154.1 119.9 1151.2 118.8 1148.9 118.1C1146.2 117.2 1145.1 116.6 1145.8 116.1C1145.4 116.1 1145 115.9 1144.6 115.5C1144.1 115 1142.2 114.5 1140.2 114.3C1137.8 114 1138.3 113.9 1142.6 114C1146.5 114.1 1148.6 114.4 1148.8 114.9C1149.8 114.4 1150.3 113.9 1149.9 113.5C1148.9 113 1149.9 112.8 1151.8 112.9C1153.3 113 1153.7 112.7 1152.8 112.1C1151.8 111.4 1152.3 111 1154.7 111C1157.1 110.9 1157.6 110.6 1155.2 110C1154.2 109.7 1153.7 109.4 1153.7 109.1L1153.3 109C1148 108.2 1146.5 106.9 1149.9 106L1152.8 105.2L1155.7 105.8C1159.6 106.6 1160.1 107.1 1156.2 107C1154.3 106.9 1153.8 107.2 1154.7 107.5C1155 107.6 1155.3 107.7 1155.6 107.9L1157.6 107.3L1161 107.8C1162.9 108.1 1162.9 107.7 1160.5 106.9C1156.6 105.6 1156.6 105.5 1161.5 105.8C1164.4 106 1168.3 106.4 1170.2 106.7C1172.1 107 1174.1 107.2 1175.1 107.1C1176.1 107 1174.1 106.6 1171.2 106.2C1164.9 105.2 1157.6 102.3 1162.5 102.4C1164.4 102.5 1166.4 102.8 1166.9 103.2C1168.4 104.2 1178.1 106 1185.8 106.8C1191.1 107.3 1191.6 107.6 1189.2 109.2C1187.8 110.2 1186.8 111.1 1187.3 111.4C1188.3 111.9 1183.4 112.1 1180 111.7C1179 111.6 1179 112.6 1180 114C1181.9 116.3 1181.4 116.6 1173.7 117.4C1166.9 118.1 1166.4 118.4 1169.3 118.8C1171.2 119.1 1172.7 119.5 1172.2 119.7C1171.7 119.9 1172.7 120 1174.1 120C1175.6 120 1177 119.6 1176.5 119.2C1176.5 118.6 1178 118.4 1181.8 118.4C1186.7 118.3 1187.6 118.4 1186.7 118.8L1185.7 119.3L1190.1 118.8C1192.5 118.5 1193.5 118.2 1192.5 118.1C1191.5 118 1192 117.9 1193.9 117.8C1196.3 117.7 1197.3 118 1197.3 118.8C1196.8 119.9 1194.9 120.4 1193.4 119.8C1192.9 119.7 1191.9 119.9 1191.5 120.4C1191 120.9 1192.5 121.5 1196.3 122.1L1202.1 122.9L1198.2 121.6C1196.3 120.9 1195.8 120.4 1197.7 120.5C1199.6 120.6 1201.1 120.3 1201.6 119.5C1202.1 118.8 1203 118.4 1204 118.5C1207.4 118.9 1211.8 118.7 1214.2 118C1217.6 117 1216.6 116.7 1211.3 117.1C1208.9 117.3 1207.9 117.6 1208.9 117.9C1209.9 118.1 1209.9 118.2 1208.9 118C1207.9 117.9 1205.5 117.8 1204 117.8C1202.1 117.8 1200.1 117.5 1199.6 117.1C1199.1 116.7 1197.2 116.4 1195.7 116.4C1191.8 116.4 1189.4 113.9 1191.3 111.4C1192.7 109.1 1197.1 107.9 1199.6 108.9C1200.1 109.1 1202.5 109.5 1204.4 109.7C1207.8 110 1207.8 110 1205.8 109.5C1203.4 108.9 1207.3 109.1 1213.6 109.8C1217 110.2 1217 110.5 1214.1 110.7C1211.7 110.9 1210.2 111.1 1210.2 111.2C1210.2 111.3 1211.6 111.3 1213.1 111.1C1215 110.9 1216 110.9 1216.5 111C1217 111.1 1218.9 111.2 1221.8 111.1C1224.7 111 1225.7 110.9 1224.7 110.7C1223.7 110.6 1223.7 110.4 1225.7 110.3C1230.1 110.1 1227.2 109.6 1218.9 109C1209.2 108.3 1204.3 107.2 1205.3 105.9C1205.8 105.3 1205.3 104.7 1203.8 104.6C1202.8 104.5 1203.3 104.2 1205.3 103.9C1207.2 103.6 1208.2 103.1 1207.7 102.9C1207.2 102.6 1207.7 102.4 1209.2 102.5C1210.6 102.5 1210.6 102.2 1209.7 101.7C1208.7 101.2 1208.3 100.1 1208.7 99.1C1208.9 98.7 1209.2 98.3 1209.5 98.1C1209 98.1 1208.4 98.1 1207.7 98C1202.4 97.8 1194.6 93.9 1198.5 93.5C1201.4 93.2 1205.8 93.8 1208.2 94.8C1209.2 95.2 1210.1 95.3 1210.6 95C1211.1 94.8 1213 94.6 1215 94.6C1216.9 94.6 1217.9 94.8 1217.4 95H1217.3C1219.6 95 1225.5 95.5 1231 96C1240.7 96.9 1241.7 97.1 1243.1 98.9C1244.1 99.9 1245 100.6 1245.5 100.5C1246 100.3 1247.4 100.2 1248.9 100.1C1254.7 100.1 1256.7 100.7 1252.3 101.1C1249.4 101.4 1247.9 101.4 1247.4 101.3C1246.9 101.1 1245.9 101.1 1244 101.4C1242.6 101.6 1242.6 101.9 1244 102.1C1248.4 102.5 1255.6 104.7 1252.3 104.6C1250.9 104.5 1249.4 104.4 1248.9 104.2C1248.4 104 1246.5 103.8 1244.5 103.6C1241.6 103.4 1241.1 103.6 1242.6 104.1C1243.6 104.6 1247 105 1250.4 105.2C1253.8 105.4 1260.1 106.1 1265 106.9C1269.4 107.7 1275.7 108.5 1278.6 108.8C1283.5 109.2 1283.5 109.2 1282.5 108.6C1281.5 107.9 1283 107.8 1290.3 107.9C1293.7 108 1296.6 108.2 1297.1 108.5C1297.6 108.9 1299 109 1301.5 108.9C1303.4 108.8 1308.8 109 1313.6 109.2L1321.9 109.7L1323.4 109C1324.8 108.4 1324.8 108.4 1330.2 108.7C1333.1 108.9 1336 109.2 1336 109.3C1336.5 109.5 1338.4 109.7 1340.4 109.8C1342.8 110 1343.3 109.8 1342.3 109.2C1341.3 108.7 1339.4 108.4 1338.4 108.5C1336 108.7 1326.3 108.2 1322.4 107.5C1320.5 107.2 1320 107.2 1320.5 107.6C1320.5 107.8 1319.5 108 1317.6 108C1315.7 108 1315.2 107.9 1316.2 107.7C1317.2 107.5 1316.7 107.4 1314.3 107.5C1311.9 107.6 1310.4 107.5 1309.4 107.1C1308.9 106.7 1307.9 106.7 1306 106.9C1304.1 107.1 1302.6 107 1300.7 106.7C1299.2 106.5 1298.3 106.1 1299.2 106C1300.1 105.9 1296.3 105.4 1290.5 105C1285.2 104.6 1281.8 104.3 1283.7 104.3C1285.6 104.3 1285.6 103.9 1283.7 103.3C1281.8 102.8 1281.8 102.4 1283.2 102.5C1285.1 102.6 1288 102.7 1290.5 102.7C1293.9 102.7 1293.4 102.6 1289 102.2C1285.6 101.9 1284.1 101.6 1285.6 101.6C1289.5 101.4 1298.7 102.3 1296.7 102.7C1295.7 102.9 1297.7 103.1 1302.5 103.4C1308.3 103.6 1309.8 103.6 1309.3 103.5C1308.8 103.3 1307.4 103.2 1305.4 103.1C1303.5 103 1301.5 102.6 1301 102.1C1300 101.5 1297.6 101.1 1295.2 101C1290.4 100.9 1282.1 99.4 1284 99.1C1286.4 98.6 1291.3 98.8 1292.7 99.5C1293.7 99.9 1295.6 100.3 1297.1 100.5C1299.5 100.8 1300.5 100.6 1301 99.9C1301.4 99.5 1301.5 99.1 1301.3 98.7C1300.7 98.8 1299.9 98.8 1299.1 98.8C1296.2 98.7 1293.8 97.7 1295.2 96.9C1296.2 96.3 1302 96.3 1303 97C1303.7 97.3 1303.8 97.7 1303.5 98C1303.7 98 1303.8 98 1304 98C1306.9 98.1 1307.4 97.9 1305.5 97.5C1302.1 96.6 1306.9 96.9 1310.8 97.8C1312.7 98.2 1312.7 98.5 1310.3 98.4C1307.9 98.3 1307.9 98.6 1310.3 99.1C1312.7 99.7 1312.7 100.1 1310.3 100.2C1307.4 100.4 1307.4 100.6 1311.3 100.9C1317.1 101.4 1317.6 102.6 1312.3 102.6C1310.4 102.6 1307.5 102.7 1306 102.8C1304.5 102.9 1307 102.9 1312.3 102.8C1320.1 102.7 1321.5 102.7 1323.5 103.1C1324.9 103.4 1324.5 103 1322.5 102.2C1320.6 101.4 1320.1 100.7 1321.5 100.5C1323.9 100.2 1324.9 100.3 1325.9 101.2C1326.4 101.7 1327.4 101.6 1330.3 100.9C1332.2 100.4 1334.7 100.8 1339.5 102.3C1341.9 103.1 1345.3 103.9 1346.8 103.9C1348.2 104 1351.2 104.2 1353.6 104.5C1356.5 104.9 1360.4 105 1366.7 105C1373 105 1379.8 105.3 1390 105.9C1397.8 106.4 1404.6 106.7 1405 106.6C1405.5 106.5 1403.6 106.2 1401.1 106.1C1396.7 105.9 1397.2 105.8 1403 105.9C1408.8 105.9 1410.3 106.1 1412.7 107C1414.6 107.7 1417.5 108.2 1421 108.3C1423.9 108.4 1429.3 108.8 1432.6 109.1C1437 109.5 1437.9 109.6 1436 109.3C1434.5 109.1 1432.1 108.6 1430.7 108.3C1428.3 107.8 1428.3 107.8 1432.2 108.2C1434.6 108.4 1438 108.8 1440 109C1446.3 109.7 1438.1 107.6 1431.3 106.8C1427.9 106.4 1425 105.8 1425.5 105.6C1426 105.2 1426.5 105.2 1431.3 105.7C1437.6 106.4 1440.5 106.2 1435.2 105.5C1432.8 105.2 1429.9 104.7 1427.9 104.4C1425.5 103.9 1426 103.8 1429.4 104C1431.8 104.1 1436.7 104.2 1440.5 104.2C1444.4 104.2 1452.6 104.4 1458.9 104.6C1465.2 104.8 1472 105 1473.9 105C1475.8 105 1482.2 105.2 1488.5 105.4C1502.1 105.9 1502.6 105.8 1489.5 105C1483.7 104.6 1478.8 104.1 1477.4 103.6C1475.9 103.2 1473.5 102.6 1471.6 102.3C1468.7 101.9 1469.2 101.9 1481.8 102.4C1492 102.8 1494.9 102.9 1494.4 102.7C1493.9 102.3 1498.3 102.3 1504.1 102.6C1508.5 102.8 1509.4 105.2 1506 107C1505.5 107.3 1505.5 107.6 1506.5 107.6C1508.9 107.6 1512.8 105.9 1512.8 104.6C1512.8 104 1513.8 103.5 1514.3 103.5C1516.2 103.3 1533.7 104.2 1534.2 104.5C1534.7 104.7 1538.1 104.9 1542 105C1545.9 105.1 1552.2 105.5 1555.6 105.9C1559.5 106.3 1562.9 106.4 1563.4 106.3C1563.9 106.2 1562.9 105.9 1561 105.8C1559.1 105.7 1556.1 105.4 1554.2 105.2C1551.8 104.9 1552.3 104.9 1559.5 105.3C1563.9 105.5 1572.1 106.2 1577.4 106.8C1584.7 107.6 1586.1 107.7 1584.2 107.3C1577.4 105.8 1576.4 105.6 1578.4 105.8C1581.8 106.1 1587.1 106 1586.2 105.7C1585.2 105 1593.5 105.8 1597.8 106.8C1600.2 107.4 1602.7 107.7 1602.7 107.5C1602.7 107.2 1603.2 107.1 1606.6 107.4C1612.4 107.8 1620.2 107.5 1619.2 106.9C1617.7 106 1623.6 106.4 1636.2 108.1C1643.5 109 1650.3 109.7 1653.7 109.7C1660.5 109.8 1666.8 110.2 1679.9 111.3C1695.9 112.7 1712.9 113.3 1724.5 113.1C1733.7 112.9 1734.2 112.5 1726.9 111.2C1718.6 109.6 1710.9 106 1715.7 106C1717.6 106 1721.5 106.3 1724.4 106.7C1727.3 107.1 1732.7 107.7 1736.5 107.9C1740.4 108.1 1745.2 108.7 1747.2 109.2C1749.1 109.7 1753 110.2 1755.9 110.4C1760.7 110.7 1761.2 110.7 1762.7 110C1764.6 109.4 1766.1 109.3 1776.3 109.3C1791.8 109.2 1796.7 109.3 1797.2 109.7C1797.7 109.9 1799.1 110.1 1801.1 110C1803 110 1804.5 109.9 1804 109.8C1804 109.7 1804.5 109.5 1805.4 109.3C1806.4 109.1 1805.9 109 1803.5 109.1C1801.6 109.2 1799.6 109.2 1799.6 109.1C1799.6 109 1794.8 108.1 1789.4 107.1C1774.8 104.5 1768 100.8 1772.4 98.4C1775.3 96.8 1780.6 95.6 1785.5 95.6C1792.8 95.6 1800.1 96 1810.7 96.9C1823.3 98.1 1824.8 98.5 1827.7 100.8C1828.7 101.5 1830.6 102.4 1832.5 102.9C1835.9 103.8 1833 105.3 1826.7 105.9C1824.8 106.1 1821.8 106.5 1820.4 106.9C1819 107.3 1816.5 107.6 1815.1 107.7C1813.6 107.7 1811.7 108 1810.7 108.2C1809.2 108.6 1809.2 108.6 1814.1 108.4C1818.5 108.2 1819.4 108.2 1819.9 108.5C1820.4 108.7 1821.8 108.7 1824.7 108.3C1828.6 107.8 1828.6 107.8 1829.1 108.9C1829.1 109.6 1830.6 110 1832 109.8C1833.5 109.6 1834.4 108.9 1834.4 108.2C1834.4 106.5 1838.3 105.3 1842.7 105.6C1847.5 105.9 1848.5 105.3 1846.1 103.2C1844.2 101.3 1848.5 100.6 1855.8 101.5C1875.2 103.9 1888.3 103.2 1879.6 100.3C1876.2 99.2 1875.7 98.7 1878.2 98.7C1882.1 98.7 1883.5 99 1894.2 101.6C1904.4 104.2 1908.3 104.2 1903.9 101.5C1901.5 99.9 1901 99.2 1903.9 99.3C1906.3 99.5 1907.3 99.2 1905.8 98.5C1904.3 97.7 1905.3 97.4 1909.2 97.4C1913.1 97.4 1918.1 97.7 1921.9 98.2C1923 93.8 1924.7 89.5 1926.7 85.4C1923.6 79.7 1922.4 72.9 1922.7 65.8ZM19.2 45.3C21.1 44.9 21.6 44.9 22.6 45.3C23.1 45.5 22.1 45.7 20.2 45.7C18.3 45.7 16.8 45.7 16.8 45.7C16.8 45.7 17.7 45.5 19.2 45.3ZM16.8 47.8C14.9 47.8 12.9 47.7 12.9 47.5C12.4 47.3 12.9 47.2 13.9 47.2C14.9 47.2 16.3 47.3 17.8 47.5C19.2 47.7 18.7 47.8 16.8 47.8ZM13.8 46.7C14.8 46.8 15.3 47 14.3 47.1C12.8 47.2 11.9 47 11.9 46.9C11.9 46.6 12.4 46.5 13.8 46.7ZM11.4 51.6C12.4 51.7 12.9 51.9 11.9 52C10.9 52.1 10 52 10 51.8C9.5 51.5 10.5 51.4 11.4 51.6ZM4.6 48.9L6.1 48.2L8 48.9C9 49.3 9.9 49.7 9.5 49.8C9 49.9 9 50.2 9.5 50.5C10 50.7 9 50.9 7.6 50.9C4.1 50.9 2.7 49.8 4.6 48.9ZM6.6 52.4C5.6 52.5 4.7 52.4 4.2 52.2C3.7 52 4.2 51.8 5.7 52C6.6 52.1 7.1 52.3 6.6 52.4ZM11.9 70.6C9 70.3 4.1 70.4 3.2 70.7C1.3 71.4 0.3 69.9 2.2 69.2C3.2 68.8 4.1 68 4.6 67.6C4.6 67.1 6.5 66.7 9 66.7C11.4 66.7 12.4 67.1 12.9 68.2C12.9 69 13.4 70 13.4 70.3C13.4 70.5 12.9 70.7 11.9 70.6ZM10.9 64.6C12.4 64.4 13.3 64.5 12.8 65.2C12.3 65.7 11.8 66.2 11.3 66.2C9 66.4 9 65 10.9 64.6ZM12.9 63.4C11.9 63.6 10 63.2 9 62.5C7.5 61.8 7.5 61.2 9 61.2C10.5 61.2 11.9 61 12.4 60.8C12.9 60.6 13.4 61 13.9 61.8C14.4 62.6 13.8 63.2 12.9 63.4ZM18.2 48.6C16.3 48.6 14.8 48.6 14.8 48.5C14.8 48.4 16.3 48.4 17.7 48.3C19.2 48.2 20.6 48.2 21.1 48.4C21.1 48.5 20.2 48.6 18.2 48.6ZM23.1 46.4C22.1 46.5 21.2 46.4 21.2 46.2C20.7 46 21.7 46 22.7 46.1C23.5 46.2 24 46.4 23.1 46.4ZM23.5 44.3C23 44.4 22 44.3 21.6 44.1C21.1 43.9 21.1 43.7 22.6 43.9C23.5 44 24 44.2 23.5 44.3ZM25 41.1C24 41.3 23.1 41.1 22.6 40.8C22.1 40.5 22.6 40.4 24.1 40.6C25 40.7 25.5 41 25 41.1ZM74 27.3C74 27.4 76.4 27.4 78.9 27.1C83.3 26.7 83.3 26.7 81.8 27.1C79.4 27.6 75 28 71.6 27.9C67.2 27.8 66.7 27.3 70.6 27.2C72.5 27.1 74 27.2 74 27.3ZM70.1 11.3C71.1 11.5 72 11.9 71.1 12C70.6 12.2 69.6 12 69.2 11.6C68.7 11.2 69.1 11.1 70.1 11.3ZM69.1 12.8C70.1 12.9 70.6 13.1 69.6 13.2C68.6 13.3 67.7 13.2 67.7 13C67.2 12.7 67.7 12.7 69.1 12.8ZM66.7 15.5C67.7 15.6 68.2 15.8 67.2 15.9C66.2 16 65.3 15.9 65.3 15.7C64.8 15.4 65.3 15.3 66.7 15.5ZM64.8 17.5C67.2 17.6 67.7 17.8 66.3 18.1C63.9 18.5 63.9 18.5 62.4 17.9C61.4 17.5 61.9 17.4 64.8 17.5ZM64.8 52.9C63.8 53.1 62.9 52.9 62.4 52.6C61.9 52.3 62.4 52.2 63.9 52.4C64.8 52.5 65.3 52.8 64.8 52.9ZM61.4 22.3C62.4 22.5 62.9 22.7 62.4 22.8C61.9 22.9 60.9 22.8 60.5 22.5C59.4 22.3 59.9 22.2 61.4 22.3ZM83.2 59.3C82.2 61.1 80.8 62.6 79.8 62.7C77.9 62.9 71.6 62.4 66.2 61.5C63.3 61.1 59.9 60.7 58 60.7C53.1 60.7 51.7 57.4 55.6 55.6C56.6 55.2 57.1 55.1 60 55.5C62.4 55.8 63.4 55.7 62.4 55.1C61.9 54.7 60.5 54.4 59 54.5C57.5 54.6 56.6 54.3 56.6 54C57.1 53.2 67.3 52.9 73.6 53.6C78.5 54.1 78.9 54.2 70.2 52.5C67.8 52 67.8 51.8 70.7 51.8C72.6 51.8 74.1 51.6 73.6 51.4C73.1 51.2 74.6 51 76.5 51C81.8 51.1 85.2 55.4 83.2 59.3ZM98.7 65.2C97.7 65.3 96.8 65.2 96.8 65C96.8 64.8 97.3 64.7 98.7 64.9C99.7 64.9 99.7 65.1 98.7 65.2ZM102.1 26.5C103.1 26.7 103.6 26.9 103.1 27C102.6 27.1 101.6 27 101.2 26.7C100.2 26.4 101.2 26.3 102.1 26.5ZM103.6 63.7C102.6 63.8 101.7 63.8 101.2 63.5C100.7 63.3 101.2 63.1 102.7 63.3C103.6 63.4 104.1 63.6 103.6 63.7ZM116.2 29.6C118.1 30 118.1 30.3 116.2 30.3C114.3 30.3 112.3 30 111.8 29.5C110.4 28.6 111.8 28.6 116.2 29.6ZM115.7 40.6C114.2 40.5 112.8 40.1 112.8 39.6C112.8 39.1 111.3 38.7 109.4 38.6C107.5 38.6 107.9 38.5 110.9 38.4C114.8 38.3 115.8 38.4 117.2 39.4C118.1 40.2 117.2 40.7 115.7 40.6ZM118.6 37.5C117.1 37.7 114.7 37.8 113.7 37.7C111.3 37.5 116.1 37 119 37.1C120.6 37.1 120.1 37.3 118.6 37.5ZM117.7 36.8C112.4 36.8 109.9 36.3 114.8 36.1C118.7 35.9 119.7 35.9 120.1 36.3C120.1 36.6 119.1 36.8 117.7 36.8ZM131.7 40.6C136.6 41.1 137.5 41.4 133.2 41.2C132.2 41.2 130.3 40.9 128.8 40.6L125.9 40.1L131.7 40.6ZM135.1 45.6C130.7 45.4 124.9 43.4 127.3 42.8C128.8 42.3 129.2 42.3 132.6 43C134.5 43.4 134.5 43.7 132.1 43.7C130.2 43.8 129.2 43.9 130.6 43.9C134.1 44.1 138 45.7 135.1 45.6ZM136.1 41.6C133.7 41.7 130.8 41.7 129.3 41.6C127.8 41.5 129.8 41.5 133.7 41.5C137.5 41.4 138.5 41.5 136.1 41.6ZM169.1 41.6C169.6 41.8 159.9 42.3 159.4 42.1C158.9 42 157.9 42.1 156.5 42.3C154.1 42.7 154.1 42.7 153.6 42.3C153.1 42.1 156 41.8 160.9 41.7C165.7 41.6 169.1 41.5 169.1 41.6ZM159.9 38.8C160.9 38.9 161.4 39.1 160.9 39.3C160.4 39.4 159.4 39.3 159 39.1C158.4 38.8 158.9 38.7 159.9 38.8ZM154 41.3C155 41.4 155.5 41.6 154.5 41.7C153.5 41.8 152.6 41.7 152.6 41.5C152.1 41.2 152.6 41.1 154 41.3ZM144.3 45.3C145.3 44.2 145.8 44.2 151.1 45.8C153 46.5 153 46.7 150.6 46.6C147.7 46.4 147.2 46.4 147.2 46.7C147.7 46.9 149.1 47.1 151.1 47.1C153 47.2 152.6 47.2 150.1 47.2C144.8 47.1 143.9 46.7 144.3 45.3ZM154 48.3C152.5 48.3 152.1 48.7 152.5 49.2C153 49.7 152.5 50.3 150.6 50.5C148.2 50.9 147.7 50.8 145.7 50.1C144.7 49.6 142.8 49 141.8 48.7C140.8 48.4 141.3 48.1 143.3 48.1C144.8 48.1 146.2 47.9 145.7 47.7C145.7 47.4 145.7 47.3 147.6 47.6C148.6 47.8 151 47.9 152.9 47.9C154.8 47.9 156.3 48 156.3 48.2C156.9 48.3 156 48.4 154 48.3ZM160.3 44C162.7 44.1 164.2 44.2 163.2 44.3C162.2 44.4 160.3 44.3 158.8 44.1C156.5 43.9 156.5 43.9 160.3 44ZM163.3 52C158.9 52.2 157.5 51.9 157.5 51.2C157.5 50.2 162.8 50 164.8 51C165.7 51.5 164.7 52 163.3 52ZM162.8 42.7C161.3 42.6 161.8 42.4 163.8 42.4C165.7 42.4 167.7 42.5 167.7 42.7C168.2 42.9 167.7 43 166.7 43C165.7 42.9 164.2 42.8 162.8 42.7ZM169.6 56.6C168.1 56.7 167.2 56.5 167.2 56.4C167.2 56.2 167.7 56.1 169.1 56.3C170 56.4 170.5 56.5 169.6 56.6ZM188.5 35.5C189.5 35.6 190 35.8 189.5 36C189 36.1 188 36 187.6 35.8C186.5 35.5 187.5 35.4 188.5 35.5ZM179.7 39.7C181.6 39.5 182.6 39.6 183.1 40.1C183.6 40.5 182.6 40.8 180.7 40.7C176.8 40.6 176.4 40.1 179.7 39.7ZM174.9 54.9C175.9 54.6 177.3 54.9 179.3 55.9C180.8 56.7 181.7 57.3 180.8 57.3C177.3 57.1 173 55.3 174.9 54.9ZM179.7 76.8C180.7 76.9 181.2 77.1 180.2 77.2C178.7 77.3 177.8 77.1 177.8 77C177.8 76.7 178.3 76.6 179.7 76.8ZM180.7 50C180.2 49.8 180.7 49.6 181.7 49.8C182.7 49.9 183.2 50.1 182.7 50.3C182.2 50.4 181.2 50.2 180.7 50ZM180.2 52.5C180.7 52.7 179.7 52.9 177.8 53C173.9 53.2 173.9 53.1 177.3 52.6C179.3 52.2 179.7 52.2 180.2 52.5ZM175.9 48.1C176.9 48.2 177.4 48.4 176.4 48.5C175.4 48.6 174.5 48.5 174.5 48.3C173.4 48 174.4 48 175.9 48.1ZM175.4 77.8C177.3 77.6 178.3 77.7 179.3 78.1C179.8 78.4 178.8 78.7 176.9 78.7C172.5 78.7 171.5 78.2 175.4 77.8ZM172.5 80C171.5 79.5 172 79.2 174.4 79.2C178.8 79.3 179.7 80 176.3 80.5C174.9 80.8 173.9 80.7 172.5 80ZM180.7 83C179.2 83.2 177.8 83.2 177.8 83.1C177.8 83 178.8 82.8 180.2 82.6C181.7 82.4 183.1 82.4 183.1 82.5C183.1 82.6 182.2 82.8 180.7 83ZM188.5 61C182.2 60 176.9 58 180.3 58C181.8 58 183.7 58.3 184.2 58.6C184.7 59 187.1 59.7 189.1 60.4C191.9 61.4 191.9 61.5 188.5 61ZM193.8 45.9C193.8 45.7 194.3 45.6 195.7 45.8C196.7 45.9 197.2 46.1 196.2 46.2C194.8 46.2 193.8 46.1 193.8 45.9ZM198.7 55.8C197.7 55.9 196.8 55.8 196.8 55.6C196.3 55.4 196.8 55.4 198.3 55.5C199.2 55.6 199.6 55.8 198.7 55.8ZM207.4 48.9C203.5 48.7 200.1 47.8 203.5 47.8C205.4 47.8 207.4 48 207.9 48.4C208.4 48.8 208.4 48.9 207.4 48.9ZM207.4 45.9C205.5 45.8 203.5 45.5 203.5 45.4C203 45.2 204 45.2 206.4 45.5C211.3 46 211.8 46.3 207.4 45.9ZM232.1 45.4C233.1 45.5 233.6 45.7 233.1 45.9C232.6 46 231.6 45.9 231.2 45.7C230.7 45.4 231.2 45.2 232.1 45.4ZM226.3 43.7C227.3 43.8 227.8 44 226.8 44.1C225.8 44.2 224.9 44.1 224.9 43.9C223.9 43.6 224.9 43.6 226.3 43.7ZM223.4 46C225.8 46 227.8 46.1 227.8 46.2C227.8 46.3 229.7 46.3 231.7 46.3C234.1 46.2 234.6 46.4 233.6 46.8C231.7 47.7 226.3 48 226.8 47.2C227.3 46.8 225.8 46.4 223.4 46.3C220.5 46.1 220.5 46 223.4 46ZM214.7 67.1C213.7 67.2 212.8 67.1 212.3 66.9C211.8 66.7 212.3 66.5 213.8 66.7C214.7 66.8 215.2 67 214.7 67.1ZM216.1 50.5C220.5 50.1 220.5 50.1 221.9 50.8C222.9 51.3 221.9 51.5 219 51.5C212.7 51.4 211.3 50.9 216.1 50.5ZM222.9 84.6C221.9 84.7 221 84.6 221 84.4C220.5 84.2 221 84.2 222.5 84.3C223.4 84.4 223.9 84.6 222.9 84.6ZM223.4 82.6C222.9 82.7 221.9 82.6 221.5 82.4C220.5 82.1 221.5 82 222.5 82.2C223.4 82.3 223.9 82.5 223.4 82.6ZM221 52C219.1 52 217.6 52 217.6 51.9C217.6 51.8 219.1 51.8 220.5 51.7C222 51.6 223.4 51.6 223.9 51.8C223.9 51.9 222.9 52 221 52ZM222.9 49.4C221 49.4 219.5 49.2 219 49C218.5 48.7 219.5 48.6 223.9 48.8C229.2 49 228.7 49.4 222.9 49.4ZM228.7 50.9C224.3 50.9 223.4 50.2 226.8 49.8C228.7 49.6 229.7 49.7 230.7 50.2C231.7 50.5 230.7 50.9 228.7 50.9ZM233.6 55.9C232.1 55.9 230.7 55.8 231.2 55.8C231.2 55.7 231.7 55.3 231.7 54.8C231.2 54.3 232.7 54.1 234.1 54.2C238 54.5 237.5 55.9 233.6 55.9ZM242.8 87.6C240.9 87.6 239.4 87.5 238.9 87.4C238.9 87.3 239.9 87.2 241.8 87.2C243.7 87.2 245.2 87.3 245.7 87.4C245.7 87.5 244.8 87.6 242.8 87.6ZM258.3 86.7C256.4 86.8 255.4 86.8 255.4 86.8C255.4 86.8 256.4 86.5 257.3 86.3C259.2 85.8 259.2 85.8 260.2 86.2C260.8 86.3 259.8 86.6 258.3 86.7ZM282.6 56.8C283.1 57 283.6 57.2 283.1 57.4C282.6 57.5 281.6 57.4 281.2 57.1C280.6 56.8 281.1 56.7 282.6 56.8ZM280.2 51.5C281.2 51.6 281.2 51.8 280.2 51.9C279.2 52 278.3 51.9 278.3 51.7C278.2 51.4 278.7 51.4 280.2 51.5ZM279.2 86.8C276.8 87.2 276.8 87.2 275.3 86.6C274.3 86.2 275.3 86 277.7 86.1C280.2 86.3 280.6 86.5 279.2 86.8ZM283.6 65.8C283.1 65.9 282.1 65.8 281.7 65.5C280.7 65.2 281.7 65.1 282.7 65.3C283.6 65.4 284 65.7 283.6 65.8ZM282.1 64C279.2 64.2 278.2 64.1 277.7 63.6C276.7 63 277.2 63 281.1 63.4C284.5 63.6 284.5 63.8 282.1 64ZM364.1 73.1C365.6 73.3 368 73.6 369.9 73.7C373.8 73.9 375.2 74.7 371.4 74.7C369.9 74.7 367 74.5 365.6 74.2C364.1 73.9 362.2 73.4 362.2 73.1L361.7 72.6L364.1 73.1ZM357.8 69.2C357.8 69.3 356.3 69.3 354.4 69.1C352.5 69 350.5 68.7 350.5 68.7C350.5 68.6 352 68.6 353.9 68.8C355.8 68.9 357.8 69.2 357.8 69.2ZM354.9 77.9C355.9 78 355.9 78.2 354.9 78.3C353.9 78.4 353 78.3 353 78.1C352.9 77.8 353.4 77.8 354.9 77.9ZM348.6 55.2C350.5 55.4 352.5 55.8 353 56L353.5 56.5L350 56.1C348.1 55.9 346.1 55.5 345.6 55.3C344.7 54.9 344.7 54.9 348.6 55.2ZM351 59.6C350 59.7 349.1 59.6 349.1 59.4C348.6 59.2 349.1 59.1 350.6 59.3C351.5 59.4 352 59.5 351 59.6ZM310.7 47.6C311.7 47.7 312.2 47.9 311.2 48C310.2 48.1 309.3 48 309.3 47.8C308.8 47.5 309.3 47.5 310.7 47.6ZM303 56.7C301.1 56.9 300.1 56.8 299.1 56.2C298.1 55.7 299.1 55.4 301 55.5C305.4 55.6 306.8 56.3 303 56.7ZM312.7 66.6C311.2 66.6 309.3 66.5 308.8 66.2C308.3 66 309.8 65.9 311.7 65.9C313.6 66 315.6 66.1 315.6 66.3C316.1 66.4 314.6 66.6 312.7 66.6ZM313.1 51.2C314.1 51.3 314.6 51.5 313.6 51.6C312.6 51.7 311.7 51.6 311.7 51.4C311.2 51.1 312.2 51 313.1 51.2ZM316.5 49.6C315 49.5 312.6 49.7 310.2 49.8C305.8 50.2 305.8 50.1 307.3 49.1L308.3 48.5L313.6 49C316.5 49.5 317.5 49.7 316.5 49.6ZM319.9 52.4C321.4 51.9 321.4 51.9 322.3 52.3C322.8 52.5 322.3 52.9 320.8 53.1C317.5 53.4 317.5 53.2 319.9 52.4ZM333 78.5C331.1 78.4 329.1 78.1 329.1 78.1C329.1 78 330.6 78 332.5 78.2C334.4 78.3 336.4 78.6 336.4 78.6C336.4 78.7 335 78.6 333 78.5ZM338.9 73.7C336 73.4 333.1 72.9 332.6 72.6C332.1 72.2 330.7 72.1 328.2 72.2C325.8 72.3 324.8 72.1 325.3 71.6C325.8 71.2 324.8 70.9 322.9 70.9C319 71.1 316.6 68.9 320 67.6C321 67.2 322.4 67.2 325.3 67.3C327.7 67.4 330.2 68 331.1 69C332.1 69.8 334 70.5 336 70.6C337.9 70.7 340.9 71.5 341.8 72.5C344.2 74.1 343.7 74.2 338.9 73.7ZM342.3 57.9C341.8 57.7 343.3 57.6 345.2 57.6C347.6 57.6 349.1 57.7 349.1 57.8C349.1 57.9 348.1 58 346.2 58.1C344.2 58.1 342.7 58.1 342.3 57.9ZM345.7 65.6C344.7 65.3 345.2 65.3 348.6 65.5C350.5 65.6 352.5 65.9 353 66.1C353.5 66.4 353 66.4 350.1 66.2C348.1 66.1 346.1 65.8 345.7 65.6ZM353.4 80.6C351.5 80.6 350 80.5 349.5 80.4C349.5 80.3 350.5 80.2 352.4 80.2C354.3 80.2 355.8 80.3 356.3 80.4C356.3 80.5 355.4 80.6 353.4 80.6ZM354.4 79C352.5 79.1 351 79 350.5 78.8C350 78.6 351.5 78.5 353.4 78.5C355.3 78.5 356.8 78.6 357.3 78.7C357.3 78.8 355.8 79 354.4 79ZM355.8 75.2C354.3 75 354.8 74.8 356.3 74.8C362.1 74.8 364.5 75.3 362.6 75.8C361.1 76.2 360.2 76.2 359.7 76C359.2 75.8 357.3 75.4 355.8 75.2ZM360.7 81C360.7 80.9 361.7 80.8 363.6 80.8C365.5 80.8 367 80.9 367.5 81C367.5 81.1 366.5 81.2 364.6 81.2C362.6 81.1 361.2 81.1 360.7 81ZM368.5 82C368 82.3 367 82.2 365.1 81.8C363.2 81.5 363.6 81.3 366.1 81.4C368 81.6 368.9 81.8 368.5 82ZM369.4 76.8C366 76.8 367.5 76.5 371.8 76.3C375.2 76.1 375.7 76 372.8 75.8C366.5 75.5 367 74.9 372.8 75C382.5 75.2 379.6 76.7 369.4 76.8ZM381.1 71.5C380.1 71.5 378.2 71.2 376.7 70.9C374.3 70.5 374.8 70.4 377.2 70.6C380.6 70.8 384.5 71.6 381.1 71.5ZM419.9 83C416 83.4 416 83.4 415.1 82.9C414.6 82.6 415.6 82.4 417.5 82.4C423.3 82.3 424.2 82.6 419.9 83ZM423.8 73.9C423.3 73.7 421.9 73.5 420.9 73.3C419.9 73.1 420.4 72.7 422.8 72.3C426.7 71.8 426.7 71.8 427.2 72.2C428.1 72.8 425.2 74.3 423.8 73.9ZM476.6 79.8C477.6 79.9 478.1 80.1 477.1 80.2C476.1 80.3 475.2 80.2 474.7 80C474.7 79.7 475.2 79.6 476.6 79.8ZM471.8 82.6C473.7 82.5 475.7 82.6 475.7 82.7C476.2 82.9 474.7 83 472.8 83.1C470.9 83.2 469.4 83.1 468.9 83C468.4 82.8 469.8 82.6 471.8 82.6ZM456.7 78C458.6 77.9 461.6 78.1 463 78.4C467.4 79.2 467.9 79.7 463.5 79.7C461.1 79.7 460.1 79.5 460.1 79.2C460.6 78.9 459.6 78.7 457.7 78.7C453.8 78.6 453.3 78.1 456.7 78ZM464 81.2C461.6 81.6 461.1 81.5 459.6 80.8C458.1 80.1 458.6 80 462.5 80.4C465.5 80.7 466 80.9 464 81.2ZM450.9 78.6C451.9 78.7 452.4 78.9 451.4 79C450.4 79.1 449.5 79 449.5 78.8C449 78.5 449.5 78.4 450.9 78.6ZM439.8 76C440.8 76.1 441.3 76.3 440.3 76.4C439.3 76.5 438.4 76.4 438.4 76.2C437.8 75.9 438.3 75.9 439.8 76ZM438.8 76.6C442.7 76.6 442.7 76.7 439.8 77.3C437.9 77.7 437.4 77.6 436.4 77.2C435.9 76.9 436.8 76.6 438.8 76.6ZM434.9 83.2C435.9 83.3 436.4 83.5 435.4 83.6C433.9 83.7 433 83.5 433 83.4C433 83.1 433.5 83 434.9 83.2ZM435.4 85C430.5 84.5 429.6 84 433.5 83.9C435.4 83.8 437.4 84.1 437.9 84.6C438.8 85.2 438.3 85.2 435.4 85ZM447.5 82.9C447.5 83.1 446.5 82.9 445.6 82.5C445.1 82.1 445.6 82 446.6 82.2C447.5 82.4 448.5 82.8 447.5 82.9ZM453.3 81.4C451.4 81.3 449.4 81.2 449.9 81.3C449.9 81.4 447 81.3 442.6 81.1C433.4 80.6 431.4 80.1 439.7 80.4C442.6 80.5 445 80.5 445 80.5C445 80.4 446.5 80.4 448.4 80.6C451.8 80.8 452.3 80.8 451.8 80.5C451.3 80.3 449.9 80.2 447.9 80.2C446 80.2 444.5 80 444 79.8C443.5 79.6 444.5 79.5 445.9 79.6C447.8 79.8 448.3 79.8 450.8 79.6C452.3 79.4 454.2 79.8 455.2 80.5C456.3 81.3 455.8 81.6 453.3 81.4ZM478.6 86C477.1 86 472.8 85.7 468.9 85.3C460.7 84.5 453.4 82.5 458.2 82.5C460.1 82.5 462.1 82.7 462.6 82.9C464.5 83.8 471.8 84.6 470.8 83.8C469.3 83 475.2 83.4 477.6 84.3C479.5 84.9 478.6 85.2 476.1 85.3C472.7 85.3 472.7 85.4 476.6 85.5C482 85.7 482.9 86 478.6 86ZM505.2 80.1C503.7 80.2 501.8 80 501.3 79.9C500.3 79.5 502.3 79.4 505.7 79.8C507.2 79.9 507.2 80.1 505.2 80.1ZM609.5 85.8C610 85.9 610.5 86.1 610 86.3C609.5 86.4 608.5 86.3 608.1 86.1C607.6 85.8 608.1 85.7 609.5 85.8ZM601.3 69C602.3 69.1 602.8 69.3 601.8 69.4C600.8 69.5 599.9 69.4 599.9 69.2C599.4 68.9 599.8 68.9 601.3 69ZM601.8 85.7C600.8 85.8 599.9 85.7 599.9 85.5C599.4 85.3 600.4 85.3 601.4 85.4C602.3 85.5 602.8 85.6 601.8 85.7ZM595 83.5C596 83.6 596.5 83.8 596 84C595.5 84.1 594.5 84 594.1 83.8C593 83.5 593.5 83.4 595 83.5ZM594 84.3C595.9 84.3 597.4 84.4 597.9 84.5C597.9 84.6 596.9 84.7 595 84.8C593.1 84.9 591.6 84.8 591.1 84.6C590.6 84.4 592.1 84.3 594 84.3ZM590.1 85.9C592 86 594 86.1 594 86.2C594 86.3 592.5 86.3 590.6 86.3C588.7 86.2 586.7 86.1 586.7 86C586.3 85.9 587.7 85.8 590.1 85.9ZM563.9 81.1C567.3 81.1 568.3 81.1 565.8 81.2C563.4 81.3 560.5 81.3 559.5 81.2C558.1 81.1 560.1 81.1 563.9 81.1ZM558.1 81.4C561.5 81.4 565.9 81.8 566.3 82.3C567.3 82.5 565.3 82.5 561.4 82.2C554.7 81.7 554.2 81.5 558.1 81.4ZM557.2 82.7C557.7 83 559.6 83.1 563 83C566.4 82.9 567.9 83 568.3 83.2C569.3 83.9 564.9 83.9 557.6 83.2C553.7 82.8 550.3 82.3 549.8 82.1C549.3 81.7 549.3 81.7 552.7 82C554.7 82.1 556.7 82.5 557.2 82.7ZM547 60.5C547.5 60.7 548.9 60.9 550.4 61.1C551.9 61.3 550.9 61.6 548.5 61.9C544.1 62.3 544.1 62.3 543.6 61.9C543.1 61.4 546 60.2 547 60.5ZM517.9 81.4C521.8 81.4 524.7 81.5 524.7 81.5C524.7 81.5 521.8 81.6 517.9 81.6C514.5 81.6 511.6 81.5 511.1 81.5C511.1 81.4 514 81.4 517.9 81.4ZM570.3 87.7C568.8 87.6 565 87.5 562.5 87.5C559.6 87.5 553.8 87.3 549.4 87.1C545 86.9 540.2 86.7 539.2 86.8C538.2 86.9 537.3 86.8 536.8 86.7C536.8 86.6 534.4 86.5 532 86.6C524.2 86.8 518.9 86.5 516 85.7C514.5 85.3 512.6 84.9 511.1 84.8C510.1 84.7 512.6 84.6 516.4 84.6C520.3 84.5 524.2 84.4 524.6 84.3C525.1 84.1 523.6 84.1 520.2 84.2C517.3 84.3 514.9 84.3 514.9 84.1C514.9 84 516.8 83.9 519.8 83.9C525.6 83.9 526.1 83.8 520.3 83.3C516.9 83 516.9 82.9 520.3 82.8C526.6 82.5 530.5 82.7 529 83.2C528 83.5 529 83.7 531.4 83.6C533.3 83.6 535.3 83.7 535.8 83.9C536.3 84.1 535.3 84.2 533.9 84.2C532.4 84.2 532 84.7 533.4 85.3C534.4 85.9 536.3 86.4 537.8 86.3C539.3 86.2 539.7 86.1 539.7 85.9C539.2 85.8 541.6 85.6 544.6 85.6C548 85.6 549.5 85.7 548.5 85.9C547.5 86.1 548.5 86.4 550.9 86.6C552.8 86.8 554.8 86.9 554.8 86.8C554.8 86.7 556.3 86.7 558.7 86.9C562.1 87.1 562.6 87.1 562.1 86.8C561.6 86.6 560.2 86.5 558.2 86.5C556.3 86.5 554.3 86.2 553.8 85.7C552.8 85 552.8 84.9 556.7 85.4C558.6 85.7 562.5 86 564.5 86.1C566.9 86.2 569.8 86.7 571.8 87.1C571.7 87.5 571.7 87.8 570.3 87.7ZM572.2 81.4C574.1 81.4 576.6 81.5 577.5 81.8C578.5 82 579 82.2 578.5 82.2C578 82.2 575.1 82 573.2 81.8C570.7 81.6 570.3 81.4 572.2 81.4ZM574.1 84.6C573.1 83.9 573.6 83.5 576 83.5C577.5 83.5 578.4 83.6 577.5 83.7C576.5 83.8 578 83.9 580.4 83.9C583.3 83.9 585.3 84.1 585.3 84.4C585.8 85.1 582.9 85.7 579 85.8C577 85.7 575.1 85.2 574.1 84.6ZM586.7 87C580.9 86.9 579.4 86.8 584.3 86.8C586.2 86.8 588.7 86.9 589.6 87C591.1 87 589.7 87.1 586.7 87ZM613.4 89C611.5 89.1 610 89.4 611 89.8C611.5 90.6 604.7 90.4 600.8 89.4C599.3 89 596.4 88.6 595 88.5C589.7 88.2 586.3 87.7 589.7 87.7C591.2 87.7 594.1 87.8 595.5 88.1C599.4 88.6 604.2 88.5 601.3 88C599.8 87.7 600.3 87.5 602.8 87.5C604.7 87.5 606.7 87.7 607.2 87.9C607.7 88.1 610.1 88.4 612.5 88.7C615.8 88.8 615.8 89 613.4 89ZM626 95.9C625 96 624.1 95.9 624.1 95.7C623.1 95.5 624.1 95.5 625.6 95.6C626.5 95.7 627 95.8 626 95.9ZM626.5 91.7C624.6 91.8 622.6 91.4 621.6 90.8C620.6 90.1 621.1 89.8 623.5 89.8C625.4 89.8 627.9 90.2 628.4 90.7C629.4 91.2 628.5 91.6 626.5 91.7ZM641.6 84.1C643.5 84.2 645.5 84 646 83.9C646.5 83.7 647.5 83.8 648.4 84.1C648.4 84.4 647.4 84.6 645.5 84.6C643.6 84.6 643.6 84.9 645 85.2C647.4 85.7 646.9 85.7 644 85.3C638.6 84.7 637.2 84 641.6 84.1ZM648.4 88.8C647.4 90 646.5 90.3 642.6 90.2C639.7 90.1 638.2 90 639.2 89.9C639.7 89.8 639.2 89.6 637.3 89.5C632.9 89.4 630.5 87.8 633.9 87.3C635.8 87 636.3 87 637.8 87.5C638.8 87.8 639.3 88.3 639.7 88.6C639.7 88.9 641.6 89.1 644.1 89.1C647 89.1 647 88.7 643.6 87.7C640.2 86.6 640.2 86.3 643.6 86.3C647.9 86.3 649.8 86.9 648.4 88.8ZM649.8 81.4C648.3 81.5 647.4 81.4 647.4 81.2C646.9 81 647.4 80.8 648.9 81C649.8 81.1 650.3 81.3 649.8 81.4ZM657.1 85.7C655.6 85.7 653.7 85.4 652.7 84.9C652.2 84.5 652.7 84.2 653.7 84.2C657.6 84.4 660.5 85.6 657.1 85.7ZM658.1 84C656.2 84 654.7 83.9 654.2 83.8C654.2 83.7 655.7 83.6 657.6 83.7C659.5 83.8 661 83.8 661.5 83.9C661.4 83.9 660 83.9 658.1 84ZM679.9 82.8C675.5 82.7 675.5 82.7 678.9 82.3C681.3 82.1 682.3 82.1 682.8 82.4C683.3 82.7 681.8 82.9 679.9 82.8ZM682.8 81.1C682.3 81.2 681.3 81.1 680.9 80.9C679.9 80.6 680.9 80.5 681.9 80.7C682.8 80.7 683.3 80.9 682.8 81.1ZM709.5 88.6C711.9 88.6 713.4 88.7 713.4 88.8C713.4 88.9 712.4 89 710.5 89C708.6 89 707.1 88.9 706.6 88.8C706.6 88.7 707.5 88.6 709.5 88.6ZM725 86.2C722.1 86.2 719.7 86.1 719.2 85.9C718.7 85.6 726 85.6 728.4 85.9C729.4 86.1 727.9 86.2 725 86.2ZM743.9 88.6C741.5 88.8 741.5 88.8 742 88.4C743 88 741.5 87.9 737.6 87.8C732.3 87.7 731.3 87.5 732.7 86.6C733.2 86.3 735.1 86.2 738.5 86.3C744.4 86.4 748.3 88.1 743.9 88.6ZM757.5 89.1C759 89.4 759.4 89.8 759 90C758.5 90.2 757.5 90 756.6 89.5C755.6 89 756 88.8 757.5 89.1ZM760.4 91.1C759.4 91.2 758.5 91.1 758.5 90.9C758 90.7 758.5 90.7 760 90.8C760.9 90.8 761.4 91 760.4 91.1ZM769.6 87.5C769.1 87.3 769.6 87.1 771.1 87.3C772.6 87.4 772.6 87.6 772.1 87.8C771.1 87.9 770.1 87.8 769.6 87.5ZM773.5 92.9C773 93.1 772 92.9 771.6 92.6C771.1 92.2 771.6 92.1 772.6 92.3C773.5 92.4 774 92.7 773.5 92.9ZM789.5 90.2C788.5 90.3 787.6 90.2 787.6 90C787.6 89.8 788.1 89.7 789.5 89.9C790.5 89.9 790.5 90.1 789.5 90.2ZM791.5 89.2C789.1 89.4 786.2 88.5 785.7 87.7C785.7 87.3 786.7 86.9 788.6 86.9C791.9 86.8 794.4 89 791.5 89.2ZM791.9 84.9C786.1 84.7 785.6 83.5 790.9 83.5C794.3 83.5 795.8 83.7 795.8 84.1C795.8 85 795.8 85 791.9 84.9ZM797.3 86.3C795.4 86.3 793.9 86.1 793.4 85.8C792.9 85.3 793.4 85.3 798.3 85.6C803.6 85.9 803.6 86.2 797.3 86.3ZM859.9 93.2C860.4 93.3 860.9 93.5 859.9 93.6C858.9 93.7 858 93.6 858 93.4C857.9 93.1 858.4 93.1 859.9 93.2ZM850.6 92.1C851.6 92.2 852.1 92.4 851.6 92.6C850.6 92.7 849.7 92.7 849.2 92.4C848.7 92.1 849.2 92 850.6 92.1ZM851.6 93.9C849.7 93.8 847.7 93.7 847.7 93.5C847.2 93.3 848.7 93.3 850.6 93.3C852.5 93.4 854.5 93.5 854.5 93.7C854.5 93.9 853.5 94 851.6 93.9ZM859.4 96.1C856.5 96.5 856 96.4 855 95.7C853.5 95 854 94.9 857.9 95.3C860.8 95.6 861.3 95.8 859.4 96.1ZM872 94.8C871 94.9 870.1 94.7 869.6 94.6C869.6 94.4 870.1 94.3 871.5 94.5C872.5 94.6 873 94.8 872 94.8ZM884.1 99C877.8 97.9 877.8 97.9 881.7 96.5C883.2 95.9 884.6 94.8 884.1 94.2C883.6 92.6 884.6 92.1 889.4 92.1C891.8 92.1 892.8 92.3 891.8 92.8C890.3 93.6 890.3 94.4 893.3 97.4C895.3 99.7 891.9 100.3 884.1 99ZM910.8 101.6C907.4 101.4 905.9 100.3 907.4 99.1C907.9 98.5 908.9 98.7 910.8 100.1C912.7 100.9 912.2 101.7 910.8 101.6ZM924.9 101.3L923.4 102.1L922.4 101.3C920 99.8 921.9 96.5 924.8 96.9C927.8 97.3 927.8 99.6 924.9 101.3ZM954 96.8C955 96.9 955.5 97.1 955 97.3C953.5 97.4 953.1 97.4 952.6 97.1C952 96.8 952.5 96.7 954 96.8ZM944.7 95.4C945.7 95.5 945.7 95.7 944.7 95.8C943.7 95.9 942.8 95.8 942.8 95.6C942.8 95.3 943.3 95.2 944.7 95.4ZM952 102.8C948.1 103.1 948.1 103.2 952.5 103.5C958.3 104 955.9 104.3 948.1 104C942.3 103.8 936.5 101.5 942.3 101.7C947.6 101.8 949.6 101.2 947.6 99.8C946.1 98.9 947.1 98.4 950 98.2C953.4 98 953.9 98 952.9 98.3C948.5 99.1 948.5 99.6 951.9 99.6C958.8 99.5 958.8 102.4 952 102.8ZM976.8 98.6C976.3 98.8 975.3 98.6 974.9 98.3C974.4 97.9 974.9 97.8 975.9 98C976.9 98.2 977.2 98.4 976.8 98.6ZM1016.5 93.3C1018.4 93.2 1020.4 93.3 1020.4 93.5C1020.9 93.7 1019.4 93.7 1017.5 93.7C1015.6 93.7 1014.1 93.6 1013.6 93.5C1013.6 93.5 1015.1 93.4 1016.5 93.3ZM1003 102C1002 102.1 1001.1 102 1001.1 101.8C1000.6 101.6 1001.1 101.6 1002.6 101.7C1003.4 101.8 1003.9 102 1003 102ZM1001.5 100.3C999.6 100.2 997.6 100 997.1 99.8C996.6 99.5 997.1 99.4 1000 99.7C1005.4 100 1005.9 100.4 1001.5 100.3ZM1014.6 96.2C1016.5 96.2 1018.5 96.4 1019 96.7C1019.5 97 1018.5 97.1 1016.1 97.1C1014.2 97 1012.2 96.8 1011.7 96.6C1011.2 96.4 1012.7 96.2 1014.6 96.2ZM1016.1 100.8C1012.7 100.6 1010.3 99.4 1013.7 99.4C1015.6 99.4 1017.1 99.7 1017.6 100.1C1018 100.5 1017.5 100.8 1016.1 100.8ZM1021.9 98.8C1020.4 98.8 1019 98.5 1018 98C1017.5 97.6 1018 97.3 1019 97.3C1022.4 97.5 1024.8 98.8 1021.9 98.8ZM1133.4 94.6C1134.4 94.7 1134.9 94.9 1134.4 95.1C1133.9 95.2 1132.9 95.1 1132.5 94.9C1131.5 94.6 1132.5 94.5 1133.4 94.6ZM1141.2 103.6L1144.6 104.2L1136.8 103.6C1132.4 103.3 1129 102.9 1129 102.9C1129 102.8 1130 102.5 1130.9 102.1C1131.9 101.7 1133.3 101 1134.3 100.4C1135.8 99.4 1135.8 99.4 1136.2 100.7C1135.9 102.2 1136.4 102.7 1141.2 103.6ZM1140.7 102.5C1140.7 102.4 1141.7 102.3 1143.6 102.3C1145.5 102.3 1147 102.4 1147.5 102.5C1148 102.6 1146.5 102.7 1144.6 102.7C1142.7 102.7 1141.2 102.6 1140.7 102.5ZM1118.4 93.2C1122.3 93.2 1128.6 94 1125.7 94.2C1124.7 94.3 1122.3 94.3 1120.4 94.2C1116 94.1 1114 93.2 1118.4 93.2ZM1128.6 95.1C1128.6 95.2 1127.2 95.2 1125.2 95.2C1123.3 95.1 1121.3 95 1121.3 94.9C1121.3 94.8 1122.7 94.8 1124.7 94.8C1126.7 94.9 1128.6 95 1128.6 95.1ZM1117.4 96.6C1115.5 96.6 1114 96.5 1113.5 96.2C1113 96 1113.5 95.8 1114 95.8C1114.5 95.8 1116.4 96 1117.9 96.2C1119.4 96.4 1118.9 96.6 1117.4 96.6ZM1121.8 97.3C1123.7 97.3 1125.2 97.4 1125.7 97.6C1126.2 97.8 1124.7 97.8 1122.8 97.8C1120.9 97.7 1118.9 97.6 1118.9 97.5C1118.9 97.4 1120.4 97.3 1121.8 97.3ZM1121.8 99.1C1123.3 98.8 1124.7 99 1126.2 99.7C1127.2 100.3 1126.7 100.6 1124.3 100.6C1119.9 100.5 1118.4 99.7 1121.8 99.1ZM1138.3 109.5C1137.3 109.6 1136.4 109.5 1135.9 109.3C1135.4 109.1 1135.9 108.9 1137.3 109.1C1138.3 109.2 1138.8 109.4 1138.3 109.5ZM1137.8 106.8C1135.9 106.4 1134.4 105.9 1134.9 105.7C1135.4 105.5 1133.9 105.1 1131.5 104.9C1128.1 104.6 1128.1 104.7 1130.5 105.2L1133.4 105.8L1127.1 105.3C1123.7 105 1120.8 104.5 1120.3 104.2C1119.8 103.7 1120.3 103.7 1122.2 104.1C1124.6 104.5 1124.6 104.5 1126.6 104.2C1128.1 103.9 1129.5 104 1134.4 104.6C1140.2 105.4 1141.2 105.7 1141.7 106.8V107.5L1137.8 106.8ZM1149 113.4C1149.5 113.6 1148 113.7 1146.1 113.7C1144.2 113.6 1142.2 113.4 1141.7 113.2C1141.2 113 1142.7 112.9 1144.6 112.9C1146.5 112.9 1148.5 113.2 1149 113.4ZM1139.8 98.6C1134.5 98.4 1130.6 98.2 1130.1 97.9L1129.1 97.4L1138.3 97.8C1143.2 98 1147.5 98.3 1148 98.5C1148.5 98.9 1148 98.9 1139.8 98.6ZM1149.9 96.4C1148.4 97.8 1148 98 1142.6 97.6C1138.2 97.3 1136.8 96.4 1140.2 95.7C1141.7 95.4 1143.1 95 1144.1 94.8C1147 94.1 1150.9 95.2 1149.9 96.4ZM1155.3 102.3C1154.8 102.8 1154.3 103.3 1153.9 103.3C1151.5 103.5 1151.5 102.1 1153.4 101.7C1154.8 101.5 1155.8 101.7 1155.3 102.3ZM1157.7 98.5C1156.2 98.7 1155.3 98.6 1154.8 98.2C1153.8 96.9 1154.8 96.1 1157.7 95.9C1161.1 95.7 1161.1 98 1157.7 98.5ZM1163 91.2C1161.1 91.1 1159.1 90.9 1158.6 90.7C1158.1 90.5 1159.6 90.4 1161.5 90.4C1163.4 90.5 1165.4 90.7 1165.9 90.9C1166.4 91.1 1165 91.3 1163 91.2ZM1182.9 91C1184.8 91.1 1186.8 91.4 1187.3 91.5C1187.8 91.7 1187.3 91.7 1183.9 91.5C1182 91.4 1180 91.1 1179.5 91C1179 90.8 1179.5 90.8 1182.9 91ZM1178.1 93.4C1180.5 93.2 1183 92.9 1183 92.7C1183.5 92.5 1184.9 92.8 1185.9 93.4C1188.8 94.7 1185.9 95.3 1179.1 94.7C1173.2 94.1 1172.7 93.8 1178.1 93.4ZM1184.9 100.2C1176.2 99.7 1171.3 97.6 1178.6 97.6C1181.5 97.6 1182 97.4 1180.5 97.1C1179 96.9 1179.5 96.6 1181 96.6C1182.5 96.6 1185.9 97.5 1187.8 98.6C1191.7 100.7 1191.7 100.7 1184.9 100.2ZM1199.4 107.8C1198.4 107.8 1197 107.7 1195.5 107.5C1194.1 107.4 1194.5 107.2 1196.5 107.2C1198.4 107.2 1199.9 107.3 1200.4 107.5C1200.9 107.7 1200.4 107.8 1199.4 107.8ZM1198.5 102.6C1201.4 102.7 1202.4 102.6 1200.9 102.1C1199 101.5 1201.4 101.1 1204.8 101.2C1205.8 101.2 1205.8 101.8 1205.8 102.4C1205.3 103 1204.8 103.4 1203.9 103.2C1202.5 102.7 1196.1 102.9 1197.1 103.4C1201.5 106.3 1201 107.3 1195.2 107C1191.3 106.8 1188.4 106.1 1191.3 106C1193.2 105.9 1193.2 105.4 1191.8 104.9C1188.3 103.7 1192.1 102.3 1198.5 102.6ZM1230.5 89.5C1231.5 89.7 1232 89.9 1231.5 90C1231 90.1 1230.1 90 1229.6 89.7C1228.5 89.5 1229 89.3 1230.5 89.5ZM1214.5 94C1213.1 94 1211.1 93.8 1211.1 93.6C1210.6 93.4 1209.2 93.2 1207.2 93.2C1205.3 93.2 1202.8 92.6 1201.9 91.7L1200 90.2L1205.8 91.1C1208.7 91.6 1211.6 91.9 1211.6 91.8C1211.6 91.7 1213.5 91.8 1215.5 92C1219.8 92.6 1219.3 94 1214.5 94ZM1237.7 96.5C1230.4 96.1 1230.4 95.8 1236.7 96C1239.6 96.1 1242 96.3 1242.5 96.5C1243.6 96.8 1243.1 96.8 1237.7 96.5ZM1241.6 95.5C1239.7 95.8 1239.2 95.8 1238.7 95.6C1238.2 95.4 1234.8 95.3 1230.9 95.2C1227 95.2 1224.1 95.1 1224.1 95C1224.1 94.9 1224.6 94.5 1224.6 94.2V93.5L1233.8 93.9C1243.1 94.2 1245.5 94.8 1241.6 95.5ZM1253.8 97.3C1252.8 97.5 1251.9 97.3 1251.4 97C1250.9 96.7 1251.4 96.6 1252.9 96.8C1253.8 96.9 1254.2 97.2 1253.8 97.3ZM1264.9 95.3C1268.8 95.3 1270.2 96.1 1267.3 96.8C1265.8 97.2 1264.9 97.1 1263.4 96.3C1262.5 95.8 1263 95.3 1264.9 95.3ZM1265.9 101.2C1263 101 1260.1 100.5 1259.1 100.1C1258.1 99.2 1263 99.6 1268.3 100.8C1271.2 101.5 1271.2 101.5 1265.9 101.2ZM1291.1 107.8C1290.1 107.9 1289.6 107.9 1289.2 107.7C1288.7 107.5 1285.8 107.3 1282.9 107.2C1280 107.1 1277.1 106.9 1277.1 106.8C1277.1 106.7 1280.5 106.8 1284.9 107.1C1289.2 107.3 1292.1 107.7 1291.1 107.8ZM1280.9 106.5C1279 106.5 1276.5 106.4 1275.1 106.2C1273.2 106 1274.1 106 1276.6 106C1281.9 106 1285.3 106.4 1280.9 106.5ZM1284.3 99.4C1283.3 99.5 1282.4 99.5 1281.9 99.2C1281.4 99 1281.9 98.8 1283.4 99C1284.3 99 1284.8 99.2 1284.3 99.4ZM1284.8 97.1C1282.9 97.1 1281.4 97 1280.9 96.8C1280.4 96.6 1281.9 96.5 1283.8 96.5C1285.7 96.5 1287.2 96.6 1287.7 96.8C1288.2 97 1286.7 97.1 1284.8 97.1ZM1311.5 86.5C1316.4 87 1316.8 87.4 1313 87.2C1311.1 87.1 1309.1 86.9 1308.6 86.6C1308.1 86.2 1308.1 86.2 1311.5 86.5ZM1313.4 92C1311.5 91.9 1309.5 91.8 1309.5 91.7C1309.5 91.6 1311 91.6 1312.9 91.6C1314.8 91.7 1316.8 91.8 1316.8 91.9C1316.8 92 1315.4 92 1313.4 92ZM1312.4 90.2C1309.5 90.1 1307.1 89.9 1306.6 89.8C1306.6 89.7 1308.5 89.6 1311.4 89.6C1314.3 89.6 1316.7 89.8 1317.2 90C1317.8 90.3 1317.3 90.4 1312.4 90.2ZM1313.9 89C1307.6 88.8 1307.1 88.7 1311.5 88.6C1313.4 88.6 1314.9 88.4 1315.4 88.1C1315.4 87.8 1316.4 87.9 1317.3 88.4C1318.8 89.1 1318.3 89.2 1313.9 89ZM1335.2 101.5C1333.8 101.6 1332.8 101.4 1332.8 101.3C1332.8 101.1 1333.3 101 1334.7 101.2C1335.7 101.3 1336.2 101.4 1335.2 101.5ZM1365.8 101.4C1364.8 101.5 1363.9 101.5 1363.4 101.2C1362.9 101 1363.4 100.8 1364.8 101C1365.8 101.1 1366.3 101.3 1365.8 101.4ZM1383.8 91.9C1384.8 92.1 1385.7 92.5 1384.8 92.6C1384.3 92.8 1383.4 92.6 1382.9 92.2C1382.3 91.8 1382.8 91.6 1383.8 91.9ZM1380.8 97.5C1382.7 97.3 1383.7 97.4 1384.2 97.7C1384.7 98 1384.7 98.2 1383.7 98.2C1380.8 98.3 1378.4 97.8 1380.8 97.5ZM1388.6 101.4C1384.7 101.2 1380.8 100.7 1378.9 100.1C1376 99.1 1376 99.1 1381.8 99.6C1385.2 99.8 1389.1 100.4 1391.5 100.9C1394.9 101.6 1394.9 101.7 1388.6 101.4ZM1414.8 106.9C1409.9 106.7 1407.5 106.3 1405.6 105.5C1403.7 104.5 1405.6 104 1410.9 104.2C1411.9 104.3 1414.8 104.9 1417.2 105.7C1421.6 107.1 1421.6 107.2 1414.8 106.9ZM1478.8 93.5C1477.4 93.5 1474.9 92.9 1473.5 92.2C1471.6 91 1474 90.5 1479.8 91.1C1483.2 91.5 1482.2 93.5 1478.8 93.5ZM1523.5 87.6C1529.8 87.4 1530.3 87.4 1531.3 88C1532.3 88.5 1531.3 88.7 1526.5 88.6C1517.6 88.6 1515.7 87.9 1523.5 87.6ZM1515.2 90.7C1518.6 90.7 1524.9 91.4 1522.5 91.5C1521.5 91.6 1519.1 91.6 1517.2 91.5C1512.3 91.4 1510.9 90.7 1515.2 90.7ZM1539 96.9C1535.1 96.8 1529.8 96.3 1525.9 95.8C1517.2 94.5 1508.9 92.1 1513.3 91.9C1519.1 91.7 1525.9 92.3 1524.9 92.9C1524.4 93.2 1527.3 94.1 1531.2 94.8C1545.8 97.3 1545.3 97.2 1539 96.9ZM1543.4 95.3C1542.9 95.2 1541.5 94.9 1540 94.7C1538.6 94.5 1536.6 94 1535.6 93.6C1534.6 93.2 1532.7 92.9 1530.7 92.8C1527.3 92.7 1530.2 92.6 1536.5 92.6C1540.4 92.6 1538.9 92.3 1534.6 92.1C1530.2 92 1529.3 90.2 1533.1 89.8C1535.5 89.5 1547.2 90.8 1548.1 91.5C1550.1 93.1 1546.3 96.2 1543.4 95.3ZM1560.8 97.4C1555.9 97.4 1555 96.3 1558.4 94.8L1560.8 93.6L1561.3 94.8C1561.3 95.5 1562.3 96.3 1562.7 96.7C1563.2 97 1562.3 97.4 1560.8 97.4ZM1572.5 97.8C1570.1 98.1 1569.1 98.1 1567.2 97.9C1565.7 97.8 1565.3 97.6 1566.2 97.5C1568.1 97.4 1568.6 96.9 1568.6 95.1C1568.6 93.7 1572 93.3 1576.4 94.2C1579.3 94.8 1576.8 97.2 1572.5 97.8ZM1579.3 92.8C1578.3 92.9 1577.4 92.8 1576.9 92.6C1576.4 92.4 1576.9 92.2 1578.4 92.4C1579.3 92.5 1579.7 92.7 1579.3 92.8ZM1582.2 74.2C1581.7 74.3 1580.7 74.2 1580.3 74C1579.3 73.7 1579.8 73.6 1581.3 73.8C1582.2 73.9 1582.6 74.1 1582.2 74.2ZM1600.6 94.8C1600.1 95.7 1598.7 96.4 1597.2 96.5C1595.8 96.5 1596.2 97 1598.2 97.7C1600.1 98.3 1600.6 99.1 1599.2 99.5C1597.7 100 1596.8 100 1595.8 99.8C1595.3 99.6 1593.4 99.4 1591.4 99.3C1584.6 99.1 1583.6 96.6 1590 96.5C1591.9 96.5 1592.9 96.2 1592.4 95.9C1591 94.9 1594.3 92.6 1598.2 92.3C1602 92 1602 92 1600.6 94.8ZM1629.7 107C1628.2 107.4 1619 106.3 1616.6 105.4C1615.1 105 1613.2 104.5 1611.3 104.3C1609.4 104.1 1609.9 104 1611.8 104C1615.6 104 1631.6 106.6 1629.7 107ZM1708.8 91.2C1712.2 91.2 1713.7 91.3 1712.2 91.5C1711.2 91.7 1710.7 92 1711.2 92.2C1711.7 92.6 1711.7 92.6 1708.3 92.3C1702.5 91.6 1702.9 91.2 1708.8 91.2ZM1712.7 97.8C1711.2 98.5 1711.2 98.5 1707.8 98.1C1703.9 97.7 1701 95.7 1701 93.8C1700.5 93 1701.5 92.8 1704.4 93C1708.8 93.4 1714.6 96.7 1712.7 97.8ZM1740.3 97.2C1736.4 97.9 1735.9 98.6 1737.9 99.8L1740.8 101.4L1733 100.9C1726.2 100.5 1724.3 100.1 1720.9 98.5C1718.5 97.5 1717 96.2 1717 95.8C1717 95 1717 95 1722.8 95.4C1726.7 95.7 1727.6 95.7 1725.7 95.5C1724.3 95.3 1720.9 94.5 1718.9 93.8C1715 92.5 1715 92.4 1721.8 92.6C1727.1 92.7 1730.5 92.7 1735.9 92.4C1741.2 92.1 1742.2 92.1 1744.2 92.3C1748.1 92.8 1745.6 96.2 1740.3 97.2Z" fill="#282829"/>
<path d="M1063 106.9C1062.7 106.9 1062.4 106.8 1062.1 106.8C1063.3 107 1064.7 107.2 1066.1 107.4C1065.2 107.2 1064.1 107 1063 106.9Z" fill="#282829"/>
<path d="M1207.4 98.9H1207.5C1208.5 99.4 1211.9 99.8 1215.8 100C1220.7 100.2 1222.6 100.6 1224.1 101.4C1225.1 102 1226.5 102.4 1227.5 102.3C1228.5 102.2 1230.9 102.1 1233.3 102.2C1235.2 102.3 1237.2 102.3 1236.7 102.2C1235.7 101.8 1224.6 100.4 1220.2 100C1216 99.7 1212.1 98.5 1210.7 97.4C1210.6 97.5 1210.6 97.6 1210.5 97.7C1209.6 98.4 1208.8 98.8 1207.4 98.9Z" fill="#282829"/>
<path d="M1141.3 116.6C1141.7 116.7 1142.2 116.5 1143 116.3C1144 116 1144.4 115.7 1144.3 115.4C1143.9 115.6 1143.5 115.8 1143 115.9C1142.2 116.1 1141.6 116.3 1141.3 116.6Z" fill="#282829"/>
<path d="M1068.2 108.5C1068.4 108.5 1068.6 108.5 1068.8 108.5C1070.7 108.6 1072.7 108.8 1073.2 109.1C1073.7 109.5 1074.7 109.5 1076.6 109.3C1079.5 109 1077.1 108.5 1068.3 107.7C1067.6 107.6 1066.8 107.5 1066.1 107.4C1066.7 107.6 1067.2 107.7 1067.4 107.9L1068.2 108.5Z" fill="#282829"/>
<path d="M1319.1 110.1C1319.6 110.3 1321 110.3 1323 110.3C1324.9 110.2 1325.9 110.1 1325.9 110C1325.9 109.9 1324.4 109.8 1322 109.8C1320.1 109.8 1318.6 109.9 1319.1 110.1Z" fill="#282829"/>
<path d="M863.1 98.4C862.9 98.4 862.8 98.5 862.6 98.5C864 99.1 864.9 99.2 866 98.9C866.4 98.8 866.8 98.7 867 98.5C865.8 98.4 864.5 98.4 863.1 98.4Z" fill="#282829"/>
<path d="M1245.9 103.9C1243 103.7 1240.6 103.7 1241 103.7C1241.5 103.9 1248.3 104.4 1249.7 104.3C1250.7 104.3 1249.3 104.1 1245.9 103.9Z" fill="#282829"/>
<path d="M1741.6 110.5C1739.7 110.5 1738.2 110.6 1738.7 110.7C1738.7 110.8 1740.6 110.9 1742.6 110.9C1744.5 110.9 1746 110.8 1745.5 110.7C1745 110.5 1743.6 110.5 1741.6 110.5Z" fill="#282829"/>
<path d="M1346.8 107.9C1346.8 108.1 1347.8 108.2 1348.7 108.1C1349.7 108 1349.7 107.9 1348.2 107.7C1347.3 107.6 1346.3 107.7 1346.8 107.9Z" fill="#282829"/>
<path d="M1564.1 109.8C1564.1 110 1565.1 110.1 1566 110C1567 109.9 1567 109.8 1565.5 109.6C1564.6 109.5 1563.6 109.6 1564.1 109.8Z" fill="#282829"/>
<path d="M1347.3 109.1C1348.3 109 1348.3 108.9 1346.8 108.7C1345.3 108.6 1344.9 108.6 1344.9 108.8C1344.8 109 1345.8 109.1 1347.3 109.1Z" fill="#282829"/>
<path d="M1229.4 109.8C1228.4 109.5 1226.5 109.4 1224.1 109.5C1221.2 109.6 1221.2 109.7 1224.1 109.9C1229.9 110.4 1230.8 110.4 1229.4 109.8Z" fill="#282829"/>
<path d="M1389.5 108.1C1390.5 107.7 1390 107.6 1387.6 107.7C1385.7 107.8 1384.2 108.1 1383.7 108.3C1382.2 109.1 1387 108.9 1389.5 108.1Z" fill="#282829"/>
<path d="M1345.3 107C1345.8 107.3 1346.8 107.5 1347.2 107.3C1347.7 107.2 1347.7 106.9 1346.2 106.8C1345.8 106.6 1345.3 106.7 1345.3 107Z" fill="#282829"/>
<path d="M1325.4 108.1C1326.9 108.3 1329.3 108.5 1330.7 108.5C1334.6 108.5 1330.2 108 1321.5 107.4C1316.2 107 1315.2 106.8 1316.2 106.3C1317.2 105.9 1316.7 105.6 1314.8 105.5C1312.9 105.4 1311.9 105.6 1311.9 105.7C1312.4 106 1311.9 106 1308.5 105.8C1306.6 105.7 1304.6 105.4 1304.1 105.2C1303.6 105 1301.2 104.7 1297.8 104.6C1290.5 104.3 1291 104.4 1300.7 105.4C1310.9 106.5 1310.9 106.5 1303.1 106.4C1297.8 106.3 1297.8 106.3 1302.1 106.6C1305 106.8 1306.9 107.1 1306.9 107.4C1306.9 107.9 1307.9 107.9 1314.2 107.8C1320.6 107.7 1323.5 107.8 1325.4 108.1Z" fill="#282829"/>
<path d="M1329.3 105.8C1329.8 106.1 1331.7 106.4 1333.7 106.4C1338.1 106.4 1337.1 105.8 1332.2 105.5C1329.3 105.2 1328.8 105.3 1329.3 105.8Z" fill="#282829"/>
<path d="M415.9 87.7C415.9 87.9 416.9 88 417.8 87.9C418.8 87.8 418.8 87.7 417.3 87.5C416.4 87.4 415.9 87.5 415.9 87.7Z" fill="#282829"/>
<path d="M366.4 87.3C367.4 87.4 369.3 87.3 369.8 87.1C370.3 87 373.2 86.7 376.1 86.5C382.4 86.1 379.5 85.3 372.7 85.5C370.3 85.6 368.3 85.9 368.8 86.1C369.3 86.4 368.3 86.7 366.9 86.9C365.4 87.1 364.9 87.2 366.4 87.3Z" fill="#282829"/>
<path d="M397.9 89.2C397.9 89.1 396 89 394 89C392.1 89 390.6 89.1 391.1 89.2C391.1 89.3 393 89.4 395 89.4C396.5 89.4 397.9 89.3 397.9 89.2Z" fill="#282829"/>
<path d="M283.4 90.7C282.9 90.5 281.5 90.3 280 90.3C278.5 90.3 277.6 90.4 277.6 90.6C278.1 90.7 279.5 90.9 281 91C282.5 91 283.4 90.9 283.4 90.7Z" fill="#282829"/>
<path d="M422.2 89.2001C422.7 88.9001 420.7 88.7001 416.4 88.5001C408.2 88.3001 408.2 88.6001 415.9 89.2001L421.2 89.6001L422.2 89.2001Z" fill="#282829"/>
<path d="M448.9 85C447 85 445.5 85.1 445.5 85.2C445.5 85.3 446.5 85.4 447.4 85.4C448.3 85.4 449.8 85.3 450.8 85.2C451.3 85.1 450.8 85 448.9 85Z" fill="#282829"/>
<path d="M397.9 92.2C396.9 92.1 396 92.2 396.4 92.4C396.9 92.6 397.9 92.8 398.3 92.6C399.9 92.5 399.4 92.3 397.9 92.2Z" fill="#282829"/>
<path d="M427.5 90.1C426 89.9 424.6 89.8 423.6 89.8C420.7 89.8 423.1 90.2 426.5 90.3C428.5 90.3 429 90.2 427.5 90.1Z" fill="#282829"/>
<path d="M282 92.8001C287.3 92.8001 283 91.5 276.7 91.2C270.9 90.9 270.9 90.9001 273.8 91.3001C275.7 91.5001 277.7 91.9001 278.2 92.3001C278.6 92.5001 280 92.8001 282 92.8001Z" fill="#282829"/>
<path d="M31.6994 92.9C31.6994 92.8 29.2994 92.6 26.7994 92.6C24.3994 92.6 22.8994 92.7 22.8994 93C23.3994 93.2 25.2994 93.4 27.7994 93.3C30.6994 93.2 32.1994 93.1 31.6994 92.9Z" fill="#282829"/>
<path d="M228.6 92.9C229.6 92.9 231 92.8 232 92.7C233 92.6 232 92.5 230.1 92.5C228.2 92.5 226.7 92.6 226.7 92.7C227.2 92.8 227.7 92.9 228.6 92.9Z" fill="#282829"/>
<path d="M462.4 86.6C460.9 86.3 458.5 86.1 457.1 86.1C455.6 86.1 454.7 86 455.6 85.8C456.5 85.6 455.6 85.5 453.2 85.5C448.4 85.5 448.8 85.7 454.7 86.4C458.6 86.9 458.6 87 455.2 87.2C452.8 87.3 452.3 87.4 454.2 87.4C462 87.4 464.9 87 462.4 86.6Z" fill="#282829"/>
<path d="M409.6 87.3C412 87 402.8 86 397.5 86C392.6 86 394.1 86.3 403.3 87.1C405.7 87.3 408.6 87.4 409.6 87.3Z" fill="#282829"/>
<path d="M341.7 86.5C339.8 86.5 340.7 86.7 342.7 86.9C345.1 87.1 347.6 87.3 348 87.3C348.5 87.3 348 87.1 347 86.9C346 86.6 343.6 86.5 341.7 86.5Z" fill="#282829"/>
<path d="M196.1 92.6C198 92.7 199.5 92.6 199 92.4C198.5 92.2 197.1 92.2 195.1 92.2C193.2 92.3 192.2 92.4 192.2 92.4C192.2 92.4 194.2 92.5 196.1 92.6Z" fill="#282829"/>
<path d="M239.3 94C243.2 93.9 246.6 93.7 247.5 93.6C249.4 93.2 242.2 92.9 235.9 93.1C233 93.2 231 93.5 231.5 93.7C232.5 94 234 94.1 239.3 94Z" fill="#282829"/>
<path d="M391.6 88C393.5 88.4 394.5 88.4 395 88.2C395.5 88 394 87.8 392.1 87.7C390.2 87.6 390.2 87.7 391.6 88Z" fill="#282829"/>
<path d="M543.9 90.7001C545.8 91.0001 545.8 90.9001 545.8 90.6001C545.8 90.4001 542.9 90.2001 540 90.1001C536.6 90.0001 535.6 89.9001 536.6 89.8001C538.1 89.6001 537.1 89.7001 533.2 89.9001C529.3 90.1001 528.8 90.2001 531.7 90.3001C534.1 90.4001 535.1 90.5001 533.6 90.7001C531.7 90.9001 532.1 90.9001 536.5 90.7001C541 90.4001 542 90.4001 543.9 90.7001Z" fill="#282829"/>
<path d="M557 92.8C557 93 558 93.1 558.9 93C559.9 92.9 559.9 92.8 558.4 92.6C557.5 92.5 556.5 92.6 557 92.8Z" fill="#282829"/>
<path d="M501.2 94.7999C499.7 94.6999 499.3 94.6999 499.3 94.8999C499.3 95.0999 500.3 95.1999 501.2 95.0999C502.7 95.0999 502.2 94.8999 501.2 94.7999Z" fill="#282829"/>
<path d="M532.3 93.1C533.3 93 533.3 92.9 531.8 92.7C530.3 92.6 529.9 92.6 529.9 92.8C530.4 93.1 531.3 93.2 532.3 93.1Z" fill="#282829"/>
<path d="M576.9 94.8001C578.8 94.8001 579.8 94.6 579.8 94.4C579.3 94.1 578.8 94.1 576.4 94.4C573 94.8 573 94.9001 576.9 94.8001Z" fill="#282829"/>
<path d="M750.6 92.8C749.1 93 748.2 93.3 748.7 93.5C749.7 94.1 751.1 93.9 752.6 93.1C753 92.7 752.5 92.6 750.6 92.8Z" fill="#282829"/>
<path d="M828.2 96.1C826.7 96 825.3 96.1 823.8 96.3C820.4 96.9 822.3 97.3 826.2 96.7C828.7 96.5 829.2 96.2 828.2 96.1Z" fill="#282829"/>
<path d="M656 94C654.5 93.9 654.1 93.9 654.1 94.1C654.1 94.3 655.1 94.4 656 94.3C657.4 94.3 657.4 94.1 656 94Z" fill="#282829"/>
<path d="M706 94.4C706 94.6 707 94.7 707.9 94.6C708.9 94.5 708.9 94.4 707.4 94.2C706.4 94.2 705.5 94.2 706 94.4Z" fill="#282829"/>
<path d="M558.5 91.6C560 91.3 559.5 90.9 557 90.7C553.6 90.3 553.1 90.4 554.6 91.2C555.6 91.9 556.1 92 558.5 91.6Z" fill="#282829"/>
<path d="M478.9 97.6C479.4 97.4 478.4 96.9 477.4 96.7C475.9 96.4 475.9 96.6 476.4 97.1C477.5 97.6 478.4 97.9 478.9 97.6Z" fill="#282829"/>
<path d="M471.7 95.5C470.2 95.4 469.8 95.4 469.8 95.6C469.8 95.8 470.8 95.9 471.7 95.8C473.1 95.8 473.1 95.7 471.7 95.5Z" fill="#282829"/>
<path d="M452.7 90.1C451.7 89.9 451.2 90.1 451.7 90.4C452.2 90.8 453.2 90.9 453.6 90.7C454.2 90.5 453.7 90.3 452.7 90.1Z" fill="#282829"/>
<path d="M477 91.9C477 91.8 475.5 91.8 474.1 92C472.6 92.2 471.7 92.4 471.7 92.5C471.7 92.6 473.2 92.6 474.6 92.4C476 92.2 477 92 477 91.9Z" fill="#282829"/>
<path d="M194.7 96.6C199.6 96.8 200.5 96.8 198.6 96.5C197.6 96.3 194.7 96.1 192.3 96.1C186.4 96 187.9 96.4 194.7 96.6Z" fill="#282829"/>
<path d="M488.6 88.7C486.7 88.7 485.2 88.7999 485.2 88.7999C485.2 88.8999 487.1 88.9 489.1 89C491 89.1 492.5 89 492.5 88.9C492 88.8 490.6 88.7 488.6 88.7Z" fill="#282829"/>
<path d="M77.8003 73.1C76.8003 73 75.9003 73.1 76.3003 73.3C76.8003 73.5 77.8003 73.7 78.2003 73.5C79.2003 73.5 78.7003 73.3 77.8003 73.1Z" fill="#282829"/>
<path d="M101 69.6C96.0998 70 97.0998 70.5 103.4 70.7C107.3 70.9 108.3 70.8 106.8 70C104.9 69.4 104 69.3 101 69.6Z" fill="#282829"/>
<path d="M48.6998 69.4C44.2998 69.4 45.7998 70.4 50.5998 70.7C53.4998 70.9 53.9998 70.8 52.9998 70.2C52.4998 69.8 50.5998 69.4 48.6998 69.4Z" fill="#282829"/>
<path d="M78.1999 71C78.6999 70.5 81.0999 70.2 85.4999 70C90.3999 69.8 91.2999 69.6 89.8999 69.1C88.8999 68.7 86.4999 68.4 84.5999 68.3C83.0999 68.2 81.6999 67.7 81.6999 67C81.6999 66.2 80.1999 65.9 77.7999 65.9C75.8999 65.9 74.3999 66.1 74.8999 66.4C75.3999 66.8 74.8999 66.9 69.9999 66.7C67.0999 66.6 64.1999 66.4 64.1999 66.2C64.1999 66.1 62.2999 65.9 60.2999 65.8C58.3999 65.7 56.8999 65.9 57.3999 66.1C57.8999 66.3 59.2999 66.5 61.2999 66.5C63.1999 66.5 65.1999 66.8 66.1999 67.2C67.6999 67.8 68.0999 67.9 69.5999 67.4C71.0999 67 71.9999 67.1 72.4999 67.8C72.9999 68.3 71.9999 68.6 70.0999 68.6C64.2999 68.5 62.2999 69.1 63.7999 70L65.6999 70.9L67.1999 70C69.0999 68.6 71.5999 68.7 74.4999 70.2C76.7999 71.5 77.7999 71.6 78.1999 71Z" fill="#282829"/>
<path d="M51.6002 88.3C53.1002 88.4 55.5002 88.5 56.9002 88.5C58.8002 88.5 59.8002 88.4 59.8002 88.3C59.8002 88.2 56.9002 88.1 54.5002 88.1C51.6002 88.1 50.1002 88.2 51.6002 88.3Z" fill="#282829"/>
<path d="M60.3007 86.2C60.8007 86.4 61.8007 86.6 62.2007 86.4C62.7007 86.3 62.7007 86 61.2007 85.9C60.3007 85.9 59.8007 86 60.3007 86.2Z" fill="#282829"/>
<path d="M16.6002 84.9C14.7002 85 13.7002 85.1 13.7002 85.1C13.7002 85.2 15.2002 85.2 17.1002 85.2C19.0002 85.2 20.5002 85.1 20.0002 85C20.0002 84.8 18.6002 84.8 16.6002 84.9Z" fill="#282829"/>
<path d="M75.8 85.8C75.8 85.7 73.9 85.6 71.9 85.5C70 85.4 68.5 85.5 68.5 85.6C68.5 85.7 70.4 85.8 72.4 85.9C74.8 85.9 76.3 85.9 75.8 85.8Z" fill="#282829"/>
<path d="M134.5 72.6999C135.5 72.5999 135.5 72.4999 134 72.2999C132.5 72.1999 132.1 72.1999 132.1 72.3999C132.1 72.5999 133.5 72.6999 134.5 72.6999Z" fill="#282829"/>
<path d="M536.2 104.9C538.1 104.8 539.1 104.7 539.1 104.6C539.1 104.5 537.2 104.4 535.2 104.4C533.2 104.4 532.3 104.5 532.3 104.7C532.8 104.9 534.2 105 536.2 104.9Z" fill="#282829"/>
<path d="M172.8 88.8C173.8 89.3 177.2 90 180.6 90.3C185.9 90.9 186.4 90.8 181.6 89.1C176.3 87.1 172.4 86.5 159.8 85.9C154.9 85.7 149.6 85.2 148.2 84.9C144.3 84.3 134.6 83.7 130.7 83.9C129.2 84 126.3 83.8 124.9 83.5C123.4 83.2 120.5 82.9 119.1 82.8C115.2 82.7 121.5 83.6 130.7 84.4C134.6 84.8 138.5 85.3 139.4 85.7C140.4 86 143.3 86.5 145.2 86.7C149.1 87.1 149.6 87.1 149.1 86.8C148.6 86.5 149.6 86.5 152 86.7C153.9 86.8 154.4 87.1 153 87.4C151.5 87.7 151.5 88 152.5 88.1C153.5 88.2 153.5 88.3 152 88.4C150.5 88.4 148.6 88.7 148.1 88.9C147.6 89.1 147.6 89.3 148.1 89.1C149.1 89 152 88.9 154.4 88.8C156.8 88.8 158.3 88.7 156.8 88.6C155.8 88.5 156.8 88.2 159.2 88C162.1 87.8 163.6 87.7 164.1 87.9C164.6 88.1 166 88.1 168 88.1C169.9 87.9 171.9 88.2 172.8 88.8Z" fill="#282829"/>
<path d="M126.3 75.1C129.2 74.6 128.2 74 124.4 74.2C122.5 74.3 120.5 74 119.5 73.5C118.5 73.1 116.1 72.5 114.2 72.2C110.3 71.7 115.2 73.6 121 74.8C123.8 75.4 124.3 75.4 126.3 75.1Z" fill="#282829"/>
<path d="M71.4999 74.5999C71.4999 74.7999 72.4999 74.8999 73.3999 74.7999C74.3999 74.6999 74.3999 74.5999 72.8999 74.3999C71.8999 74.2999 70.9999 74.3999 71.4999 74.5999Z" fill="#282829"/>
<path d="M76.3003 76.4C76.8003 76.3 76.8003 76 75.3003 75.9C74.3003 75.7 73.4003 75.7999 73.8003 76.0999C74.4003 76.3999 75.3003 76.6 76.3003 76.4Z" fill="#282829"/>
<path d="M47.2001 76.3C47.7001 76.5 48.7001 76.7 49.1001 76.5C49.6001 76.4 49.6001 76.1 48.1001 76C47.2001 76 46.7001 76.1 47.2001 76.3Z" fill="#282829"/>
<path d="M96.6998 82.6C95.1998 82.5 94.7998 82.5 94.7998 82.7C94.7998 82.9 95.7998 83 96.6998 82.9C98.0998 82.9 98.0998 82.8 96.6998 82.6Z" fill="#282829"/>
<path d="M208.3 87.8C210.2 87.9 212.2 87.8 212.7 87.6C213.7 87.4 212.7 87.4 209.3 87.5C203.9 87.6 203.9 87.7 208.3 87.8Z" fill="#282829"/>
<path d="M92.3001 78.4C90.4001 77.9 87.4001 77.4 85.5001 77.3C81.1001 77 87.4001 78.3 92.3001 78.9C94.3001 79.1 94.3001 78.9 92.3001 78.4Z" fill="#282829"/>
<path d="M1737.8 96.2C1739.7 96.3 1742.2 96.2 1743.1 96.1C1744.1 96 1742.6 95.9 1739.7 95.9C1733.4 96 1732.4 96.1 1737.8 96.2Z" fill="#282829"/>
<path d="M1082.4 125.4C1081.4 125.3 1080.5 125.4 1080.9 125.6C1081.4 125.8 1082.4 126 1082.8 125.8C1083.8 125.8 1083.4 125.5 1082.4 125.4Z" fill="#282829"/>
<path d="M1225 120.3C1223.1 120.1 1222.1 120.1 1220.6 120.4C1217.7 121 1218.2 121.1 1223 120.8C1225.5 120.6 1226.5 120.4 1225 120.3Z" fill="#282829"/>
<path d="M1245.4 127.3C1245.9 127.2 1243.9 127.1 1241 127.1C1238.1 127.1 1235.7 127.3 1236.2 127.4C1237.1 127.8 1243.9 127.6 1245.4 127.3Z" fill="#282829"/>
<path d="M1286.6 128.7L1289 128.3C1290.4 128.1 1290 127.7 1288 127.6C1282.7 127.1 1277.8 126.3 1281.2 126.3C1282.6 126.4 1281.7 124.7 1278.8 122.7C1273.5 118.9 1270.1 118.1 1272 120.8C1273.9 123.7 1273.9 125.7 1273 125.8C1271.1 125.9 1278.8 127.7 1283.2 128.2L1286.6 128.7Z" fill="#282829"/>
<path d="M1226 127.4C1225 125.7 1224.5 125.5 1220.7 125.9C1219.2 126.1 1219.2 126.4 1220.2 126.6C1221.2 126.9 1223.1 127.5 1224.6 128C1226 128.7 1226.5 128.6 1226 127.4Z" fill="#282829"/>
<path d="M1027.6 127.4C1030.5 127.4 1032.4 127.3 1032.4 127.2C1032.4 127.1 1030 127 1027.1 127C1024.2 127 1022.2 127.1 1022.2 127.2C1022.2 127.4 1024.7 127.5 1027.6 127.4Z" fill="#282829"/>
<path d="M887.4 128.1C889.3 128.1 890.3 127.8 889.3 127.4C888.3 126.9 887.4 126.8 885.4 127C882 127.4 883.5 128.2 887.4 128.1Z" fill="#282829"/>
<path d="M1012.5 127.3C1013 127.7 1014 127.8 1014.4 127.6C1014.9 127.4 1014.4 127.1 1013.4 126.9C1012.5 126.8 1012.1 127 1012.5 127.3Z" fill="#282829"/>
<path d="M1202.2 112.6C1202.7 112.9 1203.7 113.1 1204.1 112.9C1204.6 112.8 1204.6 112.5 1203.1 112.4C1202.2 112.2 1201.7 112.3 1202.2 112.6Z" fill="#282829"/>
<path d="M1280.3 112.9C1282.7 112.1 1282.2 110.3 1279.3 110.5C1277.8 110.6 1276.9 110.9 1276.4 111.2C1275.9 111.5 1276.4 112.1 1276.9 112.6C1278.4 113.4 1278.4 113.4 1280.3 112.9Z" fill="#282829"/>
<path d="M1221.6 113.2C1222.1 113.1 1222.1 112.8 1220.6 112.7C1219.6 112.6 1218.7 112.7 1219.1 112.9C1220.2 113.2 1220.6 113.3 1221.6 113.2Z" fill="#282829"/>
<path d="M1235.2 110.4C1230.4 110.4 1235.7 110.9 1241.5 111C1245.4 111.1 1245.9 111 1242.5 110.7C1240 110.6 1236.7 110.4 1235.2 110.4Z" fill="#282829"/>
<path d="M1202.7 113.9C1201.7 113.8 1200.8 113.9 1201.3 114.1C1201.8 114.3 1202.7 114.5 1203.2 114.3C1203.7 114.3 1203.7 114.1 1202.7 113.9Z" fill="#282829"/>
<path d="M1296.8 120.9C1301.7 121 1302.6 120.5 1300.7 119.1C1298.8 117.8 1296.3 117.7 1293.4 118.8C1291 119.7 1292.9 120.8 1296.8 120.9Z" fill="#282829"/>
<path d="M1271.1 118.5C1269.7 118.4 1269.2 118.4 1269.2 118.6C1269.2 118.8 1270.2 118.9 1271.1 118.8C1272.6 118.8 1272.6 118.6 1271.1 118.5Z" fill="#282829"/>
<path d="M1304.6 115.3C1306.5 115.3 1307.5 114.9 1307 114.5C1306.5 114.1 1306.5 113.4 1307.5 112.9C1308.5 112.5 1307.5 112.1 1306.1 112.1C1303.2 112.1 1301.7 112.9 1302.2 114.2C1302.2 114.7 1302.2 115.1 1302.2 115.2C1301.2 115.3 1302.6 115.3 1304.6 115.3Z" fill="#282829"/>
<path d="M1202.2 114.9C1200.3 114.9 1198.8 115 1198.8 115.1C1198.8 115.2 1199.8 115.3 1200.7 115.3C1201.6 115.3 1203.1 115.2 1204.1 115.1C1204.6 115 1204.2 114.9 1202.2 114.9Z" fill="#282829"/>
<path d="M1378.3 113.3C1377.3 113.1 1376.4 113.2 1376.8 113.5C1377.3 113.8 1378.3 114 1378.7 113.8C1379.8 113.7 1379.3 113.5 1378.3 113.3Z" fill="#282829"/>
<path d="M1389.5 132.1C1388.1 132 1387.6 132 1387.6 132.2C1387.6 132.4 1388.6 132.5 1389.5 132.4C1390.4 132.4 1390.4 132.3 1389.5 132.1Z" fill="#282829"/>
<path d="M1232.3 136.1C1233.3 136 1233.3 135.9 1231.8 135.7C1230.3 135.6 1229.9 135.6 1229.9 135.8C1230.3 136.1 1231.3 136.2 1232.3 136.1Z" fill="#282829"/>
<path d="M1467.1 131.3C1462.7 131.5 1463.2 131.8 1467.6 131.8C1471.5 131.8 1475.4 131.4 1472.5 131.3C1471.4 131.2 1469 131.2 1467.1 131.3Z" fill="#282829"/>
<path d="M1256.5 130C1246.3 129 1249.7 129.7 1260.9 131C1287.6 134 1291.9 134.5 1295.8 135.3C1299.7 136.1 1299.7 136.1 1301.6 135.6C1303.1 135.1 1299.7 134.6 1285.6 133.3C1282.7 133.1 1276.9 132.4 1272 131.8C1266.7 131.1 1259.9 130.4 1256.5 130Z" fill="#282829"/>
<path d="M1061.5 124.9C1061 125.2 1061 125.5 1060.5 125.6C1060.5 125.7 1061.9 125.8 1063.9 125.8C1065.8 125.9 1067.3 125.8 1067.3 125.7C1067.3 125.6 1067.3 125.1 1067.8 124.7C1068.3 124.2 1067.8 124 1065.4 124.2C1063.5 124.3 1061.5 124.6 1061.5 124.9Z" fill="#282829"/>
<path d="M1223.6 123.8C1226.5 123.1 1224.1 121.6 1220.2 121.6C1218.7 121.6 1218.3 122.2 1219.2 123C1221.1 123.9 1222.1 124.1 1223.6 123.8Z" fill="#282829"/>
<path d="M1104.2 123.3C1102.3 123.3 1100.3 123.4 1099.8 123.5C1099.3 123.6 1098.8 123.9 1098.8 124.1C1099.3 124.5 1099.3 124.5 1103.6 124.1C1108.1 123.7 1108.6 123.3 1104.2 123.3Z" fill="#282829"/>
<path d="M1220.6 124.7C1219.6 124.6 1218.7 124.7 1219.1 124.9C1219.6 125.1 1220.6 125.3 1221 125.1C1222.1 125 1221.6 124.8 1220.6 124.7Z" fill="#282829"/>
<path d="M1178 123.5C1177 123.3 1176.1 123.4 1176.6 123.7C1177.1 124 1178 124.2 1178.5 124C1179.4 124 1178.9 123.7 1178 123.5Z" fill="#282829"/>
<path d="M1598 114.2C1599.9 114.2 1601.4 114.1 1600.9 114C1600.9 113.9 1599 113.8 1597 113.8C1595.1 113.8 1593.6 113.9 1594.1 114C1594.7 114.1 1596.6 114.2 1598 114.2Z" fill="#282829"/>
<path d="M1461.3 113.6C1461.3 113.7 1462.3 113.8 1463.2 113.8C1464.2 113.8 1465.6 113.7 1466.6 113.6C1467.6 113.5 1466.6 113.4 1464.7 113.4C1462.7 113.4 1461.3 113.5 1461.3 113.6Z" fill="#282829"/>
<path d="M1484.1 112.9C1484.1 112.8 1482.2 112.7 1480.2 112.7C1478.3 112.7 1476.8 112.8 1476.8 112.8C1476.8 112.9 1478.7 112.9 1480.7 113C1482.6 113.1 1484.1 113.1 1484.1 112.9Z" fill="#282829"/>
<path d="M1583 111.5C1579.1 111.5 1576.7 111.7 1577.2 111.9C1577.7 112.3 1587.9 112.5 1592.2 112.3C1596.1 111.9 1590.3 111.4 1583 111.5Z" fill="#282829"/>
<path d="M1377.8 116.2C1380.2 117.3 1381.2 118.3 1379.7 118.3C1378.3 118.3 1378.3 119.1 1380.2 120C1381.6 120.9 1384.1 121.6 1385.1 121.6C1386.1 121.6 1385.6 120.8 1384.1 120C1381.7 119 1382.2 118.6 1384.6 118.7C1386.5 118.8 1388.5 118.9 1389 119.1C1389.5 119.4 1407 121.4 1408.4 121.3C1408.9 121.3 1405.5 120.8 1400.6 120.2C1394.3 119.5 1389.4 118.4 1385.1 116.8C1381.7 115.5 1377.3 114.4 1375.9 114.3C1374.4 114.2 1375.4 115.1 1377.8 116.2Z" fill="#282829"/>
<path d="M1344.8 113.2C1342.9 114.3 1343.3 114.6 1346.7 114.6C1348.1 114.6 1348.6 114.1 1347.7 113.5C1346.3 112.5 1346.3 112.5 1344.8 113.2Z" fill="#282829"/>
<path d="M1504.4 117C1502.9 117.2 1502.5 117.5 1502.9 117.8C1503.4 118.1 1503.9 118.1 1505.3 117.7C1508.3 117 1507.3 116.6 1504.4 117Z" fill="#282829"/>
<path d="M1525.3 116C1524.3 115.9 1523.4 116 1523.9 116.2C1524.4 116.4 1525.3 116.6 1525.8 116.4C1526.7 116.4 1526.7 116.2 1525.3 116Z" fill="#282829"/>
<path d="M1501.5 118.9C1502 119.2 1503 119.4 1503.4 119.2C1503.9 119.1 1503.9 118.8 1502.4 118.7C1501.5 118.5 1501 118.6 1501.5 118.9Z" fill="#282829"/>
<path d="M1489.4 120.1C1489.4 120 1487.5 120 1485.5 119.9C1483.6 119.8 1482.1 119.9 1482.1 120C1482.1 120.1 1484 120.2 1486 120.2C1487.9 120.2 1489.4 120.2 1489.4 120.1Z" fill="#282829"/>
<path d="M1222.6 131.6C1224.5 131.6 1226 131.5 1226 131.5C1226 131.4 1224.1 131.4 1222.1 131.3C1220.1 131.2 1218.7 131.3 1218.7 131.4C1219.2 131.5 1220.6 131.6 1222.6 131.6Z" fill="#282829"/>
<path d="M1603.4 121.6C1604.4 121.5 1602.9 121.4 1600.5 121.3C1597.1 121.1 1596.6 121.2 1598.6 121.4C1600 121.6 1602.4 121.7 1603.4 121.6Z" fill="#282829"/>
<path d="M1350.2 122C1350.7 122.2 1351.7 122.4 1352.1 122.2C1352.6 122.1 1352.6 121.8 1351.1 121.7C1350.2 121.7 1349.7 121.8 1350.2 122Z" fill="#282829"/>
<path d="M1359.4 121.5C1359.4 121.7 1360.4 121.8 1361.3 121.7C1362.3 121.6 1362.3 121.5 1360.8 121.3C1359.9 121.3 1358.9 121.3 1359.4 121.5Z" fill="#282829"/>
<path d="M1650.4 109.9C1651.9 110 1656.2 110.1 1660.1 110C1665.9 110 1666.4 109.9 1662 109.8C1659.1 109.7 1654.7 109.7 1652.3 109.7C1650 109.7 1649 109.8 1650.4 109.9Z" fill="#282829"/>
<path d="M937.8 127.7C937.8 127.8 939.7 127.7 942.2 127.4C944.6 127.1 946.1 126.8 946.1 126.7C946.1 126.6 944.2 126.7 941.7 127C939.2 127.3 937.3 127.6 937.8 127.7Z" fill="#282829"/>
<path d="M1526.7 116.7L1525.2 117.3C1524.7 117.6 1524.2 117.9 1525.2 118C1525.7 118.1 1527.1 118.4 1528.1 118.8C1529.1 119.2 1531.5 119.5 1533 119.5C1534.5 119.5 1535.9 119.7 1535.9 119.9C1535.9 120.4 1542.7 121.8 1545.1 121.6C1546.6 121.5 1536.8 118.8 1530.1 117.4L1526.7 116.7Z" fill="#282829"/>
<path d="M872.8 123.5C872.8 123.7 873.8 123.8 874.7 123.7C875.7 123.6 875.7 123.5 874.2 123.3C873.3 123.2 872.8 123.3 872.8 123.5Z" fill="#282829"/>
<path d="M757.4 122.7C754.5 122.7 752.5 122.8 752.5 122.9C752.5 123 754.9 123.1 757.8 123.1C760.7 123.1 762.7 123 762.7 122.9C762.7 122.8 760.3 122.7 757.4 122.7Z" fill="#282829"/>
<path d="M1827 106.6C1825.1 106.2 1822.6 106.1 1812.4 105.9C1806.1 105.8 1804.6 105.9 1805.1 106.2C1805.6 106.6 1811.9 106.9 1821.6 106.9C1827.5 107 1828.5 106.9 1827 106.6Z" fill="#282829"/>
<path d="M1494.7 125.3C1502.5 125.4 1505.4 125.3 1503 125.2C1501.1 125.1 1493.3 125 1485.5 125C1469 125 1476.8 125.2 1494.7 125.3Z" fill="#282829"/>
</svg>
