<svg width="6" height="7" viewBox="0 0 6 7" fill="none" xmlns="http://www.w3.org/2000/svg">
<path d="M5.09984 3.2116L0.549279 0.0612128C0.496763 0.0248757 0.435308 0.00359736 0.371567 -0.000318222C0.307826 -0.0042338 0.244228 0.00936249 0.187659 0.0389986C0.131091 0.0686347 0.0837085 0.113182 0.0506413 0.167815C0.0175741 0.222449 8.27163e-05 0.285087 6.11642e-05 0.348948L6.11642e-05 6.64972C1.88281e-05 6.71362 0.0174635 6.7763 0.0505051 6.83098C0.0835467 6.88567 0.130925 6.93026 0.187504 6.95994C0.244084 6.98962 0.307708 7.00325 0.371479 6.99935C0.435251 6.99545 0.496739 6.97416 0.549279 6.93781L5.09984 3.78742C5.1462 3.75507 5.18406 3.712 5.2102 3.66187C5.23635 3.61174 5.25 3.55605 5.25 3.49951C5.25 3.44298 5.23635 3.38728 5.2102 3.33715C5.18406 3.28703 5.1462 3.24396 5.09984 3.2116V3.2116Z" fill="#6A65CD"/>
</svg>
