<svg width="43" height="38" viewBox="0 0 43 38" fill="none" xmlns="http://www.w3.org/2000/svg">
<path d="M42.7491 14.9522C42.7491 14.6009 42.6488 14.4504 42.2474 14.4504C41.294 14.4504 40.3407 14.4504 39.4376 14.4504C39.0863 14.4504 38.986 14.3501 38.986 13.9988C38.986 13.6978 38.986 13.3967 38.986 13.1459C38.986 12.5939 38.986 12.5939 38.3839 12.5939C37.3302 12.5939 36.2264 12.5939 35.1727 12.5939C34.5706 12.5939 34.5706 12.5939 34.5706 11.9918C34.5706 8.42941 34.5706 4.8168 34.5706 1.25438C34.5706 1.05368 34.5706 0.903155 34.5706 0.702455C34.5706 0.25088 34.2696 0 33.8682 0C33.7678 0 33.6173 0 33.5169 0C25.3886 0 17.3104 0 9.18203 0C9.03151 0 8.88098 0 8.73046 0C8.37923 0.050175 8.17853 0.250881 8.12835 0.602107C8.12835 0.802807 8.12835 0.953327 8.12835 1.15403C8.12835 4.76663 8.12835 8.42941 8.12835 12.042C8.12835 12.5438 8.12835 12.5939 7.6266 12.5939C6.47258 12.5939 5.31856 12.5939 4.21471 12.5939C3.86348 12.5939 3.71295 12.6943 3.76313 13.0455C3.76313 13.3967 3.76313 13.6978 3.76313 14.049C3.76313 14.4002 3.66278 14.5006 3.31155 14.5006C2.35823 14.5006 1.4049 14.5006 0.50175 14.5006C0.150525 14.5006 0 14.6009 0 14.9522C0 16.3069 0 17.7118 0 19.0665C0 19.4177 0.150525 19.5683 0.50175 19.5181C1.4049 19.5181 2.30806 19.5181 3.21121 19.5181C3.76313 19.5181 3.81331 19.5181 3.81331 20.07C3.81331 20.8728 3.81331 21.7258 3.81331 22.5286C3.81331 26.0408 3.81331 29.5029 3.81331 33.0152C3.81331 34.1692 4.16453 35.1225 5.0175 35.9253C5.87048 36.7783 6.87398 37.1295 8.07818 37.1295C11.2894 37.1295 14.5006 37.1295 17.7118 37.1295C18.9662 37.1295 20.2205 37.1295 21.4749 37.1295C23.6324 37.1295 25.8401 37.1295 27.9977 37.1295C30.1552 37.1295 32.3629 37.1295 34.5204 37.1295C35.2229 37.1295 35.8752 37.1295 36.5776 36.8787C37.4306 36.5274 38.0829 36.0257 38.5846 35.2731C39.0864 34.5204 39.2369 33.6674 39.1867 32.7643C39.1867 28.5496 39.1867 24.2847 39.1867 20.07C39.1867 19.5683 39.1867 19.5683 39.6884 19.5683C40.6418 19.5683 41.5449 19.5683 42.4982 19.5683C42.8495 19.5683 43 19.4177 43 19.0665C42.7491 17.6616 42.7491 16.3069 42.7491 14.9522ZM3.66278 17.8623C3.66278 18.1132 3.56243 18.2135 3.31155 18.2135C2.70945 18.2135 2.10735 18.2135 1.50525 18.2135C1.25438 18.2135 1.15403 18.1132 1.15403 17.8623C1.15403 17.5613 1.15403 17.2602 1.15403 16.9592C1.15403 16.6581 1.15403 16.3571 1.15403 16.1062C1.15403 15.8553 1.25438 15.7048 1.50525 15.7048C2.10735 15.7048 2.70945 15.7048 3.26138 15.7048C3.51225 15.7048 3.6126 15.8051 3.6126 16.056C3.66278 16.6581 3.66278 17.2602 3.66278 17.8623ZM9.88448 1.20421C12.6943 1.20421 15.5543 1.20421 18.3641 1.20421H21.3746C25.1879 1.20421 28.951 1.20421 32.7643 1.20421C33.3162 1.20421 33.3162 1.2042 33.3162 1.75613C33.3162 5.16803 33.3162 8.57993 33.3162 11.9417C33.3162 12.4936 33.3162 12.4936 32.7643 12.4936C30.4061 12.5939 28.0478 12.6943 25.7398 12.7946C24.6861 12.8448 23.6324 13.6978 23.3314 14.8016C23.0805 15.755 23.5321 16.9592 24.3851 17.5613C24.937 17.9125 25.4889 18.1132 26.1412 18.1132C26.7935 18.1132 27.4457 18.1132 28.0478 18.1132C28.6499 18.1132 29.0513 18.5146 29.0513 19.0665C29.0513 19.5683 28.5998 19.9697 28.0478 20.0198C27.8973 20.0198 27.7468 20.0198 27.5963 20.0198C23.4317 20.0198 19.217 20.0198 15.0525 20.0198C14.7013 20.0198 14.3501 19.9195 14.049 19.769C13.6476 19.5683 13.6476 19.1669 13.748 18.8156C13.8483 18.4142 14.0992 18.1634 14.5006 18.1634C15.203 18.1132 15.9557 18.1634 16.6581 18.1132C17.8121 18.063 18.7153 17.5613 19.2672 16.5076C19.769 15.4539 19.4679 14.1494 18.6149 13.4469C18.063 12.9953 17.4609 12.7946 16.7585 12.7445C14.4504 12.6943 12.1424 12.5438 9.83431 12.4434C9.48308 12.4434 9.43291 12.2929 9.43291 11.9918C9.43291 8.52976 9.43291 5.06768 9.43291 1.60561C9.33256 1.30456 9.48308 1.20421 9.88448 1.20421ZM36.4271 35.3734C35.9755 35.6744 35.4236 35.8752 34.8215 35.8752C32.7141 35.8752 30.6569 35.8752 28.5496 35.8752C26.1412 35.8752 23.6826 35.8752 21.2742 35.8752C16.8086 35.8752 12.3431 35.8752 7.82731 35.8752C6.82381 35.8752 5.97083 35.5239 5.4189 34.671C5.16803 34.3197 5.06768 33.8682 4.96733 33.4668C4.91716 33.2159 4.91715 32.965 4.91715 32.7141C4.91715 26.6429 4.91715 20.5216 4.91715 14.4504C4.91715 13.8483 4.91715 13.7981 5.51925 13.8483C9.28238 13.9487 12.9953 14.049 16.7585 14.1494C17.5613 14.1494 18.1634 14.7515 18.1634 15.5041C18.1634 16.2567 17.5613 16.8588 16.7083 16.8588C16.0058 16.909 15.3034 16.8588 14.6009 16.8588C13.7981 16.8588 13.1459 17.21 12.6943 17.9125C11.9918 18.916 12.4434 20.5718 13.5473 21.0233C13.9487 21.1739 14.4002 21.3244 14.8016 21.3244C19.1669 21.3244 23.5823 21.3244 27.9475 21.3244C28.8005 21.3244 29.5029 21.0233 29.9545 20.3209C30.7573 19.217 30.3559 17.9125 29.3524 17.21C28.951 16.909 28.4994 16.8588 28.0478 16.8588C27.3956 16.8588 26.6931 16.909 26.0408 16.8086C25.6394 16.7585 25.1879 16.5578 24.8868 16.3069C24.4854 16.0058 24.3851 15.5041 24.5858 15.0023C24.8366 14.4504 25.238 14.0992 25.8401 14.0992C26.944 14.049 28.098 13.9988 29.2019 13.9988C31.8611 13.9487 34.4703 13.8483 37.1295 13.7981C37.6815 13.7981 37.6814 13.7981 37.6814 14.3501C37.6814 20.5216 37.6814 26.6931 37.6814 32.9148C37.6814 33.9685 37.28 34.8215 36.4271 35.3734ZM41.0934 18.2135C40.7923 18.2135 40.4912 18.2135 40.2404 18.2135C39.9393 18.2135 39.6383 18.2135 39.3372 18.2135C39.0864 18.2135 38.986 18.1132 38.986 17.8623C38.986 17.2602 38.986 16.6581 38.986 16.056C38.986 15.8051 39.0864 15.7048 39.3372 15.7048C39.9393 15.7048 40.5414 15.7048 41.0934 15.7048C41.3442 15.7048 41.4446 15.8051 41.4446 16.056C41.4446 16.6581 41.4446 17.2602 41.4446 17.8121C41.4446 18.1132 41.3442 18.2135 41.0934 18.2135Z" fill="#949698"/>
<path d="M30.1051 32.2626C30.0549 32.4633 29.804 32.6138 29.6033 32.7142C29.503 32.7644 29.3524 32.7644 29.2019 32.7644C23.9335 32.7644 18.7153 32.7644 13.447 32.7644C13.1961 32.7644 12.9452 32.7142 12.7445 32.5637C12.594 32.4633 12.4936 32.1121 12.5438 31.9616C12.594 31.7609 12.8449 31.6103 13.0456 31.51C13.1961 31.4096 13.3968 31.4598 13.5975 31.4598C16.1564 31.4598 18.7655 31.4598 21.3244 31.4598C23.9335 31.4598 26.5928 31.4598 29.2019 31.4598C29.4528 31.4598 29.7037 31.51 29.9044 31.6605C30.0047 31.7609 30.1553 32.0619 30.1051 32.2626Z" fill="#949698"/>
<path d="M9.33262 25.1377C9.33262 25.4388 9.03157 25.79 8.73052 25.79C8.47965 25.79 8.12842 25.489 8.12842 25.1879C8.12842 24.8869 8.42947 24.5356 8.73052 24.5356C8.9814 24.5356 9.28245 24.8869 9.33262 25.1377Z" fill="#949698"/>
<path d="M11.8414 25.1377C11.8414 25.4388 11.5404 25.79 11.2393 25.79C10.9884 25.79 10.6372 25.489 10.6372 25.1879C10.6372 24.8869 10.9383 24.5356 11.2393 24.5356C11.4902 24.5356 11.8414 24.8869 11.8414 25.1377Z" fill="#949698"/>
<path d="M14.3502 25.1377C14.3502 25.4388 14.0492 25.79 13.7481 25.79C13.4972 25.79 13.146 25.489 13.146 25.1879C13.146 24.8869 13.4471 24.5356 13.7481 24.5356C13.999 24.5356 14.3502 24.8869 14.3502 25.1377Z" fill="#949698"/>
<path d="M16.859 25.1377C16.859 25.4388 16.5579 25.79 16.2569 25.79C16.006 25.79 15.6548 25.489 15.6548 25.1879C15.6548 24.8869 15.9558 24.5356 16.2569 24.5356C16.5579 24.5356 16.859 24.8869 16.859 25.1377Z" fill="#949698"/>
<path d="M19.4176 25.1377C19.4176 25.4388 19.1165 25.79 18.8155 25.79C18.5646 25.79 18.2134 25.489 18.2134 25.1879C18.2134 24.8869 18.5144 24.5356 18.8155 24.5356C19.0664 24.5356 19.3674 24.8869 19.4176 25.1377Z" fill="#949698"/>
<path d="M21.9264 25.1377C21.9264 25.4388 21.6253 25.79 21.3243 25.79C21.0734 25.79 20.7222 25.489 20.7222 25.1879C20.7222 24.8869 21.0232 24.5356 21.3243 24.5356C21.5751 24.5356 21.9264 24.8869 21.9264 25.1377Z" fill="#949698"/>
<path d="M24.4352 25.1377C24.4352 25.4388 24.1341 25.79 23.8331 25.79C23.5822 25.79 23.231 25.489 23.231 25.1879C23.231 24.8869 23.532 24.5356 23.8331 24.5356C24.0839 24.5356 24.4352 24.8869 24.4352 25.1377Z" fill="#949698"/>
<path d="M26.9439 25.1377C26.9439 25.4388 26.6429 25.79 26.3418 25.79C26.091 25.79 25.7397 25.489 25.7397 25.1879C25.7397 24.8869 26.0408 24.5356 26.3418 24.5356C26.6429 24.5356 26.9439 24.8869 26.9439 25.1377Z" fill="#949698"/>
<path d="M29.503 25.1377C29.503 25.4388 29.1518 25.79 28.8508 25.79C28.5999 25.79 28.2988 25.4388 28.2988 25.1879C28.2988 24.8869 28.65 24.5356 28.9511 24.5356C29.1518 24.5356 29.503 24.8869 29.503 25.1377Z" fill="#949698"/>
<path d="M34.5206 25.1377C34.5206 25.4388 34.1694 25.79 33.8683 25.79C33.6175 25.79 33.3164 25.4388 33.3164 25.1879C33.3164 24.8869 33.6676 24.5356 33.9687 24.5356C34.2196 24.5356 34.5206 24.8869 34.5206 25.1377Z" fill="#949698"/>
<path d="M10.587 28.2989C10.587 28.5999 10.286 28.9512 9.98492 28.9512C9.73404 28.9512 9.38281 28.6501 9.38281 28.349C9.38281 28.048 9.68387 27.6968 9.98492 27.6968C10.2358 27.6968 10.587 27.9978 10.587 28.2989Z" fill="#949698"/>
<path d="M13.0958 28.2988C13.0958 28.5999 12.7446 28.9511 12.4435 28.9009C12.1927 28.9009 11.8916 28.5497 11.8916 28.2988C11.8916 27.9978 12.2428 27.6465 12.5439 27.6967C12.7948 27.6967 13.0958 28.0479 13.0958 28.2988Z" fill="#949698"/>
<path d="M15.6046 28.2989C15.6046 28.5999 15.2534 28.9512 14.9523 28.9512C14.7014 28.9512 14.4004 28.5999 14.4004 28.349C14.4004 28.048 14.7516 27.6968 15.0527 27.6968C15.3035 27.6968 15.6046 28.048 15.6046 28.2989Z" fill="#949698"/>
<path d="M18.1134 28.2989C18.1134 28.5999 17.8123 28.9512 17.5113 28.9512C17.2604 28.9512 16.9092 28.6501 16.9092 28.349C16.9092 28.048 17.2102 27.6968 17.5113 27.6968C17.8123 27.6968 18.1134 27.9978 18.1134 28.2989Z" fill="#949698"/>
<path d="M32.0118 25.1377C32.0118 25.4387 31.6606 25.79 31.3595 25.7398C31.1087 25.7398 30.8076 25.3886 30.8076 25.1377C30.8076 24.8366 31.1588 24.4854 31.4599 24.5356C31.7108 24.5356 32.0118 24.8868 32.0118 25.1377Z" fill="#949698"/>
<path d="M23.1808 28.2988C23.1808 28.5999 22.8295 28.9511 22.5285 28.9009C22.2776 28.9009 21.9766 28.5497 21.9766 28.2988C21.9766 27.9978 22.3278 27.6465 22.6288 27.6967C22.8797 27.6967 23.1808 28.0479 23.1808 28.2988Z" fill="#949698"/>
<path d="M25.6895 28.2989C25.6895 28.5999 25.3885 28.9512 25.0875 28.9512C24.8366 28.9512 24.4854 28.6501 24.4854 28.349C24.4854 28.048 24.7864 27.6968 25.0875 27.6968C25.3885 27.6968 25.6895 27.9978 25.6895 28.2989Z" fill="#949698"/>
<path d="M28.1983 28.2988C28.1983 28.5999 27.8471 28.9511 27.5461 28.9009C27.2952 28.9009 26.9941 28.5497 26.9941 28.2988C26.9941 27.9978 27.3454 27.6465 27.6464 27.6967C27.8973 27.6967 28.1983 28.0479 28.1983 28.2988Z" fill="#949698"/>
<path d="M30.7574 28.2989C30.7574 28.5999 30.4062 28.9512 30.1052 28.9512C29.8543 28.9512 29.5532 28.5999 29.5532 28.349C29.5532 28.048 29.9044 27.6968 30.2055 27.6968C30.4062 27.6968 30.7574 28.048 30.7574 28.2989Z" fill="#949698"/>
<path d="M33.2662 28.2988C33.2662 28.5999 32.915 28.9511 32.6139 28.9009C32.3631 28.9009 32.062 28.5497 32.062 28.2988C32.062 27.9978 32.4132 27.6465 32.7143 27.6967C32.9652 27.6967 33.2662 28.0479 33.2662 28.2988Z" fill="#949698"/>
<path d="M20.672 28.2989C20.672 28.5999 20.3208 28.9512 20.0197 28.9512C19.7688 28.9512 19.4678 28.5999 19.4678 28.349C19.4678 28.048 19.819 27.6968 20.1201 27.6968C20.3208 27.6968 20.672 28.048 20.672 28.2989Z" fill="#949698"/>
<path d="M18.1134 4.36529C18.1134 4.66634 17.7622 5.01756 17.4611 5.01756C17.2102 5.01756 16.9092 4.66634 16.9092 4.41546C16.9092 4.11441 17.2604 3.76318 17.5615 3.76318C17.8123 3.76318 18.1134 4.11441 18.1134 4.36529Z" fill="#949698"/>
<path d="M20.672 4.36529C20.672 4.66634 20.3208 5.01756 20.0197 5.01756C19.7688 5.01756 19.4678 4.66634 19.4678 4.41546C19.4678 4.11441 19.819 3.76318 20.1201 3.76318C20.3208 3.76318 20.672 4.11441 20.672 4.36529Z" fill="#949698"/>
<path d="M23.1808 4.31499C23.1808 4.61604 22.8797 4.96727 22.5787 4.96727C22.3278 4.96727 21.9766 4.66622 21.9766 4.36517C21.9766 4.06412 22.2776 3.71289 22.5787 3.71289C22.8295 3.76307 23.1808 4.06411 23.1808 4.31499Z" fill="#949698"/>
<path d="M25.6895 4.36529C25.6895 4.66634 25.3383 5.01756 25.0373 5.01756C24.7864 5.01756 24.4854 4.66634 24.4854 4.41546C24.4854 4.11441 24.8366 3.76318 25.1376 3.76318C25.3885 3.76318 25.6895 4.11441 25.6895 4.36529Z" fill="#949698"/>
<path d="M28.1983 4.36529C28.1983 4.66634 27.8471 5.01756 27.5461 5.01756C27.2952 5.01756 26.9941 4.66634 26.9941 4.41546C26.9941 4.11441 27.3454 3.76318 27.6464 3.76318C27.8973 3.76318 28.1983 4.11441 28.1983 4.36529Z" fill="#949698"/>
<path d="M30.7574 4.31499C30.7574 4.61604 30.4564 4.96727 30.1553 4.96727C29.9044 4.96727 29.5532 4.66622 29.5532 4.36517C29.5532 4.06412 29.8543 3.71289 30.1553 3.71289C30.4062 3.76307 30.7072 4.06411 30.7574 4.31499Z" fill="#949698"/>
<path d="M13.0958 7.52642C13.0958 7.82747 12.7446 8.17869 12.4435 8.17869C12.1927 8.17869 11.8916 7.82747 11.8916 7.57659C11.8916 7.27554 12.2428 6.92432 12.5439 6.92432C12.7948 6.92432 13.0958 7.22537 13.0958 7.52642Z" fill="#949698"/>
<path d="M15.6046 7.52642C15.6046 7.82747 15.2534 8.17869 14.9523 8.17869C14.7014 8.17869 14.4004 7.82747 14.4004 7.57659C14.4004 7.27554 14.7516 6.92432 15.0527 6.92432C15.3035 6.92432 15.6046 7.22537 15.6046 7.52642Z" fill="#949698"/>
<path d="M18.1134 7.52635C18.1134 7.8274 17.7622 8.17863 17.4611 8.12846C17.2102 8.12846 16.9092 7.77723 16.9092 7.52635C16.9092 7.2253 17.2604 6.87408 17.5615 6.92425C17.8123 6.92425 18.1134 7.2253 18.1134 7.52635Z" fill="#949698"/>
<path d="M20.672 7.52642C20.672 7.82747 20.3208 8.17869 20.0197 8.17869C19.7688 8.17869 19.4678 7.82747 19.4678 7.57659C19.4678 7.27554 19.819 6.92432 20.1201 6.92432C20.3208 6.92432 20.672 7.22537 20.672 7.52642Z" fill="#949698"/>
<path d="M23.1808 7.52642C23.1808 7.82747 22.8295 8.17869 22.5285 8.17869C22.2776 8.17869 21.9766 7.82747 21.9766 7.57659C21.9766 7.27554 22.3278 6.92432 22.6288 6.92432C22.8797 6.92432 23.1808 7.22537 23.1808 7.52642Z" fill="#949698"/>
<path d="M13.0958 10.6874C13.0958 10.9885 12.6944 11.2895 12.4435 11.2895C12.1927 11.2895 11.8916 10.8881 11.8916 10.6373C11.8916 10.3362 12.293 10.0352 12.5439 10.0352C12.7948 10.0853 13.0958 10.4366 13.0958 10.6874Z" fill="#949698"/>
<path d="M18.1134 10.6373C18.1134 10.9383 17.8123 11.2895 17.5113 11.2895C17.2604 11.2895 16.9092 10.9885 16.9092 10.6874C16.9092 10.3864 17.2102 10.0352 17.5113 10.0352C17.8123 10.0352 18.1134 10.3864 18.1134 10.6373Z" fill="#949698"/>
<path d="M20.672 10.6373C20.672 10.9383 20.3709 11.2895 20.0699 11.2895C19.819 11.2895 19.4678 10.9885 19.4678 10.6874C19.4678 10.3864 19.7688 10.0352 20.0699 10.0352C20.3207 10.0352 20.672 10.3864 20.672 10.6373Z" fill="#949698"/>
<path d="M23.1808 10.6373C23.1808 10.9383 22.8295 11.2895 22.5285 11.2895C22.2776 11.2895 21.9766 10.9383 21.9766 10.6874C21.9766 10.3864 22.3278 10.0352 22.6288 10.0352C22.8797 10.0352 23.1808 10.3864 23.1808 10.6373Z" fill="#949698"/>
<path d="M25.6895 10.6373C25.6895 10.9383 25.3885 11.2895 25.0875 11.2895C24.8366 11.2895 24.4854 10.9885 24.4854 10.6874C24.4854 10.3864 24.7864 10.0352 25.0875 10.0352C25.3383 10.0352 25.6895 10.3864 25.6895 10.6373Z" fill="#949698"/>
<path d="M15.6046 10.6373C15.6046 10.9383 15.2534 11.2895 14.9523 11.2895C14.7014 11.2895 14.4004 10.9383 14.4004 10.6874C14.4004 10.3864 14.7516 10.0352 15.0527 10.0352C15.3035 10.0352 15.6046 10.3864 15.6046 10.6373Z" fill="#949698"/>
<path d="M13.0958 4.36529C13.0958 4.66634 12.7446 5.01756 12.4435 5.01756C12.1927 5.01756 11.8916 4.66634 11.8916 4.41546C11.8916 4.11441 12.2428 3.76318 12.5439 3.76318C12.7948 3.76318 13.0958 4.11441 13.0958 4.36529Z" fill="#949698"/>
<path d="M15.6046 4.31499C15.6046 4.61604 15.3035 4.96727 15.0025 4.96727C14.7516 4.96727 14.4004 4.66622 14.4004 4.36517C14.4004 4.06412 14.7014 3.71289 15.0025 3.71289C15.3035 3.76307 15.6046 4.06411 15.6046 4.31499Z" fill="#949698"/>
</svg>
