<svg width="25" height="25" viewBox="0 0 25 25" fill="none" xmlns="http://www.w3.org/2000/svg">
<path d="M24.5256 7.79801L13.0999 0.180818C12.7099 -0.0591726 12.2937 -0.0613699 11.9001 0.180818L0.474316 7.79801C0.181348 7.99327 0 8.3421 0 8.69083V16.308C0 16.6567 0.181348 17.0055 0.474365 17.2008L11.9001 24.8191C12.2901 25.0591 12.7063 25.0613 13.0999 24.8191L24.5257 17.2008C24.8187 17.0056 25 16.6567 25 16.308V8.69083C25 8.3421 24.8187 7.99327 24.5256 7.79801V7.79801ZM13.5742 3.08253L21.9866 8.69083L18.2338 11.202L13.5742 8.09093V3.08253ZM11.4258 3.08253V8.09093L6.76616 11.202L3.01338 8.69083L11.4258 3.08253ZM2.14844 10.6998L4.84097 12.4994L2.14844 14.2991V10.6998ZM11.4258 21.9163L3.01338 16.308L6.76616 13.7968L11.4258 16.9079V21.9163ZM12.5 15.0385L8.70532 12.4994L12.5 9.96036L16.2947 12.4994L12.5 15.0385ZM13.5742 21.9163V16.9079L18.2338 13.7968L21.9866 16.308L13.5742 21.9163ZM22.8516 14.2991L20.159 12.4994L22.8516 10.6998V14.2991Z" fill="white"/>
</svg>
