<svg id="Capa_1" data-name="Capa 1" xmlns="http://www.w3.org/2000/svg" viewBox="0 0 158.87 37.17"><defs><style>.cls-1{fill:#ff5f5f;}.cls-2{fill:#0d0c22;}.cls-3{fill:#fefefe;}.cls-4{fill:#767682;}.cls-5{fill:#2a293d;}.cls-6{fill:#29283c;}.cls-7{fill:#d3d3d7;}.cls-8{fill:#4c4c5b;}.cls-9{fill:#fedc00;}.cls-10{font-size:12px;fill:#fff;font-family:KristenITC-Regular, Kristen ITC;}</style></defs><title>coffe</title><rect class="cls-1" width="158.87" height="37.17" rx="11.93"/><path class="cls-2" d="M904.36,456.23a8.48,8.48,0,0,0-.28-1.21,1.61,1.61,0,0,0-1.19-1.11l-.13,0a.73.73,0,0,1-.53-.57c-.09-.4-.14-.8-.21-1.2s-.11-.64-.17-1a1.68,1.68,0,0,0-1-1.27,6.59,6.59,0,0,0-1.45-.45,15.25,15.25,0,0,0-2.43-.32,28.81,28.81,0,0,0-3.35-.06,21.41,21.41,0,0,0-3.57.38,5.75,5.75,0,0,0-1.56.53,1.39,1.39,0,0,0-.64.63,1.1,1.1,0,0,0,.38,1.39,3.5,3.5,0,0,0,1.11.51,10.88,10.88,0,0,0,1.87.38,27.9,27.9,0,0,0,4.29.21,28.93,28.93,0,0,0,3.22-.27.77.77,0,0,0,.64-.75.76.76,0,0,0-.6-.74,1.42,1.42,0,0,0-.46,0c-.53.09-1.07.13-1.6.17s-1.35.06-2,.06a25.61,25.61,0,0,1-3.5-.23l-.74-.13c-.07,0-.14,0-.14-.13s.07-.12.15-.13a15,15,0,0,1,2-.27c.75-.07,1.51-.1,2.27-.1a26.08,26.08,0,0,1,3.3.19,13.46,13.46,0,0,1,1.68.32.86.86,0,0,1,.71.74c.13.64.27,1.27.41,1.91a.25.25,0,0,1-.22.32c-.55.09-1.1.14-1.66.19-1,.1-2.11.15-3.17.17-.87,0-1.75,0-2.62-.05-.67,0-1.34-.08-2-.14-.87-.08-1.74-.19-2.6-.35a3.36,3.36,0,0,0-.95-.08,1.81,1.81,0,0,0-1.56,1.32c-.14.5-.22,1-.32,1.51,0,0,0,0,0,0v.53s0,.07,0,.1a1.88,1.88,0,0,0,1.57,1.53c1.05.19,2.11.34,3.16.45s2.25.19,3.38.22c1.3,0,2.6,0,3.9-.05.79-.05,1.58-.11,2.36-.2a.54.54,0,0,1,.6.59l-.36,3.56c-.1.94-.19,1.87-.29,2.81-.12,1.14-.24,2.27-.35,3.41-.1,1-.22,2-.29,3a3.59,3.59,0,0,1-.13.87,1.61,1.61,0,0,1-1.28,1.14,9.77,9.77,0,0,1-2.64.23l-1.84,0a4.77,4.77,0,0,1-1.25-.17,1.92,1.92,0,0,1-1.42-1.56c-.1-.48-.13-1-.19-1.47-.07-.65-.13-1.29-.2-1.93s-.14-1.31-.2-2-.15-1.42-.23-2.13-.15-1.44-.22-2.16-.13-1.27-.2-1.91c0-.3-.06-.6-.1-.9a.8.8,0,0,0-.56-.69.79.79,0,0,0-1,.83c.1.71.15,1.42.23,2.13s.15,1.44.22,2.16.13,1.28.2,1.92l.21,1.95c.06.65.13,1.29.2,1.93s.13,1.31.2,2c0,.34,0,.67.12,1a2.65,2.65,0,0,0,1.44,1.83,4.47,4.47,0,0,0,1.59.46,19.56,19.56,0,0,0,2,.13h.94a.89.89,0,0,1,.23,0h.49a.55.55,0,0,1,.18,0h0a.17.17,0,0,1,.1,0h.21a.25.25,0,0,1,.12,0h0a7.55,7.55,0,0,0,1.64-.24,3.43,3.43,0,0,0,2.08-1.53,3.3,3.3,0,0,0,.44-1.37l.27-2.63c.07-.66.14-1.31.2-2s.17-1.58.25-2.37.15-1.46.22-2.19.17-1.59.25-2.39l.21-2.12a.56.56,0,0,1,.44-.51,2.38,2.38,0,0,0,.86-.3,1.78,1.78,0,0,0,.87-1.43A2.54,2.54,0,0,0,904.36,456.23Zm-1.48.58a.67.67,0,0,1-.47.52,2.88,2.88,0,0,1-.71.14c-.6.09-1.2.16-1.8.23s-1.38.13-2.08.18-1.69.08-2.54.08c-1,0-2.1,0-3.15-.11s-2.11-.18-3.17-.33c-.41,0-.83-.1-1.25-.17a.56.56,0,0,1-.52-.63,3,3,0,0,1,.17-1,.55.55,0,0,1,.61-.42,3.86,3.86,0,0,1,1,.15c.52.12,1,.18,1.58.25,1,.12,2.06.2,3.09.23a36.46,36.46,0,0,0,7.76-.52,4.63,4.63,0,0,1,.65-.1.64.64,0,0,1,.69.41A1.91,1.91,0,0,1,902.88,456.81Z" transform="translate(-867.22 -443.65)"/><path class="cls-3" d="M896.71,476.19h0Z" transform="translate(-867.22 -443.65)"/><path class="cls-3" d="M890.54,463.43c0-.37-.07-.73-.11-1.1,0-.09,0-.1.1-.08a6.65,6.65,0,0,0,2.22.2,8,8,0,0,0,2.15-.53c.6-.23,1.18-.51,1.78-.73a4.54,4.54,0,0,1,1.71-.31,4.47,4.47,0,0,1,1.31.25c.07,0,.07.06.07.12,0,.48-.09,1-.14,1.46s-.11,1.13-.16,1.7l-.18,1.94c0,.55-.11,1.1-.16,1.65l-.18,2-.18,1.89c0,.24,0,.49-.08.73a1.7,1.7,0,0,1-1.61,1.41l-1,0-1,0c-.72,0-1.45,0-2.17-.1a1.66,1.66,0,0,1-1.46-1.4c-.07-.49-.1-1-.15-1.47l-.18-1.87-.18-1.86-.21-2.08Z" transform="translate(-867.22 -443.65)"/><path class="cls-3" d="M894.42,476.2h0Z" transform="translate(-867.22 -443.65)"/><path class="cls-4" d="M894.88,476.21v0h0Z" transform="translate(-867.22 -443.65)"/><path class="cls-5" d="M895.35,476.19c.07,0,.16,0,.23,0h-.23Z" transform="translate(-867.22 -443.65)"/><path class="cls-6" d="M896.07,476.21a.31.31,0,0,1,.19,0h-.19Z" transform="translate(-867.22 -443.65)"/><path class="cls-7" d="M896.71,476.19h-.13S896.67,476.19,896.71,476.19Z" transform="translate(-867.22 -443.65)"/><path class="cls-8" d="M896.26,476.21v0s.08,0,.11,0Z" transform="translate(-867.22 -443.65)"/><path class="cls-9" d="M899.77,461.25c0,.48-.09,1-.14,1.46s-.11,1.13-.16,1.7l-.18,1.94c0,.55-.11,1.1-.16,1.65l-.18,2-.18,1.89c0,.24,0,.49-.08.73a1.7,1.7,0,0,1-1.61,1.41l-1,0-1,0c-.72,0-1.45,0-2.17-.1a1.66,1.66,0,0,1-1.46-1.4c-.07-.49-.1-1-.15-1.47l-.18-1.87-.18-1.86-.21-2.08-.18-1.86c0-.37-.07-.73-.11-1.1,0-.09,0-.1.1-.08a6.65,6.65,0,0,0,2.22.2,8,8,0,0,0,2.15-.53c.6-.23,1.18-.51,1.78-.73a4.54,4.54,0,0,1,1.71-.31,4.47,4.47,0,0,1,1.31.25C899.77,461.15,899.77,461.19,899.77,461.25Z" transform="translate(-867.22 -443.65)"/><text class="cls-10" transform="translate(50.09 21.93)">Buy me a coffee</text></svg>