<svg width="167" height="16" viewBox="0 0 167 16" fill="none" xmlns="http://www.w3.org/2000/svg">
<path d="M1.00001 7C0.447721 7 5.78165e-06 7.44772 5.78165e-06 8C5.78165e-06 8.55228 0.447721 9 1.00001 9V7ZM166.707 8.70711C167.098 8.31658 167.098 7.68342 166.707 7.29289L160.343 0.928932C159.953 0.538408 159.319 0.538408 158.929 0.928932C158.538 1.31946 158.538 1.95262 158.929 2.34315L164.586 8L158.929 13.6569C158.538 14.0474 158.538 14.6805 158.929 15.0711C159.319 15.4616 159.953 15.4616 160.343 15.0711L166.707 8.70711ZM1.00001 9L166 9V7L1.00001 7V9Z" fill="#FF0451"/>
</svg>
