<svg width="45" height="41" viewBox="0 0 45 41" fill="none" xmlns="http://www.w3.org/2000/svg">
<path d="M44.9849 11.5676C44.9849 10.4483 44.8185 9.40462 44.2891 8.42143C43.7445 7.42311 42.9731 6.66681 41.9748 6.12227C40.9916 5.59286 39.9328 5.41134 38.8286 5.4416C36.9983 5.47185 35.1681 5.4416 33.3378 5.45672C32.884 5.45672 32.4908 5.4416 32.3092 4.91218C32.2639 4.77605 32.1277 4.62479 31.9916 4.57941C31.2504 4.30714 31.3563 3.7021 31.3714 3.12731C31.3714 2.99118 31.3714 2.83992 31.3714 2.70378C31.326 1.2063 30.1613 0.0113445 28.6487 0.0113445C24.5496 -0.00378151 20.4504 -0.00378151 16.3513 0.0113445C14.8387 0.0113445 13.6739 1.19118 13.6437 2.70378C13.6286 3.06681 13.6891 3.44496 13.6134 3.80798C13.5681 4.01975 13.4017 4.23151 13.2504 4.41303C13.084 4.60966 12.7815 4.73067 12.6756 4.95756C12.479 5.39622 12.1613 5.45672 11.7529 5.45672C9.65042 5.45672 7.5479 5.4416 5.44538 5.47185C4.0084 5.48697 2.76806 6.07689 1.75462 7.06008C0.55966 8.22479 0 9.64664 0 11.3256C0.0151261 20.9458 0.0151224 30.566 0.0151224 40.1861C0.0151224 40.9122 0.015126 40.9122 0.756303 40.9122H44.2588C45 40.9122 45 40.9122 45 40.1861C44.9697 30.6416 44.9697 21.1122 44.9849 11.5676ZM15.2773 2.00798C15.7462 1.31219 16.8353 1.16092 17.4706 1.69034C17.7731 1.94748 18.1059 2.08361 18.5143 2.08361C21.1613 2.06849 23.8084 2.06849 26.4706 2.08361C26.8941 2.08361 27.242 1.93235 27.5445 1.66008C28.0891 1.17605 29.2235 1.32731 29.6622 1.93235C30.1613 2.61303 29.9647 3.36933 29.9042 4.1105C29.9042 4.20126 29.7529 4.29202 29.6622 4.38277C29.405 4.63992 29.1782 4.91218 28.8908 5.13908C28.679 5.29034 28.4067 5.4416 28.1647 5.4416C26.274 5.47185 24.3681 5.45672 22.4622 5.45672C20.6017 5.45672 18.7412 5.45672 16.8958 5.45672C16.4874 5.45672 16.1697 5.41134 15.9731 4.95756C15.8823 4.73067 15.595 4.59454 15.3983 4.41303C15.2924 4.30714 15.0958 4.21639 15.0807 4.09538C15.0202 3.39958 14.8235 2.6584 15.2773 2.00798ZM35.0471 39.5055C34.9109 39.5055 34.7597 39.5055 34.6235 39.5055H10.195C9.55966 39.5055 9.55966 39.5055 9.55966 38.855C9.55966 38.7189 9.57479 38.5677 9.55966 38.4315C9.36302 37.0853 10.0891 36.1929 11.0571 35.4517C12.2521 34.5441 13.5832 33.8937 14.9597 33.3643C15.9126 32.9861 16.9109 32.6836 17.8639 32.3206C18.2571 32.1693 18.4538 32.3357 18.6353 32.6231C19.6034 34.0752 20.9496 34.8466 22.7042 34.7559C24.2017 34.6803 25.3664 33.9542 26.2134 32.7441C26.4706 32.3811 26.6824 32.1542 27.1664 32.3508C28.3008 32.8046 29.4807 33.1676 30.6151 33.6517C31.5832 34.0752 32.5059 34.5895 33.4134 35.134C34.1546 35.5727 34.805 36.1626 35.1983 36.9643C35.274 37.1458 35.3496 37.3424 35.3647 37.524C35.395 38.0685 35.3798 38.5979 35.3798 39.1424C35.4101 39.3845 35.3042 39.5055 35.0471 39.5055ZM17.0471 19.2063C17.0017 18.5559 17.2437 17.9811 17.5462 17.4366C17.7731 17.0282 17.6975 16.7105 17.3193 16.4534C17.0168 16.2567 16.5933 16.3626 16.3664 16.7256C16.2605 16.892 16.1395 17.0584 16.0639 17.2399C15.9882 17.4063 15.9429 17.6029 15.8824 17.7845C15.8218 17.7845 15.7765 17.7845 15.716 17.7845C15.6706 17.5727 15.6252 17.3609 15.595 17.1492C15.4891 16.3777 15.4286 15.5912 15.0202 14.9105C14.8992 14.6987 14.763 14.5021 14.6118 14.3206C14.3849 14.0634 14.3546 13.8668 14.6118 13.5945C15.7462 12.3542 17.0319 11.3105 18.5294 10.5239C19.7849 9.8584 21.1008 9.45 22.5227 9.63151C23.763 9.7979 24.8672 10.2517 25.563 11.4013C25.6538 11.5374 25.9109 11.6282 26.0924 11.6433C27.1513 11.7492 28.0588 12.1424 28.7244 12.9895C29.2992 13.7155 29.4958 14.5777 29.5563 15.4853C29.5866 15.8786 29.5563 16.2718 29.5563 16.6651C29.4958 16.6803 29.4504 16.6803 29.3899 16.6954C29.1328 16.1357 28.9059 15.5761 28.6336 15.0315C28.1193 13.9878 27.3176 13.2315 26.3042 12.7021C26.1529 12.6265 25.8353 12.7172 25.6538 12.8231C25.2 13.0803 24.7916 13.413 24.3529 13.6702C23.9294 13.9273 23.7328 14.3206 23.8992 14.6836C24.0655 15.0315 24.5496 15.1525 24.9882 14.9559C25.2605 14.8197 25.5479 14.6685 25.7899 14.5021C26.0773 14.3055 26.3042 14.3508 26.5613 14.5475C27.3933 15.1828 27.7714 16.0903 27.8471 17.0887C27.9378 18.1324 27.8773 19.1912 27.9076 20.2349C27.9076 20.4315 27.9983 20.6282 28.0588 20.8248C28.2403 20.7492 28.4067 20.6887 28.5882 20.613C28.7244 20.5525 28.8605 20.4618 29.0118 20.4315C29.3748 20.3559 29.5412 20.5525 29.4353 20.9004C29.3445 21.2332 29.2538 21.566 29.2387 21.8987C29.2084 22.3223 29.0118 22.4887 28.5882 22.5038C27.9227 22.5038 27.9227 22.5189 27.9076 23.1845C27.8622 24.7122 27.3479 26.0282 26.1681 27.0416C25.4269 27.6769 24.5647 28.0248 23.6269 28.2668C23.4454 28.3122 23.279 28.4483 23.0824 28.4786C22.7345 28.5391 22.3563 28.645 22.0235 28.5542C21.4487 28.4181 20.9193 28.1609 20.3597 27.9492C19.1798 27.4954 18.2571 26.7693 17.6521 25.6349C17.2286 24.8181 17.0017 23.9408 17.0319 23.0181C17.0471 22.6248 16.9109 22.4584 16.5025 22.4584C15.8067 22.4735 15.7765 22.413 15.6857 21.7324C15.6403 21.4601 15.5647 21.1878 15.5042 20.9004C15.4891 20.7794 15.4437 20.5676 15.5042 20.5223C15.6252 20.4466 15.8218 20.4164 15.9731 20.4315C16.1092 20.4466 16.2454 20.5676 16.3966 20.6282C16.563 20.6887 16.7294 20.734 16.8958 20.7945C16.9412 20.6282 17.0168 20.4618 17.0319 20.2803C17.0622 19.9172 17.0773 19.5693 17.0471 19.2063ZM24.7765 32.366C24.2168 32.8954 23.6118 33.2584 22.8555 33.3492C21.6756 33.4702 20.7076 33.0769 20.0118 32.1088C19.8908 31.9424 19.8 31.7004 19.8 31.4887C19.7697 30.9139 19.7849 30.324 19.7849 29.7492C19.7849 29.3256 19.8908 29.25 20.2689 29.3861C20.7076 29.5525 21.116 29.7643 21.5546 29.9004C22.2353 30.1273 22.9008 30.1424 23.5664 29.8097C23.9748 29.613 24.3983 29.4769 24.837 29.3408C25.079 29.2651 25.1849 29.4013 25.1849 29.6282C25.1849 29.9761 25.1849 30.3088 25.1849 30.6416C25.1849 30.7021 25.1849 30.7626 25.1849 30.808C25.1849 31.3828 25.2454 31.9273 24.7765 32.366ZM43.5781 13.8063C43.5781 17.5122 43.5781 21.2181 43.5781 24.9088V38.8702C43.5781 39.4903 43.5782 39.4903 42.958 39.4903C42.2319 39.4903 41.5059 39.4752 40.7798 39.4903C40.4622 39.4903 40.2202 39.4147 40.0084 39.1576C39.6303 38.7038 39.3429 38.7038 38.9798 39.1727C38.7681 39.4298 38.5563 39.5055 38.2538 39.4903C37.921 39.4752 37.5731 39.4752 37.2252 39.4903C36.8924 39.5055 36.7714 39.3542 36.7866 39.0366C36.8017 38.7189 36.7563 38.4013 36.7866 38.0987C36.9227 36.692 36.2571 35.6483 35.274 34.7559C34.2605 33.8483 33.1109 33.1676 31.8706 32.6382C30.5849 32.0937 29.284 31.5794 27.9832 31.0651C27.6353 30.929 27.242 30.8685 26.8941 30.7172C26.7429 30.6416 26.6672 30.4147 26.5613 30.2483C26.5462 30.2181 26.5613 30.1576 26.5613 30.1273C26.4555 29.1139 26.6067 28.2517 27.4992 27.5105C28.3613 26.7996 28.8303 25.7256 29.0118 24.5912C29.0723 24.1979 29.2235 23.9256 29.6622 23.7441C30.3126 23.487 30.4487 22.8366 30.6 22.2164C30.6908 21.8231 30.8269 21.4147 30.8571 21.0214C30.8874 20.6433 30.8118 20.25 30.7664 19.8718C30.7361 19.5996 30.6151 19.3122 30.6454 19.055C30.7059 18.2382 30.842 17.4214 30.9176 16.6046C31.0538 15.2887 30.8874 14.0181 30.2824 12.8382C29.6924 11.6584 28.7546 10.8567 27.4538 10.5088C26.879 10.3576 26.3496 10.1912 25.926 9.69202C25.3815 9.0416 24.595 8.6937 23.763 8.43655C23.0067 8.19454 22.2655 8.13403 21.4941 8.16429C20.1025 8.19454 18.8168 8.64832 17.6218 9.31387C15.5647 10.4786 13.8252 12.0214 12.3882 13.8971C12.0555 14.3357 12.116 14.5324 12.6303 14.6685C13.3109 14.85 13.8101 15.3038 13.9311 15.9845C14.0975 17.1038 14.1731 18.2382 14.279 19.3727C14.2941 19.524 14.2487 19.6903 14.1882 19.8265C13.9311 20.3105 13.9765 20.7945 14.1429 21.3088C14.3395 21.8685 14.3849 22.4735 14.5966 23.0181C14.7176 23.3206 14.9899 23.6534 15.2773 23.7744C15.7008 23.9408 15.8521 24.213 15.8975 24.5912C16.0336 25.529 16.442 26.3458 17.0017 27.087C17.3345 27.5105 17.7429 27.8584 18.0908 28.2668C18.2118 28.4029 18.3176 28.5996 18.3328 28.766C18.363 29.2803 18.3782 29.7945 18.3328 30.2937C18.3176 30.4601 18.1513 30.687 18 30.7475C17.516 30.9592 17.0017 31.1256 16.4874 31.2769C14.7479 31.8214 13.0689 32.5324 11.4807 33.4399C10.4067 34.0601 9.4084 34.771 8.7126 35.8298C8.3647 36.3592 8.10756 36.9189 8.13781 37.5693C8.15294 38.0836 8.12269 38.5979 8.13781 39.0971C8.13781 39.3845 8.0168 39.5055 7.72941 39.5055C7.42689 39.4903 7.12437 39.4903 6.83697 39.5055C6.44369 39.5357 6.14118 39.4298 5.88403 39.1122C5.58151 38.734 5.27899 38.734 4.97647 39.1273C4.73445 39.4298 4.46218 39.5206 4.09916 39.5055C3.32773 39.4752 2.57143 39.4903 1.8 39.5055C1.49748 39.5055 1.34622 39.3996 1.36134 39.0819C1.37647 39.0063 1.36134 38.9156 1.36134 38.8248C1.36134 29.7492 1.36134 20.6584 1.36134 11.5828C1.36134 10.5996 1.52773 9.66177 2.07227 8.82983C2.63193 7.95252 3.40336 7.31723 4.43193 7.09034C4.61344 7.04496 4.88571 7.16597 5.02185 7.3021C5.33949 7.5895 5.64201 7.55924 5.85378 7.25672C6.12605 6.87857 6.47395 6.83319 6.88235 6.83319C17.2739 6.84832 27.6504 6.84832 38.042 6.83319C38.4655 6.83319 38.8134 6.8937 39.0706 7.27185C39.2672 7.55924 39.5849 7.5895 39.7966 7.36261C40.2202 6.92395 40.6588 7.04496 41.0824 7.25672C42.5496 8.01303 43.4118 9.22311 43.5328 10.8718C43.6235 11.855 43.5781 12.8382 43.5781 13.8063Z" fill="#FF0451"/>
<path d="M6.11093 9.57077C6.08068 9.90355 5.70253 10.2363 5.38488 10.2061C5.11261 10.1758 4.79496 9.79766 4.81009 9.5254C4.84034 9.19262 5.21849 8.85985 5.53614 8.8901C5.80841 8.92035 6.12606 9.2985 6.11093 9.57077Z" fill="#FF0451"/>
<path d="M40.1598 9.57077C40.1295 9.90355 39.7514 10.2363 39.4337 10.2061C39.1614 10.1758 38.8438 9.79766 38.8589 9.5254C38.8892 9.19262 39.2673 8.85985 39.585 8.8901C39.8572 8.92035 40.19 9.2985 40.1598 9.57077Z" fill="#FF0451"/>
<path d="M6.11089 12.2632C6.11089 12.596 5.74786 12.9439 5.41509 12.9439C5.14282 12.9439 4.79492 12.5809 4.79492 12.2935C4.79492 11.9607 5.15795 11.6128 5.49072 11.6128C5.77812 11.6128 6.11089 11.9758 6.11089 12.2632Z" fill="#FF0451"/>
<path d="M40.1597 12.2632C40.1597 12.596 39.7967 12.9439 39.4639 12.9439C39.1916 12.9439 38.8438 12.5809 38.8438 12.2935C38.8438 11.9607 39.2068 11.6128 39.5395 11.6128C39.8269 11.6128 40.1597 11.9758 40.1597 12.2632Z" fill="#FF0451"/>
<path d="M6.11089 14.9864C6.11089 15.3191 5.74786 15.667 5.41509 15.667C5.14282 15.667 4.79492 15.304 4.81005 15.0166C4.81005 14.6838 5.17307 14.3359 5.50585 14.3359C5.77812 14.3359 6.11089 14.699 6.11089 14.9864Z" fill="#FF0451"/>
<path d="M40.1597 14.9864C40.1597 15.3191 39.7967 15.667 39.4639 15.667C39.1916 15.667 38.8438 15.304 38.8438 15.0166C38.8438 14.6838 39.2068 14.3359 39.5395 14.3359C39.8269 14.3359 40.1597 14.699 40.1597 14.9864Z" fill="#FF0451"/>
<path d="M6.1109 17.709C6.1109 18.0418 5.74787 18.3897 5.43023 18.3897C5.15796 18.3897 4.81006 18.0267 4.81006 17.7393C4.81006 17.4065 5.17308 17.0586 5.49073 17.0586C5.763 17.0586 6.1109 17.4216 6.1109 17.709Z" fill="#FF0451"/>
<path d="M40.1597 17.6939C40.1748 18.0267 39.8269 18.3897 39.4942 18.3897C39.2219 18.3897 38.8589 18.0418 38.8589 17.7695C38.8437 17.4367 39.1917 17.0737 39.5244 17.0737C39.7967 17.0586 40.1597 17.4065 40.1597 17.6939Z" fill="#FF0451"/>
<path d="M6.11089 20.4165C6.12601 20.7493 5.77812 21.1123 5.44534 21.1123C5.17307 21.1123 4.81005 20.7644 4.81005 20.4922C4.79492 20.1594 5.14282 19.7964 5.47559 19.7964C5.74786 19.7812 6.11089 20.1291 6.11089 20.4165Z" fill="#FF0451"/>
<path d="M40.1597 20.4165C40.1748 20.7493 39.8269 21.1123 39.4942 21.1123C39.2219 21.1123 38.8589 20.7644 38.8589 20.4922C38.8437 20.1594 39.1917 19.7964 39.5244 19.7964C39.7967 19.7812 40.1597 20.1291 40.1597 20.4165Z" fill="#FF0451"/>
<path d="M6.11093 23.1997C6.08068 23.5325 5.70253 23.8652 5.38488 23.835C5.11261 23.8047 4.79496 23.4266 4.81009 23.1543C4.84034 22.8215 5.21849 22.4888 5.53614 22.519C5.80841 22.5341 6.12606 22.9274 6.11093 23.1997Z" fill="#FF0451"/>
<path d="M40.1597 23.1392C40.1748 23.472 39.8269 23.835 39.4942 23.835C39.2219 23.835 38.8589 23.4871 38.8589 23.1997C38.8437 22.8669 39.1917 22.5039 39.5244 22.5039C39.7967 22.5039 40.1597 22.8518 40.1597 23.1392Z" fill="#FF0451"/>
<path d="M6.11089 25.8619C6.12601 26.1946 5.77812 26.5577 5.44534 26.5577C5.17307 26.5577 4.81005 26.2249 4.81005 25.9375C4.79492 25.6047 5.14282 25.2417 5.47559 25.2417C5.74786 25.2266 6.09576 25.5745 6.11089 25.8619Z" fill="#FF0451"/>
<path d="M40.1597 25.8921C40.1597 26.2249 39.7967 26.5728 39.4639 26.5728C39.1916 26.5728 38.8438 26.2098 38.8438 25.9224C38.8438 25.5896 39.2068 25.2417 39.5395 25.2417C39.8269 25.2417 40.1597 25.6047 40.1597 25.8921Z" fill="#FF0451"/>
<path d="M6.11089 28.5845C6.12601 28.9173 5.77812 29.2803 5.44534 29.2803C5.17307 29.2803 4.81005 28.9324 4.81005 28.645C4.79492 28.3122 5.14282 27.9492 5.47559 27.9492C5.74786 27.9492 6.11089 28.2971 6.11089 28.5845Z" fill="#FF0451"/>
<path d="M40.1597 28.5996C40.1597 28.9324 39.7967 29.2803 39.4639 29.2803C39.1916 29.2803 38.8438 28.9173 38.8438 28.6299C38.8438 28.2971 39.2068 27.9492 39.5395 27.9492C39.8269 27.9643 40.1597 28.3274 40.1597 28.5996Z" fill="#FF0451"/>
<path d="M6.11089 31.3072C6.12601 31.64 5.77812 32.003 5.44534 32.003C5.17307 32.003 4.82517 31.6551 4.81005 31.3828C4.79492 31.05 5.14282 30.687 5.47559 30.687C5.74786 30.687 6.11089 31.0349 6.11089 31.3072Z" fill="#FF0451"/>
<path d="M40.1597 31.3072C40.1748 31.64 39.8269 32.003 39.4942 32.003C39.2219 32.003 38.8589 31.6551 38.8589 31.3828C38.8437 31.05 39.1917 30.687 39.5244 30.687C39.7967 30.687 40.1597 31.0198 40.1597 31.3072Z" fill="#FF0451"/>
<path d="M6.11089 34.0601C6.11089 34.3929 5.74786 34.7408 5.41509 34.7408C5.14282 34.7408 4.79492 34.3777 4.79492 34.0903C4.79492 33.7576 5.15795 33.4097 5.49072 33.4097C5.77812 33.4097 6.11089 33.7727 6.11089 34.0601Z" fill="#FF0451"/>
<path d="M40.1597 34.0601C40.1597 34.3929 39.7967 34.7408 39.4639 34.7408C39.1916 34.7408 38.8438 34.3777 38.8438 34.0903C38.8438 33.7576 39.2068 33.4097 39.5395 33.4097C39.8269 33.4097 40.1597 33.7727 40.1597 34.0601Z" fill="#FF0451"/>
<path d="M6.11089 36.7525C6.12601 37.0853 5.77812 37.4483 5.44534 37.4483C5.17307 37.4483 4.81005 37.1155 4.81005 36.8281C4.79492 36.4954 5.14282 36.1323 5.47559 36.1323C5.74786 36.1323 6.09576 36.4802 6.11089 36.7525Z" fill="#FF0451"/>
<path d="M40.1597 36.7827C40.1597 37.1155 39.7967 37.4634 39.4639 37.4634C39.1916 37.4634 38.8438 37.1004 38.8438 36.813C38.8438 36.4802 39.2068 36.1323 39.5395 36.1323C39.8269 36.1323 40.1597 36.4953 40.1597 36.7827Z" fill="#FF0451"/>
<path d="M22.4922 14.9712C22.4922 15.304 22.1746 15.6368 21.8418 15.6519C21.5695 15.667 21.2217 15.304 21.2065 15.0166C21.1914 14.6838 21.5393 14.3208 21.8721 14.3208C22.1746 14.3208 22.4922 14.6536 22.4922 14.9712Z" fill="#FF0451"/>
<path d="M19.7696 15.3946C19.7696 15.803 19.5276 16.0298 19.1495 16.0298C18.8621 16.0298 18.5142 15.6971 18.5142 15.4097C18.5142 15.1374 18.9074 14.7441 19.1797 14.729C19.4369 14.729 19.7696 15.1072 19.7696 15.3946Z" fill="#FF0451"/>
</svg>
