<svg width="40" height="45" viewBox="0 0 40 45" fill="none" xmlns="http://www.w3.org/2000/svg">
<path d="M28.199 23.7745C27.9507 23.7434 27.6714 23.7434 27.4231 23.7745C27.2679 23.8055 27.0507 23.8676 26.9265 23.9917C25.685 25.3884 24.4436 26.785 23.2642 28.2127C22.3641 29.33 21.7123 30.5715 21.7744 32.0613C21.8054 32.4958 21.6192 32.62 21.2157 32.62C17.5223 32.62 13.829 32.62 10.1356 32.62C9.70106 32.62 9.54588 32.4648 9.57691 32.0613C9.63899 31.2233 9.39069 30.4474 9.01825 29.7025C8.42855 28.4921 7.52848 27.5299 6.62841 26.5367C5.13865 24.8918 3.64888 23.2779 2.6557 21.2605C2.03496 19.9569 1.66252 18.6223 1.50734 17.2257C1.29008 15.3635 1.50734 13.5323 2.00392 11.7322C2.46948 10.1493 3.18332 8.69055 4.14547 7.35596C5.9456 4.87301 8.33544 3.13495 11.2219 2.17281C12.7737 1.64518 14.4187 1.33481 16.0636 1.45896C17.0258 1.52103 17.9879 1.70725 18.95 1.8314C19.1673 1.86244 19.4156 1.80036 19.6329 1.67622C19.9122 1.52103 20.1915 1.27274 20.4398 1.08652C20.4088 1.02444 20.3467 0.96237 20.3157 0.869259C20.2226 0.807185 20.1294 0.745112 20.0363 0.714075C19.4466 0.558891 18.8569 0.434743 18.2672 0.279559C16.8085 -0.0618468 15.3187 -0.030808 13.829 0.155413C12.0599 0.372671 10.3528 0.838222 8.73892 1.67622C7.65263 2.23488 6.62841 2.85562 5.69731 3.66258C3.52473 5.49375 1.91081 7.7284 0.948672 10.4596C0.514156 11.6701 0.203788 12.9116 0.0796402 14.153C-0.168655 16.7912 0.141714 19.3672 1.32111 21.7881C1.94185 23.0606 2.68674 24.24 3.61784 25.3263C4.73517 26.6298 5.91457 27.9334 7.03189 29.268C7.80781 30.1991 8.21129 31.2543 8.21129 32.4958C8.18026 34.6063 8.24233 36.6858 8.18026 38.7963C8.14922 40.6585 9.79417 42.3034 11.6253 42.2724C12.3082 42.2414 12.3082 42.3034 12.5875 42.9552C13.053 44.0725 13.9531 44.7243 15.1015 44.9416C16.7154 45.252 18.3293 44.2898 18.8569 42.8311C19.0121 42.4276 19.2294 42.2414 19.6639 42.2724C20.3467 42.3345 20.9985 42.1172 21.5571 41.7448C22.6745 41.0309 23.2021 39.9757 23.2021 38.6411C23.1711 36.4996 23.2021 34.327 23.2021 32.1854C23.2021 31.2233 23.5125 30.3853 24.1022 29.6404C24.9402 28.5852 25.8402 27.592 26.7093 26.5988C27.299 25.885 27.9197 25.1711 28.5094 24.4573C28.6025 24.3642 28.6025 24.1779 28.6646 24.0538C28.4784 23.8676 28.3542 23.7745 28.199 23.7745ZM17.3051 42.6449C16.8395 43.2656 15.6912 43.8243 14.8842 43.2656C14.6049 43.0794 14.3566 42.8932 14.1083 42.6759C14.0152 42.5828 13.9531 42.3966 13.9841 42.3035C14.0152 42.2103 14.2014 42.1483 14.3256 42.1483C14.7911 42.1172 15.2256 42.1483 15.6912 42.1483C16.1567 42.1483 16.5912 42.1483 17.0568 42.1483C17.3982 42.1793 17.4913 42.3655 17.3051 42.6449ZM21.7434 37.8031C21.7123 37.9273 21.4951 38.0514 21.3399 38.0514C20.4708 38.0824 19.5708 38.0514 18.7017 38.0514C17.212 38.0514 15.6912 38.0514 14.2014 38.0514C13.6427 38.0514 13.6117 38.0824 13.6117 38.6721C13.6117 38.7652 13.6117 38.8584 13.6117 38.9204C13.5807 39.3239 13.7669 39.4481 14.1704 39.4481C16.3429 39.4481 18.5466 39.4481 20.7191 39.4481C20.8433 39.4481 20.9674 39.417 21.0916 39.4481C21.2157 39.4791 21.402 39.5101 21.433 39.6032C21.464 39.6964 21.402 39.8826 21.3088 39.9757C20.9054 40.4412 20.4088 40.7516 19.788 40.7516C19.0432 40.7516 18.3293 40.7516 17.5844 40.7516C15.6291 40.7516 13.6738 40.7516 11.7185 40.7516C11.0667 40.7516 10.5391 40.5033 10.1045 40.0378C9.98039 39.9136 9.94936 39.7274 9.88728 39.5722C10.0425 39.5101 10.1977 39.4481 10.3528 39.417C10.8184 39.386 11.315 39.386 11.8116 39.417C12.184 39.417 12.3082 39.2929 12.3082 38.9204C12.3082 38.0204 12.3392 38.0204 11.4081 38.0204C10.9115 38.0204 10.4459 38.0204 9.94936 38.0204C9.67003 38.0204 9.57691 37.9273 9.54588 37.6479C9.4838 36.7168 9.4838 36.6858 10.4149 36.6858C10.8805 36.6858 11.346 36.6858 11.8116 36.6858C12.1219 36.6858 12.2461 36.5616 12.2461 36.2513C12.2771 35.2891 12.3082 35.2891 11.346 35.2891C10.8805 35.2891 10.3839 35.2891 9.88728 35.2891C9.63899 35.2891 9.54588 35.196 9.51484 34.9477C9.45277 33.9856 9.45277 33.9856 10.4149 33.9856C12.153 33.9856 13.891 33.9856 15.6291 33.9856C17.4603 33.9856 19.2914 33.9856 21.1226 33.9856C21.7123 33.9856 21.7123 33.9856 21.7123 34.5753C21.7123 34.6994 21.7123 34.8236 21.7123 34.9477C21.7123 35.196 21.5882 35.2891 21.3399 35.2891C20.9674 35.2891 20.564 35.2891 20.1915 35.2891H14.3256C13.6427 35.2891 13.6427 35.2891 13.6427 36.003C13.6427 36.065 13.6427 36.1271 13.6427 36.1582C13.6117 36.5616 13.7979 36.6858 14.1704 36.6547C16.3429 36.6547 18.5155 36.6547 20.6571 36.6547H20.9674C21.7744 36.7168 21.9917 36.9651 21.7434 37.8031Z" fill="white" fill-opacity="0.52"/>
<path d="M39.4962 9.62142C39.4962 9.34209 39.3721 9.1869 39.1238 9.09379C38.5651 8.87654 37.9754 8.69032 37.4478 8.41098C37.1995 8.28684 37.0133 8.00751 36.827 7.75921C36.7029 7.57299 36.6098 7.35573 36.5787 7.13847C36.5477 6.89018 36.5167 6.61085 36.6098 6.36255C36.827 5.77285 37.1374 5.21419 37.3547 4.62449C37.4167 4.4693 37.3547 4.22101 37.2305 4.09686C36.6408 3.47613 36.0201 2.85539 35.3993 2.26569C35.2752 2.17258 35.0579 2.1105 34.9027 2.14154C34.5613 2.23465 34.2199 2.38984 33.8785 2.57606C32.8854 3.07265 31.8922 3.01057 31.2404 2.3588C31.1473 2.26569 31.0852 2.17258 31.0231 2.04843C30.7748 1.48977 30.5576 0.931104 30.3403 0.372441C30.2472 0.0931096 30.092 0 29.8127 0C28.9747 0 28.1367 0 27.2987 0C27.0504 0 26.8952 0.0931101 26.8021 0.341405C26.5849 0.900068 26.3987 1.48977 26.1193 2.01739C25.9952 2.26569 25.6848 2.48295 25.4365 2.66917C25.2813 2.79332 25.0951 2.85539 24.8778 2.88643C24.5985 2.91746 24.2881 2.97954 24.0399 2.88643C23.4502 2.66917 22.9225 2.38984 22.3328 2.17258C22.1776 2.11051 21.8983 2.17258 21.8052 2.26569C21.1534 2.85539 20.5327 3.47613 19.943 4.1279C19.8499 4.25205 19.7878 4.50034 19.8499 4.65553C19.943 4.99693 20.1292 5.33834 20.2844 5.6487C20.7499 6.57981 20.6879 7.60403 20.0671 8.19373C19.974 8.28684 19.8499 8.37995 19.7257 8.44202C19.1671 8.69032 18.5774 8.87654 18.0187 9.15587C17.8635 9.21794 17.7083 9.4352 17.7083 9.55935C17.6773 10.4284 17.6773 11.3284 17.7083 12.1975C17.7083 12.3527 17.8325 12.5389 17.9877 12.601C18.4532 12.8493 18.9188 13.0975 19.4154 13.1907C20.3775 13.4079 20.4085 14.2459 20.7189 14.8977C20.7499 14.9908 20.7189 15.146 20.6568 15.2701C20.4085 15.8598 20.1602 16.4495 19.8809 17.0082C19.7568 17.2565 19.7878 17.4737 20.0051 17.691C20.5948 18.2497 21.1845 18.8394 21.7431 19.4291C21.9604 19.6463 22.1776 19.6774 22.4259 19.5532C22.7673 19.398 23.1087 19.2428 23.4812 19.0877C23.8226 18.9325 24.164 18.8083 24.5364 18.6842C24.971 18.9014 25.4365 19.0877 25.84 19.3049C25.9641 19.367 26.0883 19.5532 26.1504 19.7084C26.3987 20.2671 26.5849 20.8568 26.8642 21.4154C26.9263 21.5706 27.1746 21.7258 27.3298 21.7258C28.1678 21.7568 29.0368 21.7568 29.8748 21.7258C30.03 21.7258 30.2783 21.5706 30.3403 21.4154C30.5886 20.8568 30.7748 20.236 31.0542 19.7084C31.1783 19.4601 31.4887 19.2739 31.737 19.0877C31.8922 18.9635 32.0784 18.9014 32.2957 18.8704C32.5439 18.8394 32.8543 18.7773 33.1026 18.8704C33.6923 19.0877 34.251 19.367 34.8717 19.6153C35.0269 19.6774 35.2752 19.6153 35.3993 19.5222C36.0511 18.9325 36.6718 18.3117 37.2615 17.66C37.3547 17.5669 37.3857 17.3186 37.3547 17.1634C37.2615 16.822 37.1064 16.5116 36.9512 16.2012C36.4236 15.177 36.3925 14.8356 36.9201 13.8735C37.0443 13.6562 37.2615 13.47 37.5098 13.3458C38.0685 13.0975 38.6272 12.8803 39.1858 12.663C39.4341 12.5699 39.5272 12.4147 39.5272 12.1664C39.4652 11.2974 39.4652 10.4594 39.4962 9.62142ZM37.7581 11.6699C37.3236 11.8871 36.8891 12.0423 36.4236 12.1975C36.0511 12.3216 35.8339 12.5389 35.7407 12.9113C35.5856 13.3769 35.3993 13.8424 35.1821 14.2769C34.9959 14.6494 34.9338 15.0218 35.089 15.4253C35.2442 15.7978 35.3993 16.1702 35.5856 16.5426C35.7407 16.884 35.8028 17.1634 35.4614 17.4117C35.3062 17.5358 35.2131 17.722 35.0579 17.7841C34.9027 17.8772 34.6545 17.9393 34.4993 17.9083C34.1268 17.7841 33.7854 17.5979 33.413 17.4427C32.9164 17.1944 32.4508 17.1944 31.9542 17.4737C31.5508 17.691 31.0852 17.7841 30.6817 18.0014C30.4334 18.1255 30.1541 18.3117 29.9989 18.56C29.7817 18.9014 29.6886 19.3049 29.5644 19.7084C29.3472 20.2981 28.6333 20.6085 28.0746 20.3291C27.9195 20.236 27.7953 20.0498 27.7332 19.8636C27.547 19.4911 27.4539 19.0566 27.2677 18.6842C27.1435 18.4359 26.9573 18.1876 26.7401 18.0634C26.1814 17.7841 25.5917 17.5358 24.971 17.3496C24.6916 17.2565 24.3192 17.2875 24.0399 17.3496C23.6364 17.4427 23.295 17.66 22.9225 17.8462C22.6122 18.0014 22.3328 18.0634 22.0845 17.722C21.9604 17.5669 21.7742 17.4737 21.7121 17.3186C21.619 17.1323 21.5259 16.884 21.5879 16.7289C21.6811 16.3564 21.8673 16.015 22.0535 15.6736C22.3018 15.177 22.3328 14.7115 22.0225 14.1838C21.8052 13.8114 21.65 13.3769 21.5259 12.9734C21.4017 12.5389 21.1845 12.2906 20.7499 12.1664C20.2844 12.0113 19.8499 11.825 19.4154 11.6078C18.9498 11.3595 18.9498 10.3042 19.4154 10.0559C19.8499 9.83868 20.3465 9.71453 20.781 9.46624C21.0293 9.34209 21.3086 9.12483 21.4328 8.87654C21.7121 8.37995 21.8983 7.82128 22.0845 7.29366C22.1466 7.13847 22.2087 6.95225 22.2708 6.70396C22.0845 6.20737 21.8983 5.67974 21.65 5.18315C21.4638 4.81071 21.4328 4.53138 21.7742 4.25205C22.3018 3.78649 22.2708 3.50716 23.0777 3.97271C23.357 4.1279 23.6364 4.22101 23.9157 4.34516C24.3502 4.53138 24.7537 4.4693 25.1882 4.25205C25.5917 4.03479 26.0262 3.84857 26.4607 3.72442C26.8642 3.60027 27.1125 3.38302 27.2366 2.97954C27.3608 2.57606 27.547 2.23465 27.6712 1.83117C27.8263 1.33458 28.2298 1.33458 28.6643 1.33458C29.0989 1.30355 29.3161 1.48977 29.4713 1.86221C29.6265 2.26569 29.7506 2.66917 29.9369 3.04161C30.061 3.2899 30.2783 3.5382 30.4955 3.66235C31.0231 3.94168 31.5818 4.15894 32.1405 4.31412C32.4508 4.40723 32.8543 4.40723 33.1647 4.34516C33.5682 4.25205 33.9096 4.03479 34.282 3.84857C34.5924 3.69338 34.8717 3.63131 35.12 3.97271C35.2442 4.1279 35.4304 4.22101 35.4924 4.37619C35.5856 4.56242 35.6787 4.81071 35.6166 4.9659C35.5235 5.33834 35.3373 5.67974 35.151 6.02115C34.9027 6.51774 34.9027 6.98329 35.1821 7.51092C35.3993 7.88336 35.5545 8.31787 35.6787 8.72135C35.8028 9.15587 36.0201 9.40416 36.4546 9.52831C36.8891 9.68349 37.3236 9.83868 37.7271 10.0559C38.2547 10.3353 38.2547 11.4216 37.7581 11.6699Z" fill="white" fill-opacity="0.52"/>
<path d="M8.18007 7.44884C8.18007 7.79025 7.83867 8.13165 7.49726 8.13165C7.15586 8.13165 6.81445 7.79025 6.81445 7.44884C6.81445 7.0764 7.12482 6.76603 7.49726 6.79707C7.86971 6.79707 8.18007 7.10744 8.18007 7.44884Z" fill="white" fill-opacity="0.52"/>
<path d="M8.18029 23.8052C8.18029 24.1466 7.83888 24.488 7.49748 24.4569C7.12503 24.4569 6.8457 24.1466 6.8457 23.7741C6.8457 23.4017 7.15607 23.0913 7.52851 23.0913C7.86992 23.1223 8.18029 23.4638 8.18029 23.8052Z" fill="white" fill-opacity="0.52"/>
<path d="M10.5702 5.61773C10.5702 5.99017 10.2598 6.2695 9.8874 6.30054C9.51496 6.30054 9.20459 5.99017 9.20459 5.64876C9.20459 5.27632 9.45288 5.02803 9.85636 5.02803C10.2909 4.96595 10.5702 5.21425 10.5702 5.61773Z" fill="white" fill-opacity="0.52"/>
<path d="M6.31792 9.83849C6.31792 10.2109 6.00755 10.5213 5.66615 10.5213C5.2937 10.5213 5.04541 10.273 5.04541 9.86952C5.04541 9.46604 5.2937 9.18671 5.66615 9.18671C6.03859 9.15568 6.31792 9.46604 6.31792 9.83849Z" fill="white" fill-opacity="0.52"/>
<path d="M6.31809 21.3845C6.31809 21.7569 6.03876 22.0673 5.66631 22.0673C5.26283 22.0673 5.01454 21.7879 5.04558 21.3845C5.04558 20.981 5.29387 20.7327 5.66631 20.7017C6.03876 20.7327 6.31809 21.012 6.31809 21.3845Z" fill="white" fill-opacity="0.52"/>
<path d="M16.3429 4.06603C16.3429 4.40743 16.0015 4.74884 15.6601 4.74884C15.3187 4.74884 14.9773 4.40743 15.0083 4.06603C15.0083 3.69358 15.3187 3.38322 15.6911 3.41425C16.0325 3.38322 16.3429 3.72462 16.3429 4.06603Z" fill="white" fill-opacity="0.52"/>
<path d="M4.79726 15.6115C4.79726 15.9529 4.48689 16.2943 4.11445 16.2943C3.77305 16.2943 3.43164 15.984 3.43164 15.6115C3.43164 15.2391 3.74201 14.9287 4.11445 14.9287C4.45586 14.9597 4.79726 15.2701 4.79726 15.6115Z" fill="white" fill-opacity="0.52"/>
<path d="M13.3323 4.46908C13.3323 4.9036 13.084 5.12086 12.6495 5.08982C12.2771 5.08982 11.9667 4.74841 11.9977 4.40701C11.9977 4.09664 12.3702 3.7242 12.6806 3.75524C13.053 3.78627 13.3323 4.09664 13.3323 4.46908Z" fill="white" fill-opacity="0.52"/>
<path d="M5.16955 12.632C5.16955 13.0355 4.92125 13.2838 4.51777 13.2838C4.14533 13.2838 3.83496 12.9734 3.83496 12.632C3.83496 12.3217 4.2074 11.9492 4.51777 11.9492C4.85918 11.9492 5.16955 12.2596 5.16955 12.632Z" fill="white" fill-opacity="0.52"/>
<path d="M5.16955 18.622C5.16955 18.9944 4.85918 19.3048 4.51777 19.3048C4.2074 19.3048 3.83496 18.9324 3.83496 18.622C3.83496 18.2806 4.14533 17.9702 4.51777 17.9702C4.95229 17.9702 5.16955 18.1875 5.16955 18.622Z" fill="white" fill-opacity="0.52"/>
<path d="M28.6338 6.76599C26.4301 6.73495 24.5059 8.69027 24.5059 10.8318C24.5059 13.0354 26.4612 14.9597 28.6027 14.9597C30.7753 14.9597 32.7617 13.0354 32.6996 10.8629C32.7306 8.69028 30.7753 6.79703 28.6338 6.76599ZM28.6338 13.5631C27.144 13.5941 25.9025 12.3526 25.9025 10.8939C25.9025 9.40412 27.113 8.19368 28.5717 8.19368C30.0615 8.19368 31.2409 9.37308 31.2719 10.8318C31.3029 12.3216 30.0925 13.532 28.6338 13.5631Z" fill="white" fill-opacity="0.52"/>
</svg>
