<svg width="35" height="43" viewBox="0 0 35 43" fill="none" xmlns="http://www.w3.org/2000/svg">
<path d="M17.5 7.5L18.56 6.44C18.2787 6.1591 17.8975 6.00132 17.5 6.00132C17.1025 6.00132 16.7213 6.1591 16.44 6.44L17.5 7.5ZM17.5 23.5L16.44 24.56C16.7213 24.8409 17.1025 24.9987 17.5 24.9987C17.8975 24.9987 18.2787 24.8409 18.56 24.56L17.5 23.5ZM12.44 10.44C12.175 10.7243 12.0308 11.1004 12.0376 11.489C12.0445 11.8776 12.2019 12.2484 12.4768 12.5232C12.7516 12.7981 13.1224 12.9555 13.511 12.9623C13.8996 12.9692 14.2756 12.825 14.56 12.56L12.44 10.44ZM20.44 12.56C20.5773 12.7074 20.7429 12.8256 20.9269 12.9076C21.1109 12.9895 21.3096 13.0336 21.511 13.0372C21.7124 13.0407 21.9124 13.0037 22.0992 12.9282C22.286 12.8528 22.4556 12.7405 22.5981 12.5981C22.7405 12.4556 22.8528 12.286 22.9282 12.0992C23.0037 11.9124 23.0407 11.7124 23.0372 11.511C23.0336 11.3095 22.9895 11.1109 22.9076 10.9269C22.8256 10.7429 22.7074 10.5773 22.56 10.44L20.44 12.56ZM14.56 18.44C14.4227 18.2926 14.2571 18.1744 14.0731 18.0924C13.8891 18.0105 13.6904 17.9664 13.489 17.9628C13.2876 17.9593 13.0876 17.9963 12.9008 18.0718C12.714 18.1472 12.5444 18.2595 12.4019 18.4019C12.2595 18.5444 12.1472 18.714 12.0718 18.9008C11.9963 19.0876 11.9593 19.2876 11.9628 19.489C11.9664 19.6904 12.0105 19.8891 12.0924 20.0731C12.1744 20.2571 12.2926 20.4227 12.44 20.56L14.56 18.44ZM22.56 20.56C22.7074 20.4227 22.8256 20.2571 22.9076 20.0731C22.9895 19.8891 23.0336 19.6904 23.0372 19.489C23.0407 19.2876 23.0037 19.0876 22.9282 18.9008C22.8528 18.714 22.7405 18.5444 22.5981 18.4019C22.4556 18.2595 22.286 18.1472 22.0992 18.0718C21.9124 17.9963 21.7124 17.9593 21.511 17.9628C21.3096 17.9664 21.1109 18.0105 20.9269 18.0924C20.7429 18.1744 20.5773 18.2926 20.44 18.44L22.56 20.56ZM0 17.5V25.5H3V17.5H0ZM35 25.5V17.5H32V25.5H35ZM16 7.5V23.5H19V7.5H16ZM16.44 6.44L12.44 10.44L14.56 12.56L18.56 8.56L16.44 6.44V6.44ZM16.44 8.56L20.44 12.56L22.56 10.44L18.56 6.44L16.44 8.56ZM18.56 22.44L14.56 18.44L12.44 20.56L16.44 24.56L18.56 22.44ZM18.56 24.56L22.56 20.56L20.44 18.44L16.44 22.44L18.56 24.56ZM35 17.5C35 12.8587 33.1563 8.40752 29.8744 5.12563C26.5925 1.84374 22.1413 0 17.5 0V3C21.3456 3 25.0338 4.52767 27.753 7.24695C30.4723 9.96623 32 13.6544 32 17.5H35ZM17.5 43C19.7981 43 22.0738 42.5473 24.197 41.6679C26.3202 40.7884 28.2493 39.4994 29.8744 37.8744C31.4994 36.2493 32.7884 34.3202 33.6679 32.197C34.5473 30.0738 35 27.7981 35 25.5H32C32 29.3456 30.4723 33.0338 27.753 35.753C25.0338 38.4723 21.3456 40 17.5 40V43ZM0 25.5C0 30.1413 1.84374 34.5925 5.12563 37.8744C8.40752 41.1563 12.8587 43 17.5 43V40C13.6544 40 9.96623 38.4723 7.24695 35.753C4.52767 33.0338 3 29.3456 3 25.5H0ZM3 17.5C3 13.6544 4.52767 9.96623 7.24695 7.24695C9.96623 4.52767 13.6544 3 17.5 3V0C12.8587 0 8.40752 1.84374 5.12563 5.12563C1.84374 8.40752 0 12.8587 0 17.5H3Z" fill="white"/>
</svg>
