<svg width="19" height="15" viewBox="0 0 19 15" fill="none" xmlns="http://www.w3.org/2000/svg">
<path d="M17.047 3.73827C17.0591 3.90232 17.0591 4.06641 17.0591 4.23047C17.0591 9.23435 13.1409 15 5.97972 15C3.77348 15 1.724 14.3789 0 13.3008C0.313464 13.3359 0.614831 13.3477 0.940355 13.3477C2.76076 13.3477 4.43655 12.75 5.77476 11.7305C4.06282 11.6953 2.62817 10.6055 2.13387 9.10547C2.37501 9.1406 2.61611 9.16405 2.86931 9.16405C3.21892 9.16405 3.56856 9.11715 3.89405 9.03516C2.10979 8.68357 0.771544 7.16015 0.771544 5.32031V5.27345C1.28993 5.5547 1.89277 5.73048 2.53169 5.75389C1.48282 5.07419 0.795665 3.91405 0.795665 2.60154C0.795665 1.89842 0.988523 1.25389 1.32611 0.691389C3.243 2.98826 6.12437 4.48824 9.35531 4.65233C9.29504 4.37108 9.25886 4.07814 9.25886 3.78516C9.25886 1.6992 10.9949 0 13.1529 0C14.2741 0 15.2868 0.45703 15.9981 1.19531C16.8782 1.03126 17.7221 0.714835 18.4696 0.281252C18.1802 1.16018 17.5653 1.89846 16.7576 2.36718C17.5413 2.28519 18.3008 2.0742 19 1.78126C18.4696 2.53123 17.8065 3.19917 17.047 3.73827Z" fill="white"/>
</svg>
