<svg width="31" height="26" viewBox="0 0 31 26" fill="none" xmlns="http://www.w3.org/2000/svg">
<path d="M18.0015 9.53027H26.9269V10.9951H18.0015V9.53027Z" fill="#6A65CD"/>
<path d="M18.0015 12.46H26.9269V13.9248H18.0015V12.46Z" fill="#6A65CD"/>
<path d="M21.4702 0.692383H3.73748V11.4241L2.59112 10.4771L1.33724 11.5129L4.62412 14.228L7.91093 11.5129L6.65705 10.4772L5.51075 11.4241V2.15672H19.6969V3.67087H10.8306V15.3895H0.131836V22.7625H5.51075V24.2273H3.73748V25.6921H21.4702V20.8686L22.6165 21.8156L23.8704 20.7798L20.5835 18.0646L17.2967 20.7797L18.5506 21.8155L19.6969 20.8686V24.2273H7.28402V22.7625H12.6038V16.8543H30.3956V3.67087H21.4702V0.692383ZM10.8306 21.2977H1.9051V16.8543H10.8306V21.2977ZM28.6223 15.3895H12.6038V8.06487H28.6223V15.3895ZM28.6223 5.13521V6.60053H12.6038V5.13521H28.6223Z" fill="#6A65CD"/>
<path d="M14.4546 9.53027H16.2279V10.9951H14.4546V9.53027Z" fill="#6A65CD"/>
<path d="M14.4546 12.46H16.2279V13.9248H14.4546V12.46Z" fill="#6A65CD"/>
</svg>
