<svg width="30" height="31" viewBox="0 0 30 31" fill="none" xmlns="http://www.w3.org/2000/svg">
<path d="M19.7849 15.0896C19.7849 16.0127 19.0355 16.7693 18.0863 16.7693C17.1537 16.7693 16.3877 16.0127 16.3877 15.0896C16.3877 14.1666 17.1371 13.41 18.0863 13.41C19.0355 13.41 19.7849 14.1666 19.7849 15.0896ZM12.0079 13.41C11.0587 13.41 10.3093 14.1666 10.3093 15.0896C10.3093 16.0127 11.0753 16.7693 12.0079 16.7693C12.9571 16.7693 13.7065 16.0127 13.7065 15.0896C13.7232 14.1666 12.9571 13.41 12.0079 13.41ZM29.5935 3.83152V30.9781C25.3981 27.6092 26.7399 28.7244 21.8665 24.6076L22.7491 27.407H3.86456C1.98277 27.407 0.450684 26.0148 0.450684 24.2898V3.83152C0.450684 2.10649 1.98277 0.714355 3.86456 0.714355H26.1797C28.0615 0.714355 29.5935 2.10649 29.5935 3.83152ZM24.8474 18.1765C24.8474 13.3041 22.4494 9.35465 22.4494 9.35465C20.0513 7.72041 17.7699 7.76581 17.7699 7.76581L17.5367 8.00792C20.3677 8.79477 21.6833 9.92966 21.6833 9.92966C17.7275 7.95963 13.0807 7.95927 9.2435 9.49084C8.62734 9.74808 8.26097 9.92966 8.26097 9.92966C8.26097 9.92966 9.64317 8.73425 12.6407 7.94739L12.4742 7.76581C12.4742 7.76581 10.1927 7.72041 7.79468 9.35465C7.79468 9.35465 5.39664 13.3041 5.39664 18.1765C5.39664 18.1765 6.7955 20.3707 10.4758 20.4766C10.4758 20.4766 11.092 19.7956 11.5916 19.2206C9.47664 18.6456 8.6773 17.4351 8.6773 17.4351C8.92228 17.5909 9.32624 17.7929 9.36007 17.8134C12.1709 19.2437 16.1636 19.7123 19.7516 18.343C20.3344 18.1463 20.9839 17.8588 21.6667 17.4502C21.6667 17.4502 20.834 18.691 18.6525 19.2509C19.1521 19.8259 19.7516 20.4766 19.7516 20.4766C23.4319 20.3707 24.8474 18.1765 24.8474 18.1765Z" fill="#6A65CD"/>
</svg>
