<svg width="31" height="26" viewBox="0 0 31 26" fill="none" xmlns="http://www.w3.org/2000/svg">
<path d="M27.1576 25.5495H3.76533C1.87099 25.5495 0.32959 24.1147 0.32959 22.3514V3.89049C0.32959 2.12717 1.87099 0.692383 3.76533 0.692383H27.1576C29.0519 0.692383 30.5933 2.12717 30.5933 3.89049V22.3514C30.5933 24.1147 29.0519 25.5495 27.1576 25.5495ZM3.76533 1.64501C2.43524 1.64501 1.353 2.65239 1.353 3.89049V22.3514C1.353 23.5895 2.43524 24.5969 3.76533 24.5969H27.1576C28.4877 24.5969 29.5699 23.5895 29.5699 22.3514V3.89049C29.5699 2.65239 28.4877 1.64501 27.1576 1.64501H3.76533Z" fill="#6A65CD"/>
<path d="M25.9749 18.2776H17.9341C17.6514 18.2776 17.4224 18.0644 17.4224 17.8013C17.4224 17.5384 17.6514 17.325 17.9341 17.325H25.9749C26.2573 17.325 26.4866 17.5384 26.4866 17.8013C26.4866 18.0644 26.2576 18.2776 25.9749 18.2776Z" fill="#6A65CD"/>
<path d="M25.9749 21.7212H17.9341C17.6514 21.7212 17.4224 21.508 17.4224 21.2449C17.4224 20.982 17.6514 20.7686 17.9341 20.7686H25.9749C26.2573 20.7686 26.4866 20.982 26.4866 21.2449C26.4866 21.508 26.2576 21.7212 25.9749 21.7212Z" fill="#6A65CD"/>
<path d="M25.9749 11.3896H17.9341C17.6514 11.3896 17.4224 11.1765 17.4224 10.9133C17.4224 10.6504 17.6514 10.437 17.9341 10.437H25.9749C26.2573 10.437 26.4866 10.6504 26.4866 10.9133C26.4866 11.1765 26.2576 11.3896 25.9749 11.3896Z" fill="#6A65CD"/>
<path d="M25.9749 14.8335H17.9341C17.6514 14.8335 17.4224 14.6203 17.4224 14.3572C17.4224 14.0943 17.6514 13.8809 17.9341 13.8809H25.9749C26.2573 13.8809 26.4866 14.0943 26.4866 14.3572C26.4866 14.6203 26.2576 14.8335 25.9749 14.8335Z" fill="#6A65CD"/>
<path d="M30.0816 7.06982H0.841296C0.558601 7.06982 0.32959 6.85664 0.32959 6.5935C0.32959 6.33036 0.558601 6.11719 0.841296 6.11719H30.0816C30.3643 6.11719 30.5933 6.33036 30.5933 6.5935C30.5933 6.85664 30.3643 7.06982 30.0816 7.06982Z" fill="#6A65CD"/>
<path d="M7.70628 5.37241C6.82822 5.37241 6.11377 4.70764 6.11377 3.89031C6.11377 3.07297 6.82822 2.4082 7.70628 2.4082C8.58435 2.4082 9.29851 3.07297 9.29851 3.89031C9.29851 4.70764 8.58435 5.37241 7.70628 5.37241ZM7.70628 3.36083C7.39246 3.36083 7.13718 3.59846 7.13718 3.89031C7.13718 4.18216 7.39246 4.41978 7.70628 4.41978C8.01982 4.41978 8.2751 4.18216 8.2751 3.89031C8.2751 3.59846 8.01982 3.36083 7.70628 3.36083Z" fill="#6A65CD"/>
<path d="M4.01947 5.37241C3.14169 5.37241 2.42725 4.70764 2.42725 3.89031C2.42725 3.07297 3.14169 2.4082 4.01947 2.4082C4.89754 2.4082 5.61199 3.07297 5.61199 3.89031C5.61199 4.70764 4.89754 5.37241 4.01947 5.37241ZM4.01947 3.36083C3.70594 3.36083 3.45066 3.59846 3.45066 3.89031C3.45066 4.18216 3.70594 4.41978 4.01947 4.41978C4.33329 4.41978 4.58857 4.18216 4.58857 3.89031C4.58857 3.59846 4.33329 3.36083 4.01947 3.36083Z" fill="#6A65CD"/>
<path d="M11.3935 5.37241C10.5154 5.37241 9.80127 4.70764 9.80127 3.89031C9.80127 3.07297 10.5154 2.4082 11.3935 2.4082C12.2716 2.4082 12.986 3.07297 12.986 3.89031C12.986 4.70764 12.2716 5.37241 11.3935 5.37241ZM11.3935 3.36083C11.0797 3.36083 10.8247 3.59846 10.8247 3.89031C10.8247 4.18216 11.08 4.41978 11.3935 4.41978C11.7073 4.41978 11.9626 4.18216 11.9626 3.89031C11.9626 3.59846 11.7073 3.36083 11.3935 3.36083Z" fill="#6A65CD"/>
<path d="M14.0724 21.7208H4.78856C4.50587 21.7208 4.27686 21.5076 4.27686 21.2445V10.9133C4.27686 10.6504 4.50587 10.437 4.78856 10.437H14.0724C14.3551 10.437 14.5841 10.6504 14.5841 10.9133V21.2445C14.5841 21.5076 14.3551 21.7208 14.0724 21.7208ZM5.30027 20.7681H13.5607V11.3896H5.30027V20.7681Z" fill="#6A65CD"/>
</svg>
