<svg width="32" height="33" viewBox="0 0 32 33" fill="none" xmlns="http://www.w3.org/2000/svg">
<path d="M27.9612 6.9967H24.0381V4.45876C24.0381 2.32747 22.4432 0.593506 20.4828 0.593506H11.1655C9.20512 0.593506 7.6102 2.32747 7.6102 4.45876V6.9967H3.68712C1.72675 6.9967 0.131836 8.73067 0.131836 10.862V28.1834C0.131836 30.3147 1.72675 32.0487 3.68712 32.0487H27.9612C29.9215 32.0487 31.5165 30.3147 31.5165 28.1834V10.862C31.5165 8.73067 29.9215 6.9967 27.9612 6.9967V6.9967ZM11.1655 1.92635H20.4828C21.555 1.92635 22.4598 2.71833 22.7297 3.79234H8.91861C9.18844 2.71833 10.0933 1.92635 11.1655 1.92635V1.92635ZM1.3578 10.862C1.3578 9.4656 2.40275 8.32955 3.68712 8.32955H13.0735C13.412 8.32955 13.6865 8.03119 13.6865 7.66313C13.6865 7.29506 13.412 6.9967 13.0735 6.9967H8.83616V5.12519H22.8121V6.9967H18.5903C18.2518 6.9967 17.9774 7.29513 17.9774 7.66313C17.9774 8.03113 18.2518 8.32955 18.5903 8.32955H27.9612C29.2455 8.32955 30.2905 9.4656 30.2905 10.862V12.9872C30.2905 16.1372 27.9333 18.6999 25.0358 18.6999H18.7742V17.2832C18.7742 16.4465 18.1481 15.7658 17.3785 15.7658H14.2853C13.5157 15.7658 12.8896 16.4466 12.8896 17.2832V18.6999H6.61245C3.71501 18.6998 1.3578 16.1371 1.3578 12.9872V10.862ZM14.1156 20.0327H17.5483V20.9861C17.5483 22.015 16.7783 22.8521 15.8319 22.8521C14.8855 22.8521 14.1156 22.015 14.1156 20.9861V20.0327ZM14.1156 18.6998V17.2832C14.1156 17.1814 14.1917 17.0986 14.2854 17.0986H17.3785C17.4721 17.0986 17.5483 17.1813 17.5483 17.2832V18.6998H14.1156ZM30.2905 28.1834C30.2905 29.5798 29.2455 30.7159 27.9612 30.7159H3.68712C2.40275 30.7159 1.3578 29.5798 1.3578 28.1834V17.1058C2.53601 18.8775 4.45231 20.0327 6.61245 20.0327H12.8896V20.9861C12.8896 22.75 14.2095 24.1849 15.8319 24.1849C17.4544 24.1849 18.7742 22.75 18.7742 20.9861V20.0327H25.0358C27.1959 20.0327 29.1123 18.8775 30.2905 17.1058V28.1834Z" fill="#6A65CD"/>
<path d="M15.8322 8.32943C15.9934 8.32943 16.1516 8.25872 16.2656 8.1341C16.3796 8.01021 16.4452 7.83827 16.4452 7.66301C16.4452 7.48774 16.3796 7.3158 16.2656 7.19184C16.1516 7.06789 15.9934 6.99658 15.8322 6.99658C15.671 6.99658 15.5129 7.06782 15.3982 7.19184C15.2842 7.3158 15.2192 7.48774 15.2192 7.66301C15.2192 7.83827 15.2842 8.01021 15.3982 8.1341C15.5129 8.25879 15.671 8.32943 15.8322 8.32943V8.32943Z" fill="#6A65CD"/>
</svg>
