<svg width="29" height="30" viewBox="0 0 29 30" fill="none" xmlns="http://www.w3.org/2000/svg">
<path d="M27.9475 6.88298C28.2012 6.88298 28.4067 6.6894 28.4067 6.45056V5.20425C28.4067 4.07917 27.4346 3.16391 26.2398 3.16391H14.4139C14.2301 2.55988 13.8857 2.00542 13.406 1.55376C12.4496 0.653124 11.0411 0.263167 9.73016 0.536097C9.42718 0.599164 9.18484 0.812954 9.09767 1.09408C9.01007 1.37674 9.09283 1.68143 9.31366 1.88942L10.6672 3.16391H8.35165L8.15579 2.97949C7.75071 2.59807 7.07113 2.69375 6.80085 3.16391H2.55167C1.35681 3.16391 0.384766 4.07917 0.384766 5.20425V21.8999C0.384766 23.025 1.35687 23.9403 2.55167 23.9403H11.5916L11.0055 26.0664H9.99264C8.50634 26.0664 7.29721 27.2049 7.29721 28.6043C7.29721 29.1496 7.76836 29.5933 8.34748 29.5933H20.444C21.0231 29.5933 21.4943 29.1496 21.4943 28.6043C21.4943 27.2049 20.2852 26.0664 18.7989 26.0664H17.786L17.1998 23.9403H26.2398C27.4346 23.9403 28.4067 23.025 28.4067 21.8999V8.48316C28.4067 8.24433 28.2011 8.05074 27.9474 8.05074C27.6938 8.05074 27.4882 8.24433 27.4882 8.48316V20.0351H13.4389L14.3452 19.1816C14.7917 19.2812 15.2827 19.1698 15.6354 18.8378C16.0847 18.4147 16.1569 17.7689 15.8521 17.2742L16.6193 16.5517C16.7333 16.4445 16.8661 16.3596 17.0141 16.2997C18.5711 15.6687 18.4258 15.7281 18.4431 15.7202C18.7347 15.5852 19.0158 15.4337 19.2852 15.2665L19.9758 15.9169C20.8263 16.7177 22.2028 16.7178 23.0534 15.9169C23.9038 15.1162 23.9039 13.8199 23.0534 13.0191L22.1825 12.1991C22.1824 11.8183 22.0181 11.4545 21.7068 11.1877C21.5421 11.0466 21.3457 10.9456 21.1341 10.8896C21.2899 10.4226 21.1659 9.91133 20.7943 9.56054C20.5436 9.32387 20.2331 9.18054 19.9116 9.13956C19.943 8.766 19.8144 8.38714 19.5318 8.10271C19.3344 7.90395 19.0881 7.77041 18.8246 7.70769C18.939 7.27618 18.8312 6.80659 18.4955 6.45933C17.927 5.87123 16.9686 5.87061 16.3923 6.41334L16.215 6.58011L15.5352 5.94005C14.9944 5.43073 14.6508 4.76113 14.5678 4.05441C14.5667 4.04542 14.5657 4.03683 14.5649 4.02874H26.2398C26.9282 4.02874 27.4883 4.5561 27.4883 5.20425V6.45056C27.4883 6.6894 27.6939 6.88298 27.9475 6.88298V6.88298ZM11.2502 4.02874C11.2512 4.22739 11.1714 4.42633 11.0109 4.57756C10.6902 4.87947 10.1724 4.87827 9.85306 4.57756L9.27019 4.02874H11.2502ZM18.7989 26.9312C19.7787 26.9312 20.5758 27.6818 20.5758 28.6043C20.5758 28.6728 20.5167 28.7285 20.444 28.7285H8.34742C8.27476 28.7285 8.21557 28.6728 8.21557 28.6043C8.21557 27.6818 9.01274 26.9312 9.99252 26.9312H18.7989ZM11.9544 26.0664L12.5404 23.9403H16.2509L16.8371 26.0664H11.9544ZM27.4883 20.8999V21.8999C27.4883 22.5481 26.9282 23.0754 26.2398 23.0754C25.8654 23.0754 2.65849 23.0754 2.55161 23.0754C1.8632 23.0754 1.30313 22.5481 1.30313 21.8999V20.8999H27.4883ZM12.1399 20.0351H3.9722L6.23552 17.9039C6.41488 17.735 6.41488 17.4613 6.23552 17.2924C6.05616 17.1236 5.7654 17.1236 5.5861 17.2924L2.67324 20.0351H1.30319V5.20425C1.30319 4.5561 1.86326 4.02874 2.55167 4.02874H6.6302C6.59133 5.05944 7.01122 6.09072 7.79949 6.83295C8.4896 7.48274 9.4059 7.86889 10.3798 7.92028C10.876 7.94647 11.5269 8.14967 12.0655 8.52107C11.586 9.14588 11.366 9.88008 11.4558 10.5912L11.5584 11.4035C11.6045 11.7686 11.4726 12.127 11.1964 12.387L10.9536 12.6158C10.4192 12.2273 9.64269 12.2583 9.14536 12.7266C8.71429 13.1324 8.63855 13.7272 8.87509 14.1957L7.10685 15.8606C6.9275 16.0296 6.9275 16.3033 7.10685 16.4722C7.28627 16.6411 7.57698 16.641 7.75627 16.4722L9.46865 14.8598L13.5525 18.7051L12.1399 20.0351ZM14.9859 18.2262C14.8078 18.3938 14.5201 18.3932 14.3427 18.2262L9.79466 13.9437C9.61694 13.7765 9.61688 13.5055 9.7946 13.3381C9.79466 13.3381 9.79466 13.3381 9.79466 13.3381C9.97251 13.1707 10.2601 13.1707 10.4379 13.3381C10.8969 13.7703 14.6585 17.3124 14.9859 17.6205C15.1633 17.7875 15.1633 18.0592 14.9859 18.2262V18.2262ZM21.8316 13.0915L22.404 13.6306C22.8944 14.0923 22.8944 14.8436 22.404 15.3053C21.9136 15.7669 21.1158 15.7669 20.6254 15.3053L20.0278 14.7426C20.3813 14.4602 21.7929 13.134 21.8316 13.0915V13.0915ZM17.0417 7.02505C17.2537 6.82543 17.607 6.82469 17.8165 7.0415C18.0053 7.23674 17.988 7.55645 17.7781 7.75413L17.6799 7.84652C17.2817 8.21718 17.7165 8.82292 18.2389 8.58311C18.4493 8.48607 18.6993 8.53046 18.8612 8.69348C19.0325 8.86589 19.0451 9.13825 18.8911 9.34134C18.583 9.74832 19.0237 10.2495 19.5078 10.0365C19.7126 9.94691 19.9624 9.99967 20.1441 10.1712C20.2905 10.3094 20.3226 10.5241 20.2248 10.7068C20.2201 10.7138 20.1989 10.7442 20.1437 10.8083C19.8109 11.1944 20.1556 11.7639 20.6757 11.7069C20.8316 11.6898 20.9782 11.7325 21.0886 11.8272C21.3226 12.0277 21.3157 12.3598 21.1103 12.5532C19.8777 13.6773 19.3275 14.3445 18.0482 14.9392L16.6513 15.5051C16.3958 15.6086 16.1667 15.7549 15.97 15.94L15.2351 16.632L11.611 13.2196L11.8459 12.9984C12.3223 12.5498 12.5499 11.9312 12.4704 11.3013L12.3678 10.489C12.3093 10.0255 12.446 9.5409 12.748 9.11167L13.0011 9.34919C13.4275 9.75082 14.099 9.78292 14.5513 9.36035C14.6233 9.30349 14.4918 9.42012 17.0417 7.02505V7.02505ZM14.8859 6.55154L15.5651 7.19109C12.5137 10.0489 14.7834 7.92319 13.9059 8.74505C13.8229 8.82326 13.7292 8.81187 13.6501 8.73737L13.034 8.15895C13.0285 8.15382 13.0228 8.14876 13.0171 8.14392C12.276 7.48542 11.2849 7.10149 10.4309 7.05676C9.68301 7.01731 8.97912 6.72065 8.44885 6.22135C7.74255 5.5563 7.41987 4.59111 7.59052 3.67658C7.59088 3.67482 7.59124 3.673 7.59155 3.67123C8.16715 4.21322 8.58299 4.60483 9.20352 5.18911C9.88244 5.82837 10.9812 5.82843 11.6602 5.18911C11.9883 4.88015 12.169 4.46936 12.169 4.0325C12.169 3.59559 11.9883 3.1848 11.6602 2.87584L10.0483 1.35802C11.0212 1.19506 12.0489 1.49895 12.7566 2.16531C13.5292 2.89286 13.5948 3.6393 13.6548 4.14958C13.7608 5.05074 14.198 5.90373 14.8859 6.55154V6.55154Z" fill="#6A65CD"/>
</svg>
