<svg width="331" height="299" viewBox="0 0 331 299" fill="none" xmlns="http://www.w3.org/2000/svg">
<path d="M329.364 116.847C328.846 116.916 328.363 117.261 327.673 117.537C327.535 116.778 327.431 116.226 327.362 115.673C326.396 108.839 325.395 102.038 324.532 95.169C324.428 94.237 324.98 93.1669 325.429 92.2694C325.74 91.6136 326.499 91.1993 326.844 90.578C327.086 90.1638 326.913 89.5424 326.913 88.9901C326.396 88.9901 325.809 88.8866 325.36 89.0592C324.808 89.2663 324.324 89.715 323.772 90.0947C322.806 88.9211 322.737 87.8855 323.772 86.8154C324.497 86.056 325.187 85.2966 325.878 84.5372C326.534 83.7777 327.776 82.9493 326.741 81.9827C325.671 80.9817 324.98 82.4315 324.221 83.0183C323.462 83.5706 322.771 84.2265 321.874 84.9859C321.528 84.1575 321.321 83.6397 321.149 83.1219C319.285 77.4262 316.696 72.1448 312.277 67.968C311.173 66.8979 311.035 65.9659 311.587 64.6197C312.45 62.5485 313.209 60.4429 313.9 58.3027C314.038 57.8884 313.555 57.2671 313.347 56.7148C312.864 56.9219 312.312 57.06 311.898 57.4052C311.587 57.6813 311.449 58.1991 311.276 58.6133C310.62 60.3393 309.965 62.0307 309.343 63.7567C308.963 64.7923 308.411 64.9994 307.341 64.6542C305.65 64.1019 304.718 63.2044 304.856 61.2713C304.89 60.7881 304.2 60.2703 303.855 59.7525C303.406 60.1322 302.681 60.4774 302.612 60.8916C302.336 62.6176 301.404 62.7556 299.919 62.6176C294.086 62.0998 288.563 62.9973 283.592 66.2766C281.383 67.7264 281.383 67.6919 279.484 65.8623C279.174 65.5862 278.449 65.3791 278.172 65.5517C277.896 65.7243 277.758 66.4147 277.827 66.8634C277.931 67.5193 278.38 68.1406 278.449 68.831C278.552 69.5214 278.621 70.3498 278.311 70.9021C277.171 72.8697 275.894 74.7683 274.514 76.9085C272.719 74.5957 271.096 72.421 269.37 70.3843C268.956 69.9011 268.058 69.832 267.368 69.5559C267.403 70.2463 267.195 71.1438 267.541 71.6616C268.921 73.6982 270.371 75.7003 271.959 77.5988C273.167 79.0141 273.409 80.4639 273.133 82.2244C272.373 87.0916 271.717 91.9933 270.993 96.8605C270.889 97.4818 270.647 98.0686 270.578 98.2412C269.37 98.2412 268.162 97.896 267.851 98.3103C267.023 99.3458 267.955 100.174 268.749 100.899C270.164 102.211 270.406 103.937 270.13 105.663C269.474 109.805 268.818 113.947 267.851 118.021C267.23 120.575 266.574 123.268 264.261 125.373C263.364 123.82 262.604 122.37 261.672 121.024C261.396 120.61 260.671 120.541 260.154 120.299C260.015 120.886 259.601 121.576 259.774 122.059C260.326 123.509 261.155 124.821 261.707 126.271C261.949 126.892 261.776 127.686 261.81 128.411C261.155 128.307 260.533 128.204 259.877 128.1C259.36 128.031 258.738 127.755 258.324 127.962C258.048 128.066 257.91 128.86 257.979 129.308C258.255 130.517 257.772 131.207 256.633 131.449C254.216 132.001 251.835 132.519 249.418 133.036C247.968 133.347 247.312 132.795 247.209 131.276C246.967 127.651 246.657 124.061 246.277 120.437C244.931 108.424 243.55 96.4462 242.135 84.4681C241.997 83.26 242.031 82.3279 243.619 82.1208C244.102 82.0518 244.482 81.2579 244.896 80.8091C244.447 80.5675 243.999 80.1187 243.515 80.1187C242.031 80.0842 241.479 79.3593 241.272 77.944C240.512 73.353 239.684 68.762 238.648 64.24C238.199 62.2724 238.51 61.0297 240.409 60.2703C240.823 60.0977 241.341 59.856 241.548 59.5108C241.824 59.0276 241.858 58.4062 241.997 57.8539C241.444 57.7504 240.857 57.4742 240.34 57.5778C239.822 57.6813 239.339 58.1646 238.821 58.3372C238.441 58.4753 237.716 58.4753 237.647 58.3372C237.475 57.923 237.406 57.3016 237.578 56.9219C237.82 56.4386 238.372 56.0935 238.821 55.7828C239.891 55.0234 241.065 54.3675 242.066 53.5045C242.514 53.1248 242.583 52.3309 242.825 51.7095C242.135 51.7095 241.444 51.5715 240.788 51.7095C240.305 51.8131 239.925 52.2618 239.477 52.5035C238.476 53.0903 237.44 53.6426 236.819 53.9878C233.608 46.8769 230.502 40.0421 227.464 33.2073C227.188 32.6205 227.395 31.792 227.533 31.1017C227.74 30.0316 227.533 29.5138 226.325 29.3757C225.565 29.2722 224.633 28.8579 224.185 28.3056C216.694 18.9855 207.063 13.1863 195.534 10.3557C192.91 9.69985 192.91 9.73437 193.118 7.14544C193.152 6.90381 193.221 6.62766 193.118 6.45506C192.91 6.04083 192.634 5.45401 192.289 5.38497C191.944 5.31593 191.357 5.69564 191.115 6.07535C190.805 6.5241 190.632 7.11092 190.494 7.66323C190.114 8.90591 189.251 9.00947 188.181 8.80236C186.973 8.56073 187.042 7.73227 187.18 6.80025C187.422 5.21238 187.664 3.6245 187.871 2.0021C187.974 1.17365 188.112 0.0345191 186.939 0C186.455 0 185.731 0.966533 185.558 1.58788C185.144 3.14123 184.937 4.72911 184.764 6.3515C184.626 7.73227 184.074 8.35361 182.555 8.31909C179.206 8.25005 175.893 8.42265 172.544 8.31909C171.992 8.31909 171.129 7.55967 170.991 7.00737C170.68 5.7992 170.853 4.48748 170.577 3.24479C170.439 2.69249 169.714 2.27826 169.265 1.79499C168.92 2.38181 168.333 2.8996 168.298 3.52094C168.195 4.52199 168.402 5.59209 168.505 6.59314C168.678 7.93938 168.367 8.76784 166.78 8.80236C165.571 8.83688 164.398 9.28562 163.19 9.25111C162.568 9.21659 161.878 8.66428 161.325 8.18101C160.773 7.69775 160.359 7.04189 159.876 6.48958C159.461 7.17996 159.082 7.87034 158.633 8.5262C158.253 9.11303 157.977 10.045 157.494 10.1831C153.766 11.2532 149.969 12.1507 146.137 13.1518C145.757 12.2197 145.412 11.3913 145.067 10.5283C144.446 9.04399 143.893 7.52515 143.169 6.10987C142.996 5.73016 142.306 5.59209 141.857 5.35045C141.65 5.83372 141.339 6.31699 141.27 6.80025C141.201 7.14544 141.408 7.55967 141.546 7.93938C142.064 9.4237 142.444 10.908 143.099 12.3233C143.859 13.9457 143.307 14.7742 141.788 15.3955C140.683 15.8442 139.613 16.3965 138.508 16.9489C135.781 18.2606 135.816 18.2261 133.986 15.7752C133.641 15.2919 132.847 15.1193 132.26 14.7742C132.191 15.43 132.053 16.1204 132.053 16.7763C132.053 17.0869 132.26 17.4321 132.502 17.7083C133.745 19.1581 133.158 20.0901 131.846 21.2292C128.809 23.8527 125.84 26.5452 122.975 29.3757C121.318 30.9981 119.937 32.8967 118.246 34.8642C117.555 34.0013 117.107 33.2764 116.485 32.7241C116.037 32.3444 115.346 32.2408 114.759 31.9992C114.69 32.6205 114.414 33.2764 114.587 33.7942C114.828 34.5881 115.553 35.244 115.795 36.0379C116.037 36.7973 116.244 37.7984 115.933 38.4542C115.104 40.3528 114 42.1132 112.999 43.9082C112.55 44.7367 112.032 45.1164 111.066 44.5296C110.237 44.0118 109.202 43.0798 108.373 44.2189C108.166 44.5296 108.995 45.8758 109.616 46.4281C110.824 47.4292 110.997 48.3267 110.375 49.811C109.374 52.1928 108.684 54.6782 107.959 57.1636C107.303 59.3383 106.785 61.5475 106.199 63.7567C105.612 63.6186 105.267 63.446 104.956 63.4805C104.266 63.5496 103.61 63.7222 102.954 63.8257C103.299 64.4125 103.506 65.172 104.024 65.5517C105.957 67.0705 106.164 68.5548 104.438 71.1438C103.644 70.5915 102.885 70.0046 102.125 69.4523C101.055 68.6584 100.02 67.8299 98.9151 67.1396C98.5699 66.9324 97.776 66.9324 97.6034 67.1396C97.3617 67.4502 97.3272 68.1406 97.4998 68.5548C97.6724 69.0036 98.1556 69.3488 98.5354 69.6594C99.9506 70.8331 101.366 72.0413 102.885 73.0768C104.162 73.9398 104.473 75.0444 104.3 76.4942C103.782 80.533 103.23 84.6062 102.885 88.6449C102.091 98.69 101.435 108.7 100.676 118.746C100.641 119.367 100.365 119.988 100.123 120.851C98.6389 119.781 97.4998 118.849 96.2571 118.055C95.8428 117.814 95.187 117.986 94.6692 117.952C94.7038 118.504 94.6002 119.16 94.8763 119.609C95.1525 120.126 95.7393 120.506 96.2226 120.92C97.3617 121.921 98.5009 122.922 99.4329 123.751C98.5699 124.165 97.8104 124.51 97.051 124.855C97.5343 125.546 97.914 126.409 98.5699 126.858C99.8816 127.755 100.261 128.963 100.227 130.413C100.158 135.694 100.089 141.01 100.089 146.292C100.054 157.269 100.089 168.28 100.089 179.257C100.089 179.879 100.227 180.604 99.9851 181.121C99.778 181.57 99.1567 182.123 98.7425 182.123C95.6013 182.123 94.9799 181.605 94.0824 178.671C93.8063 177.704 93.2539 177.152 92.3909 177.773C92.0112 178.049 91.8732 178.878 91.8387 179.465C91.7351 180.673 91.3899 181.156 90.1127 180.638C88.7665 180.12 87.3512 179.81 86.0049 179.292C82.3114 177.877 79.1011 175.702 76.5122 172.63C75.7528 171.732 75.7528 171.042 76.7193 170.352C77.6513 169.696 78.6869 169.109 79.4463 168.28C79.8605 167.866 79.826 167.003 79.9986 166.347C79.3773 166.347 78.6178 166.175 78.1346 166.416C76.8228 167.107 75.6147 168.004 74.234 168.902C73.8543 168.315 73.44 167.832 73.2329 167.279C71.7831 163.068 70.2297 158.857 68.9525 154.576C68.1241 151.815 68.3312 151.815 70.7475 150.192C71.2998 149.813 71.5414 148.984 71.9211 148.363C71.1962 148.294 70.3678 147.914 69.781 148.156C68.2276 148.881 67.6753 148.397 67.5718 146.844C67.1921 141.632 66.8124 136.419 66.3636 131.207C66.191 129.343 66.7778 127.997 68.4692 127.065C68.918 126.823 69.0561 126.064 69.3322 125.58C68.7799 125.373 68.2276 125.166 67.7098 124.993C67.2611 124.821 66.6052 124.821 66.4326 124.51C65.7077 123.268 66.5017 120.437 67.5372 119.263C68.0895 118.677 68.3312 117.779 68.7109 117.054C67.917 117.02 67.123 116.985 66.3291 116.951C66.2255 116.951 66.122 116.916 65.8458 116.847C65.7078 116.329 65.5006 115.742 65.3971 115.121C64.396 109.84 62.2213 105.352 57.5613 102.245C54.9033 100.485 54.9723 100.381 56.0079 97.3437C56.1115 97.0331 56.3531 96.6188 56.2495 96.3772C56.0769 95.8594 55.8008 95.3071 55.4211 95.031C55.2485 94.8929 54.4545 95.3416 54.2474 95.6868C53.8332 96.3082 53.6606 97.0331 53.3844 97.7234C53.0047 98.69 52.487 99.1387 51.2788 98.69C48.5863 97.6889 48.5863 97.758 48.7243 94.9619C48.7589 94.4441 48.966 93.8918 48.8279 93.4086C48.6208 92.7872 48.2066 92.2349 47.8614 91.6826C47.4471 92.1659 46.8258 92.5456 46.6532 93.0979C46.2735 94.3406 46.1009 95.6178 45.8592 96.9985C34.9512 96.2046 25.8727 99.2423 19.6938 108.666C19.1415 108.286 18.7618 108.079 18.4166 107.803C17.6227 107.147 17.0014 105.594 15.8277 106.698C14.6195 107.872 16.1384 108.804 16.8288 109.529C18.0024 110.737 18.0714 111.876 17.312 113.257C16.9668 113.878 16.5871 114.465 16.38 115.121C15.9313 116.674 15.1719 117.468 13.4114 116.847C12.9626 116.674 12.3068 117.123 11.7544 117.296C12.0651 117.814 12.2722 118.677 12.7555 118.849C14.4469 119.505 14.3779 120.61 13.9637 122.025C11.6854 129.93 9.95947 137.973 9.26909 146.188C9.13102 147.638 8.85485 149.088 8.64773 150.71C7.75024 150.33 7.12892 149.916 6.47306 149.847C5.67912 149.778 4.81611 149.951 4.02217 150.054C4.4364 150.641 4.85066 151.262 5.2994 151.815C5.472 152.022 5.74814 152.195 6.02429 152.264C8.33707 153.092 8.61323 154.749 8.57871 157.027C8.50967 163.931 8.75131 170.8 8.9239 177.67C8.99294 179.879 9.26909 182.088 9.44169 184.573C8.61323 184.401 8.02641 184.366 7.54314 184.159C5.81719 183.4 4.09124 182.606 2.36528 181.812C1.60586 181.467 0.708361 180.845 0.156056 181.984C-0.396249 183.124 0.639322 183.538 1.36422 183.883C3.53892 184.919 5.74813 185.885 7.95735 186.852C9.44167 187.507 10.2701 188.509 10.5808 190.165C13.1352 204.111 19.6938 215.813 30.7054 224.892C31.0851 225.202 31.2922 225.755 31.6374 226.238C30.947 226.583 30.3947 226.721 30.0841 227.101C29.7043 227.515 29.5663 228.102 29.3247 228.62C29.8079 228.827 30.2912 229.137 30.809 229.172C31.2232 229.206 31.7065 228.999 32.1207 228.792C33.7086 228.067 35.0548 228.413 36.4701 229.379C39.1971 231.278 41.9932 233.142 44.8928 234.764C53.5916 239.7 62.8082 243.29 72.508 245.741C73.2329 245.914 73.9578 246.293 74.8553 246.639C73.578 248.399 72.3699 249.883 71.4379 251.471C71.1272 251.989 71.4034 252.852 71.4379 253.577C72.0592 253.301 72.8186 253.197 73.2329 252.748C74.5446 251.23 75.7528 249.607 76.9955 248.019C78.1001 246.639 79.4808 247.087 80.758 247.571C82.2078 248.088 81.3794 249.159 81.1378 250.056C80.9997 250.608 80.6545 251.161 80.689 251.713C80.7235 252.196 80.9997 252.887 81.3794 253.059C81.7246 253.197 82.5531 252.887 82.7602 252.507C83.2434 251.678 83.485 250.712 83.7612 249.78C84.0719 248.744 84.6932 248.226 85.7979 248.33C90.2508 248.71 94.7382 249.089 99.1912 249.504C100.261 249.607 100.848 250.16 100.883 251.299C100.952 253.266 101.124 255.199 101.193 257.167C101.262 259.204 101.193 261.24 101.193 263.587C99.3983 262.552 97.8105 261.551 96.119 260.722C95.5667 260.446 94.8073 260.688 94.1169 260.688C94.3931 261.344 94.4966 262.241 94.9799 262.655C96.0845 263.553 97.3962 264.174 98.6044 264.968C99.6054 265.624 101.159 266.211 101.366 267.108C101.987 269.559 101.987 272.148 102.263 274.668C102.056 274.772 101.849 274.841 101.608 274.944C100.296 274.116 99.0532 273.218 97.7069 272.493C97.2237 272.217 96.4642 272.459 95.8084 272.493C95.981 273.115 95.9464 273.909 96.3606 274.254C97.4307 275.186 98.6389 276.014 99.8816 276.705C101.677 277.775 102.505 279.259 102.609 281.365C102.85 286.405 103.195 291.479 103.541 296.519C103.713 298.831 104.058 299.004 106.337 298.797C107.717 298.659 107.89 297.934 107.856 296.829C107.545 288.717 107.269 280.64 106.993 272.528C106.993 272.045 107.027 271.354 107.338 271.147C107.614 270.94 108.304 271.113 108.718 271.32C109.754 271.838 110.652 272.562 111.722 273.011C112.239 273.218 112.93 273.011 113.551 272.977C113.344 272.355 113.31 271.492 112.861 271.147C111.515 270.112 110.03 269.18 108.511 268.351C107.303 267.661 106.682 266.798 106.613 265.348C106.199 253.957 105.405 242.6 105.301 231.243C105.129 214.847 105.405 198.45 105.508 182.053C105.612 169.35 105.681 156.647 105.819 143.91C105.957 134.59 105.922 125.27 106.475 115.984C107.2 104.213 108.442 92.5111 109.478 80.7746C109.512 80.2913 109.719 79.8081 109.892 79.1177C110.513 79.3938 110.962 79.7045 111.411 79.7735C111.963 79.8771 112.55 79.7735 113.137 79.7735C112.999 79.1522 112.999 78.4618 112.654 77.944C112.274 77.3917 111.48 77.1501 111.135 76.5978C110.721 75.9074 110.203 74.9754 110.375 74.3195C111.791 67.6919 113.24 61.0987 114.828 54.5056C115.588 51.4334 115.691 51.5024 118.522 52.9522C119.005 53.1939 119.73 52.9522 120.317 52.9522C120.11 52.3309 120.075 51.5715 119.696 51.0882C118.936 50.2597 118.004 49.6039 117.003 48.7754C118.073 46.8424 119.074 44.9783 120.213 42.9072C121.801 45.2545 123.078 47.2221 124.528 49.0861C124.839 49.5003 125.702 49.5348 126.323 49.742C126.323 49.0861 126.565 48.2576 126.289 47.7744C125.391 46.1175 124.287 44.5641 123.251 42.9762C121.629 40.4563 121.663 40.4908 123.355 38.109C130.086 28.7889 138.819 22.1267 149.727 18.5022C152.903 17.4321 156.217 16.7417 159.531 15.8442C159.807 16.5691 159.91 17.0869 160.186 17.3976C160.566 17.8809 161.118 18.2261 161.567 18.6403C161.843 18.088 162.361 17.5702 162.361 17.0179C162.396 15.7062 162.982 15.1539 164.26 15.0848C169.955 14.8087 175.616 14.498 181.312 14.2909C181.933 14.2564 182.831 14.6706 183.211 15.1539C184.005 16.1894 184.729 16.0859 185.731 15.6026C186.524 15.2229 187.525 14.8087 188.285 14.9813C193.739 16.0859 199.158 17.3976 204.198 19.883C210.446 22.9552 215.624 27.3391 219.904 32.7931C220.767 33.8977 220.94 34.9333 219.697 35.9343C219.49 36.1069 219.214 36.3831 219.179 36.6247C219.11 37.1425 219.007 37.8674 219.248 38.109C219.525 38.3507 220.284 38.2471 220.767 38.0745C221.32 37.8674 221.768 37.4532 222.286 37.108C222.528 37.4877 222.666 37.6603 222.804 37.8674C226.774 44.4951 229.052 51.7786 231.261 59.0966C231.951 61.3749 231.848 63.1008 229.432 64.1364C229.224 64.24 228.983 64.378 228.914 64.5506C228.707 64.9649 228.327 65.6552 228.5 65.8278C228.81 66.173 229.432 66.3801 229.915 66.4147C230.329 66.4147 230.743 66.0695 231.158 65.8623C232.262 65.2065 232.849 65.5172 233.091 66.7598C233.505 69.0726 234.092 71.3854 234.402 73.6982C235.99 86.3667 237.682 99.0006 239.062 111.704C240.305 123.129 241.203 134.59 242.204 146.05C243.653 163.103 245 180.189 246.484 197.276C247.83 212.672 249.211 228.102 250.972 243.463C251.42 247.536 250.868 250.401 247.381 252.714C245.552 253.922 244.137 255.752 242.583 257.374C242.342 257.616 242.204 258.41 242.376 258.548C242.687 258.858 243.308 259.065 243.723 258.996C244.171 258.927 244.62 258.513 244.965 258.168C246.76 256.546 248.521 254.889 250.316 253.301C250.592 253.059 251.041 252.99 251.558 252.783C251.731 253.784 251.938 254.509 252.007 255.234C252.456 261.413 252.974 267.626 253.284 273.805C253.595 279.535 253.664 285.3 253.871 291.03C253.975 293.895 254.251 294.137 256.771 294.033C260.154 293.895 260.154 293.895 259.946 290.271C259.946 290.098 259.946 289.926 259.946 289.753C259.222 277.084 258.531 264.381 257.703 251.713C257.53 248.813 257.254 246.052 260.085 244.222C260.119 244.188 260.188 244.153 260.188 244.084C260.257 243.566 260.326 243.049 260.395 242.565C259.877 242.496 259.325 242.324 258.807 242.427C258.359 242.531 257.944 242.876 257.496 243.152C256.391 240.529 256.805 238.665 258.669 236.939C259.601 236.076 260.499 235.178 261.224 234.177C261.603 233.659 261.569 232.796 261.741 232.106C260.982 232.313 260.154 232.382 259.532 232.796C258.566 233.452 257.772 234.35 256.564 235.42C256.322 234.143 256.08 233.28 256.011 232.382C255.735 229.793 255.563 227.239 255.321 224.65C254.561 216.987 253.802 209.324 253.043 201.66C252.939 200.59 253.25 200.072 254.32 199.865C257.806 199.244 261.362 198.139 263.813 202.04C263.916 202.178 264.054 202.351 264.192 202.385C264.71 202.523 265.262 202.592 265.815 202.661C265.815 202.109 265.987 201.419 265.746 200.97C265.366 200.176 264.745 199.486 264.158 198.726C264.572 198.485 264.745 198.346 264.952 198.277C265.435 198.105 265.953 198.001 266.436 197.863C274.824 196.103 283.247 194.48 291.255 191.374C293.05 190.683 294.638 190.649 296.33 191.65C296.916 191.995 297.848 191.753 298.642 191.788C298.366 191.063 298.055 190.338 297.779 189.613C297.745 189.51 297.71 189.406 297.71 189.302C298.884 187.956 300.196 187.715 301.991 188.474C302.681 188.75 303.337 189.199 304.027 189.337C304.545 189.406 305.132 189.061 305.684 188.923C305.477 188.405 305.374 187.784 305.063 187.369C304.752 186.955 304.2 186.679 303.51 186.161C304.269 185.609 304.787 185.16 305.408 184.78C314.245 179.223 321.045 172.008 323.703 161.584C324.29 159.271 325.256 157.752 327.88 157.787C328.329 157.787 328.846 157.649 329.192 157.407C329.606 157.131 329.848 156.613 330.158 156.233C329.744 155.923 329.33 155.37 328.881 155.336C327.914 155.232 326.948 155.405 326.016 155.439C325.498 153.368 325.809 152.885 327.914 151.849C328.363 151.642 328.743 151.124 328.915 150.676C328.985 150.469 328.467 149.778 328.156 149.744C326.361 149.537 326.741 148.363 326.775 147.189C327.086 139.802 327.362 132.381 327.604 124.993C327.673 122.853 327.845 120.851 329.813 119.505C330.124 119.298 330.469 118.987 330.641 118.642C330.849 118.159 330.849 117.606 330.952 117.123C330.434 116.916 329.882 116.743 329.364 116.847ZM98.1556 243.428C93.2884 242.945 88.4558 242.324 83.5886 241.737C83.2089 241.702 82.6566 241.564 82.5185 241.288C81.6211 239.631 80.4819 240.149 79.0321 240.46C77.893 240.701 76.5467 240.287 75.3386 239.976C64.2925 237.215 53.8331 233.038 44.1333 226.997C43.6845 226.721 43.2703 226.341 42.7525 225.927C43.0977 225.513 43.3739 225.306 43.512 224.995C43.7191 224.546 43.9953 223.96 43.8572 223.649C43.6846 223.338 42.9252 223.028 42.6145 223.131C39.6804 224.339 37.7128 222.717 35.7107 221.025C28.6688 215.157 23.1457 208.15 19.6938 199.589C17.3465 193.721 16.38 187.542 15.6206 181.329C14.7231 173.942 14.516 166.554 14.6886 159.133C14.7231 157.649 15.1028 157.269 16.5526 157.821C17.1049 158.028 17.8643 157.649 18.5202 157.545C18.2095 156.889 18.0024 155.854 17.5192 155.681C15.1028 154.818 14.9992 153.057 15.1718 150.952C16.0003 140.32 17.7608 129.861 21.3508 119.781C21.8685 118.297 22.2482 116.64 24.0087 115.949C24.2503 115.846 24.5955 115.363 24.5265 115.156C23.8361 112.739 25.493 111.22 26.7702 109.702C31.2577 104.317 37.2295 102.763 43.9607 103.246C44.8582 103.316 45.4105 103.661 45.5141 104.696C45.5486 105.18 45.9629 105.87 46.3426 105.973C46.7223 106.077 47.4471 105.663 47.6888 105.283C48.3792 104.213 49.2077 104.455 50.0706 104.834C55.6627 107.32 59.2527 111.393 59.874 117.675C59.9776 118.538 60.0466 119.401 60.2192 120.23C60.4608 121.749 60.0121 122.922 58.7004 123.785C58.4243 123.958 58.0445 124.165 57.9409 124.441C57.6993 125.063 57.5957 125.753 57.4231 126.443C58.079 126.443 58.7349 126.443 59.3562 126.409C59.5633 126.409 59.7704 126.271 60.2882 126.029C60.4263 127.41 60.6679 128.618 60.7024 129.826C60.875 139.146 61.5309 148.432 63.7747 157.545C65.0864 162.964 66.8123 168.28 69.8845 173.009C74.4756 180.155 81.0342 184.47 89.3188 186.092C91.9768 186.61 92.6671 187.266 92.6671 189.924C92.6671 190.614 92.6671 191.305 92.6671 191.995C92.7016 192.961 92.7707 194.101 93.9789 193.963C94.4276 193.894 94.9799 192.616 95.0835 191.857C95.2215 190.614 94.9799 189.337 94.9109 188.094C94.9109 187.991 95.0144 187.887 95.0489 187.784C95.1525 187.715 95.256 187.611 95.3251 187.611C100.089 187.162 100.054 187.162 100.054 191.891C100.054 201.557 100.02 211.222 100.054 220.887C100.089 227.653 100.296 234.453 100.434 241.219C100.434 243.221 100.158 243.635 98.1556 243.428ZM320.113 148.57C320.044 149.606 319.63 150.296 318.491 150.469C317.938 150.538 317.317 150.641 316.834 150.883C316.454 151.09 315.902 151.677 315.971 151.953C316.109 152.402 316.627 152.885 317.076 152.988C319.319 153.506 319.319 153.472 318.767 155.681C317.559 160.41 316.351 165.139 313.485 169.212C310.482 173.527 306.547 176.876 302.06 179.499C298.953 181.329 295.605 182.744 292.36 184.332C290.599 185.195 288.942 185.022 287.286 183.952C286.388 183.365 285.387 182.882 284.42 182.364C283.627 181.95 282.625 181.536 282.246 182.64C282.108 183.055 282.867 183.952 283.385 184.401C284.144 185.057 285.042 185.505 285.905 186.058C285.905 186.265 285.87 186.437 285.87 186.645C282.453 187.611 279.105 188.716 275.618 189.441C269.094 190.821 262.535 191.926 255.977 193.169C255.701 193.238 255.424 193.272 255.114 193.307C252.456 193.652 252.352 193.479 252.111 190.787C251.179 179.395 250.212 168.004 249.28 156.578C248.831 151.124 248.486 145.705 248.072 140.251C248.003 139.112 248.417 138.525 249.591 138.456C253.595 138.283 257.461 137.524 261.051 135.66C262.018 135.142 262.881 135.349 263.709 136.143C264.089 136.488 264.779 136.419 265.331 136.523C265.366 135.902 265.642 135.177 265.4 134.728C264.917 133.865 264.952 133.244 265.677 132.622C271.89 127.03 273.892 119.574 274.893 111.669C275.998 102.936 277.033 94.2025 278.38 85.5382C278.794 82.8112 280.209 80.2223 281.176 77.5988C281.314 77.2191 281.693 76.9084 282.211 76.2526C283.281 78.2547 284.144 79.9116 285.076 81.534C285.387 82.0863 285.629 82.7077 286.077 83.1219C286.388 83.398 287.078 83.5706 287.424 83.398C287.734 83.2254 288.01 82.466 287.872 82.1208C287.458 80.9817 286.871 79.9461 286.354 78.8415C285.801 77.7024 285.318 76.5287 284.697 75.4241C283.903 73.9743 284.282 72.8697 285.56 72.0067C291.255 68.2096 297.262 66.8979 303.855 69.4523C307.099 70.695 309.171 73.1113 311.035 75.8729C313.762 79.9116 314.832 84.5717 316.316 89.0937C316.523 89.7495 316.212 90.7851 315.798 91.4065C315.004 92.5801 313.831 93.5121 313.002 94.6858C312.657 95.169 312.795 95.963 312.726 96.6188C313.347 96.4807 314.038 96.5153 314.521 96.2046C315.177 95.7904 315.695 95.1 316.247 94.5477C317.11 93.6847 317.766 93.7538 318.008 95.031C318.56 98.1377 319.25 101.244 319.595 104.351C320.217 109.874 320.596 115.466 321.218 120.989C321.425 122.75 320.907 124.027 319.63 125.097C319.354 125.304 319.009 125.511 318.87 125.787C318.56 126.443 318.353 127.168 318.111 127.859C318.836 127.859 319.526 127.859 320.251 127.824C320.458 127.824 320.7 127.755 321.149 127.686C321.218 128.342 321.356 128.929 321.321 129.515C320.976 135.971 320.527 142.288 320.113 148.57Z" fill="#83838F"/>
<path d="M216.832 79.8771C207.063 76.7014 197.329 80.6365 193.152 89.9912C192.945 90.4745 192.462 90.8196 192.117 91.2684C191.737 90.8887 191.253 90.578 191.012 90.1293C188.319 85.193 184.488 81.6376 179.034 79.8081C170.887 77.1156 162.534 79.5319 157.632 86.2286C156.493 87.782 155.63 89.5425 154.525 91.4065C154.076 90.8197 153.697 90.4745 153.455 90.0602C150.625 84.7098 146.344 81.0853 140.476 79.5319C133.158 77.5989 126.53 79.0487 121.421 84.7443C112.619 94.5477 114.103 110.116 125.391 117.606C134.987 123.958 148.381 120.886 153.524 110.565C153.835 109.943 154.284 109.391 154.87 108.528C159.289 115.915 164.881 120.955 173.752 120.817C182.52 120.679 188.63 116.502 192.117 108.528C194.326 111.186 196.086 113.74 198.33 115.846C206.649 123.682 220.974 122.163 227.36 112.843C235.645 100.865 229.673 84.0884 216.832 79.8771ZM141.96 114.914C136.403 117.02 129.533 115.19 125.253 110.599C120.938 105.974 119.109 100.658 120.8 94.4442C122.837 87.0571 131.363 82.397 138.819 84.4336C145.792 86.3322 151.246 93.5121 151.211 100.727C151.177 107.044 147.38 112.843 141.96 114.914ZM183.107 112.636C178.758 116.433 172.406 116.951 166.676 113.671C160.532 110.15 156.873 103.557 157.943 95.9975C158.909 88.9556 166.4 83.7087 172.648 84.0194C178.412 84.0194 182.52 86.9535 185.661 91.4755C190.46 98.3448 189.389 107.182 183.107 112.636ZM216.867 114.948C211.136 117.123 204.336 115.121 200.125 110.357C196.017 105.732 194.533 100.554 195.948 94.4096C197.536 87.5403 206.925 82.2244 214.381 84.6062C220.974 86.6774 226.843 94.1335 226.29 100.865C226.567 107.596 222.045 112.981 216.867 114.948Z" fill="#83838F"/>
<path d="M225.841 128.48C224.944 127.444 224.012 127.824 223.114 128.549C222.7 128.86 222.355 129.239 221.941 129.55C218.109 132.45 214.45 135.694 210.377 138.18C195.119 147.5 178.757 151.884 160.807 148.604C149.382 146.533 139.406 141.735 131.501 133.14C128.739 130.102 126.53 126.547 123.976 123.337C123.561 122.784 122.698 122.439 122.008 122.335C121.628 122.266 120.8 122.922 120.765 123.267C120.731 124.13 120.834 125.166 121.283 125.822C123.009 128.445 124.873 131 126.772 133.52C127.773 134.866 128.222 136.143 127.497 137.835C126.944 139.146 126.806 140.596 126.427 142.357C126.841 143.116 127.151 144.428 127.911 144.773C128.774 145.153 130.086 144.807 131.087 144.428C131.881 144.117 132.64 143.392 133.123 142.633C134.193 141.079 135.091 141.563 136.403 142.357C139.613 144.359 142.892 146.257 146.24 147.983C147.621 148.674 148.139 149.467 148.243 150.986C148.312 152.609 148.553 154.335 149.209 155.784C150.279 158.166 152.247 158.58 154.249 156.889C155.353 155.957 156.113 154.611 156.907 153.368C157.459 152.54 157.908 152.022 159.082 152.16C163.638 152.643 168.229 153.057 172.786 153.368C173.994 153.437 174.65 153.851 175.167 154.921C175.858 156.268 176.652 157.683 177.687 158.753C179.103 160.237 181.346 159.961 182.485 158.27C183.21 157.2 183.832 155.923 184.039 154.68C184.35 152.816 185.385 151.987 187.111 151.711C187.663 151.608 188.25 151.608 188.802 151.401C193.255 149.882 197.708 148.432 202.127 146.775C204.647 145.808 204.819 145.739 206.821 147.569C207.443 148.156 208.168 148.639 208.927 149.053C211.274 150.365 213.691 149.295 214.139 146.671C214.347 145.394 214.381 144.048 214.278 142.736C214.139 141.148 214.588 139.94 215.934 139.043C217.35 138.076 218.8 137.11 220.111 136.04C221.975 134.521 223.77 132.864 225.531 131.241C226.394 130.447 226.67 129.446 225.841 128.48ZM129.74 142.218C129.395 142.149 129.119 141.597 128.877 141.355C129.119 140.423 129.223 139.664 129.533 139.008C129.74 138.559 130.431 137.835 130.534 137.904C131.19 138.283 131.95 138.732 132.226 139.353C132.675 140.32 130.776 142.46 129.74 142.218ZM152.212 154.956C150.176 155.094 151.211 152.747 150.141 151.401C150.762 150.952 151.384 150.192 151.729 150.33C152.799 150.71 153.766 151.401 154.767 151.987C153.938 153.023 153.144 154.921 152.212 154.956ZM179.586 156.993C178.723 156.889 177.239 154.887 177.584 153.92C178.171 152.298 179.689 153.196 180.829 153.023C181.174 152.988 181.623 153.575 181.83 153.748C181.553 156.026 180.691 157.131 179.586 156.993ZM211.723 146.395C211.412 147.396 210.101 147.327 209.238 146.602C208.547 146.016 207.926 145.36 207.029 144.497C208.409 143.737 209.617 143.047 210.86 142.426C211.067 142.322 211.62 142.426 211.654 142.46C211.723 143.772 212.103 145.187 211.723 146.395Z" fill="#83838F"/>
<path d="M127.324 183.918C127.083 184.194 126.703 184.953 126.427 184.919C125.909 184.815 125.253 184.401 125.08 183.952C123.976 181.052 122.975 178.118 122.008 175.184C121.283 173.079 120.558 170.938 120.006 168.798C119.868 168.177 120.351 167.417 120.524 166.727C121.076 167.176 121.905 167.555 122.112 168.142C123.769 172.802 125.322 177.462 126.876 182.157C127.048 182.64 127.152 183.124 127.324 183.918Z" fill="#83838F"/>
<path d="M230.502 203.524C229.949 204.491 229.708 205.078 229.328 205.561C226.497 209.462 223.632 213.328 220.767 217.194C220.56 217.47 220.353 217.815 220.077 217.953C219.559 218.195 218.972 218.264 218.42 218.402C218.385 217.781 218.075 217.021 218.316 216.573C219.007 215.33 219.939 214.225 220.767 213.052C222.976 210.048 225.186 207.08 227.429 204.077C227.74 203.662 228.085 203.11 228.499 203.041C229.052 203.007 229.673 203.317 230.502 203.524Z" fill="#83838F"/>
<path d="M160.256 216.227C159.669 215.848 158.806 215.606 158.599 215.088C156.769 210.532 155.043 205.906 153.317 201.315C153.214 201.039 153.179 200.763 153.041 200.245C153.214 200.038 153.455 199.451 153.697 199.417C154.18 199.417 154.905 199.624 155.078 199.969C156.01 201.936 156.873 203.904 157.667 205.941C158.737 208.668 159.772 211.395 160.67 214.156C160.877 214.708 160.428 215.502 160.256 216.227Z" fill="#83838F"/>
<path d="M171.267 191.684C170.991 192.029 170.611 192.478 170.231 192.961C169.783 192.513 169.023 192.168 168.92 191.65C168.022 187.093 167.159 182.537 166.469 177.946C166.365 177.29 167.056 176.53 167.401 175.84C167.849 176.427 168.574 176.979 168.678 177.6C169.575 182.157 170.369 186.748 171.267 191.684Z" fill="#83838F"/>
<path d="M183.349 241.599C182.969 243.014 182.727 244.119 182.417 245.223C181.45 248.537 180.518 251.817 179.414 255.096C179.206 255.683 178.343 256.028 177.791 256.477C177.584 255.821 177.066 255.096 177.204 254.509C178.412 250.16 179.69 245.81 181.07 241.495C181.209 241.047 181.933 240.46 182.348 240.494C182.727 240.494 183.072 241.288 183.349 241.599Z" fill="#83838F"/>
<path d="M208.375 183.227C208.271 183.227 208.168 183.227 208.064 183.227C208.064 186.61 208.133 189.993 207.995 193.341C207.961 193.963 207.339 195.033 206.891 195.102C205.682 195.274 205.683 194.135 205.717 193.272C205.752 188.957 205.752 184.642 205.924 180.362C205.959 179.672 206.684 179.016 207.098 178.36C207.512 179.05 208.133 179.706 208.341 180.466C208.548 181.329 208.375 182.295 208.375 183.227Z" fill="#83838F"/>
<path d="M230.709 251.264C230.156 252.783 229.673 254.06 229.19 255.337C228.085 258.099 226.981 260.86 225.842 263.622C225.738 263.898 225.703 264.243 225.496 264.381C224.944 264.761 224.323 265.037 223.736 265.348C223.598 264.692 223.115 263.933 223.322 263.415C224.495 260.308 225.807 257.27 227.084 254.198C227.567 253.025 227.982 251.851 228.603 250.746C228.81 250.367 229.57 249.987 229.949 250.091C230.294 250.229 230.502 250.919 230.709 251.264Z" fill="#83838F"/>
<path d="M183.418 41.3883C183.245 43.9773 183.038 46.5317 182.727 49.0861C182.658 49.6729 182.002 50.1907 181.623 50.743C181.243 50.1216 180.587 49.5348 180.587 48.9135C180.518 47.153 180.691 45.358 180.794 43.5975C180.829 43.5975 180.829 43.5975 180.863 43.5975C180.967 41.768 181.036 39.9385 181.139 38.109C181.174 37.5222 181.174 36.9008 181.416 36.4176C181.657 35.9688 182.244 35.6582 182.658 35.2785C182.969 35.6927 183.521 36.1069 183.521 36.5557C183.59 38.1781 183.521 39.8005 183.418 41.3883Z" fill="#83838F"/>
<path d="M139.13 250.332C139.026 250.884 138.785 251.437 138.577 251.989C138.094 251.782 137.404 251.678 137.162 251.333C136.334 249.952 135.643 248.503 134.987 247.053C133.883 244.706 132.813 242.358 131.708 240.011C131.259 239.044 131.398 238.354 133.089 237.457C133.365 238.009 133.641 238.596 133.917 239.148C135.574 242.634 137.197 246.121 138.819 249.573C138.957 249.814 139.199 250.091 139.13 250.332Z" fill="#83838F"/>
<path d="M193.911 46.7733C193.118 50.812 192.22 54.8508 191.254 58.855C191.15 59.2692 190.39 59.5108 189.907 59.8215C189.562 59.3037 189.251 58.7859 188.941 58.3717C189.873 54.1949 190.736 50.2597 191.702 46.3936C191.806 45.9448 192.634 45.6342 193.118 45.289C193.428 45.7722 193.981 46.3245 193.911 46.7733Z" fill="#83838F"/>
<path d="M170.197 69.0726C170.093 69.5904 169.507 69.9701 169.127 70.4188C168.713 70.0046 167.988 69.6249 167.953 69.2107C167.643 65.2755 167.401 61.3403 167.228 57.3706C167.194 56.9219 167.85 56.4386 168.16 55.9899C168.575 56.4041 169.299 56.7838 169.369 57.2671C169.748 60.2012 169.99 63.1698 170.232 65.6552C170.232 67.1395 170.37 68.1406 170.197 69.0726Z" fill="#83838F"/>
<path d="M176.583 185.954C176.548 189.786 176.41 193.652 176.169 197.484C176.134 198.001 175.444 198.485 175.03 198.968C174.615 198.416 173.856 197.932 173.821 197.38C173.683 195.378 173.752 193.376 173.752 191.374H174.132C174.132 189.579 174.029 187.784 174.201 186.023C174.27 185.333 174.995 184.677 175.409 184.021C175.823 184.677 176.583 185.298 176.583 185.954Z" fill="#83838F"/>
<path d="M226.187 161.722C225.462 163.62 224.841 165.277 224.219 166.934C223.529 168.764 222.942 170.628 222.114 172.388C221.837 172.975 221.009 173.251 220.422 173.7C220.25 173.01 219.801 172.181 219.973 171.594C221.009 168.488 222.183 165.45 223.322 162.412C223.494 161.998 223.632 161.48 223.978 161.204C224.357 160.859 224.979 160.479 225.358 160.583C225.738 160.686 225.945 161.377 226.187 161.722Z" fill="#83838F"/>
<path d="M154.491 61.1678C153.904 60.7881 152.972 60.5464 152.73 59.9941C151.384 56.9564 150.176 53.8497 149.037 50.743C148.864 50.2252 149.278 49.5003 149.416 48.879C149.624 48.879 149.865 48.8445 150.072 48.8445C150.452 49.2932 151.004 49.6384 151.211 50.1562C152.454 53.0903 153.697 56.0589 154.767 59.0621C155.043 59.6489 154.629 60.4774 154.491 61.1678Z" fill="#83838F"/>
<path d="M193.601 206.838C193.048 209.703 192.393 212.568 191.633 215.399C191.564 215.71 190.598 216.158 190.321 216.02C189.907 215.813 189.7 215.123 189.458 214.743C190.149 211.809 190.736 209.116 191.461 206.458C191.564 206.079 192.358 205.561 192.738 205.63C193.083 205.699 193.67 206.493 193.601 206.838Z" fill="#83838F"/>
<path d="M216.142 30.8945C215.831 31.6539 215.624 32.2408 215.348 32.7931C214.381 34.6226 213.484 36.4866 212.379 38.2126C212.034 38.7303 211.171 38.9375 210.515 39.2481C210.446 38.5923 210.066 37.7638 210.343 37.246C211.413 35.0368 212.586 32.8621 213.829 30.7564C214.071 30.3422 214.796 30.1006 215.348 29.997C215.555 29.997 215.9 30.6184 216.142 30.8945Z" fill="#83838F"/>
<path d="M202.576 188.06C202.61 188.405 201.782 189.095 201.609 189.026C201.092 188.785 200.436 188.336 200.367 187.887C200.091 186.299 200.022 184.677 199.883 183.089C199.849 183.089 199.849 183.089 199.814 183.089C199.814 182.123 199.711 181.122 199.849 180.189C199.918 179.741 200.401 179.188 200.815 179.05C201.092 178.947 201.886 179.534 201.92 179.844C202.231 182.571 202.438 185.298 202.576 188.06Z" fill="#83838F"/>
<path d="M123.424 250.367C122.837 250.505 121.974 250.953 121.698 250.746C119.592 249.089 117.555 247.294 115.588 245.465C115.346 245.258 115.45 244.464 115.622 244.05C115.691 243.843 116.485 243.67 116.658 243.808C118.833 245.638 120.973 247.536 123.113 249.435C123.286 249.504 123.251 249.745 123.424 250.367Z" fill="#83838F"/>
<path d="M233.332 162.343C233.229 162.792 233.229 163.103 233.056 163.344C231.675 165.312 230.329 167.314 228.879 169.247C228.638 169.558 227.878 169.523 227.395 169.627C227.291 169.109 226.981 168.418 227.188 168.108C228.5 166.037 229.88 164 231.365 161.998C231.606 161.687 232.262 161.584 232.745 161.618C232.953 161.618 233.16 162.101 233.332 162.343Z" fill="#83838F"/>
<path d="M190.77 247.225C189.631 249.02 188.423 250.781 187.077 252.403C186.731 252.818 185.834 252.783 185.213 252.956C185.247 252.3 185.074 251.506 185.385 251.023C186.386 249.4 187.525 247.916 188.664 246.397C188.975 245.983 189.458 245.672 189.769 245.43C191.15 245.672 191.288 246.432 190.77 247.225Z" fill="#83838F"/>
<path d="M50.3466 214.881C50.2776 215.226 49.6218 215.433 49.2076 215.744C47.5161 215.054 45.8937 214.467 44.3404 213.776C41.9585 212.775 39.5767 211.809 37.2639 210.635C36.6426 210.325 36.2974 209.462 35.8486 208.84C36.6081 208.737 37.5056 208.288 38.1269 208.564C41.7169 209.945 45.2379 211.498 48.7588 212.983C49.1385 213.155 49.5182 213.328 49.7598 213.604C50.036 213.984 50.4157 214.501 50.3466 214.881Z" fill="#83838F"/>
<path d="M48.1376 185.816C47.827 186.196 47.4472 186.955 47.1711 186.886C46.6533 186.817 45.963 186.403 45.7559 185.954C45.169 184.539 44.7547 183.02 44.306 181.536C43.5811 179.188 42.8217 176.841 42.2694 174.425C42.1313 173.803 42.58 173.01 42.7526 172.285C43.3395 172.768 44.2715 173.148 44.4786 173.734C45.7558 177.704 46.895 181.674 48.1376 185.816Z" fill="#83838F"/>
<path d="M39.3351 178.74C39.1625 178.947 38.8173 179.568 38.6447 179.534C38.0579 179.361 37.2985 179.119 37.0223 178.636C35.7451 176.599 34.5715 174.494 33.3978 172.388C32.8455 171.456 32.2586 170.524 31.8789 169.523C31.7063 169.109 31.879 168.28 32.1896 168.073C32.5003 167.866 33.4668 168.004 33.6394 168.315C35.5725 171.491 37.3675 174.735 39.2315 177.98C39.266 178.118 39.266 178.325 39.3351 178.74Z" fill="#83838F"/>
<path d="M80.2057 226.272C79.6879 227.066 79.5154 227.446 79.2393 227.722C77.0991 230.104 74.9244 232.451 72.7497 234.833C72.6806 234.937 72.5771 235.04 72.5081 235.075C71.8522 235.178 71.2308 235.247 70.575 235.351C70.6785 234.764 70.5404 233.97 70.8511 233.59C72.4735 231.657 74.1995 229.828 75.9254 227.964C76.6158 227.204 77.3062 226.376 78.1691 225.858C78.5143 225.617 79.3082 226.065 80.2057 226.272Z" fill="#83838F"/>
<path d="M91.1138 202.696C90.8722 203.076 90.527 203.524 90.2163 204.008C89.733 203.628 88.9046 203.352 88.8011 202.903C88.0762 199.9 87.4548 196.897 86.937 193.859C86.868 193.41 87.4548 192.858 87.731 192.375C88.1797 192.685 88.9046 192.892 89.0081 193.272C89.733 196.275 90.3889 199.348 91.1138 202.696Z" fill="#83838F"/>
<path d="M72.2663 226.618C71.8176 227.066 71.4034 227.791 70.8856 227.895C68.2966 228.343 65.6732 228.62 63.0843 228.93C63.0843 228.896 63.0843 228.861 63.0843 228.827C62.6701 228.827 62.2213 228.93 61.9106 228.792C61.4964 228.62 60.9441 228.24 60.9096 227.895C60.8751 227.515 61.3238 226.825 61.669 226.756C64.7757 226.272 67.8825 225.858 71.0237 225.547C71.3689 225.547 71.8176 226.272 72.2663 226.618Z" fill="#83838F"/>
<path d="M70.1263 194.101C69.8846 194.377 69.4359 194.86 68.9871 195.343C68.5729 194.895 67.8825 194.48 67.7789 193.963C67.3302 191.719 66.985 189.441 66.847 187.162C66.8124 186.506 67.5028 185.816 67.8825 185.126C68.3658 185.678 69.1597 186.196 69.2633 186.852C69.6775 189.095 69.8501 191.408 70.1263 194.101Z" fill="#83838F"/>
<path d="M46.0319 144.29C45.307 147.051 44.4786 149.778 43.6156 152.505C43.512 152.816 42.7181 153.265 42.442 153.127C42.0277 152.919 41.7861 152.333 41.5444 151.953C42.4074 149.053 43.2014 146.361 44.0643 143.703C44.1679 143.392 44.9619 143.081 45.3071 143.151C45.6177 143.289 46.1009 143.979 46.0319 144.29Z" fill="#83838F"/>
<path d="M40.5089 137.766C40.3363 139.457 40.2327 141.183 39.9221 142.874C39.8185 143.392 39.0937 143.772 38.6794 144.221C38.3688 143.737 37.7474 143.254 37.7819 142.771C37.8855 140.32 38.0581 137.869 38.3342 135.453C38.3688 135.073 39.0246 134.762 39.3698 134.417C39.715 134.797 40.2672 135.142 40.3363 135.591C40.5089 136.281 40.3708 137.075 40.3708 137.8C40.4399 137.766 40.4744 137.766 40.5089 137.766Z" fill="#83838F"/>
<path d="M317.8 123.406C315.936 126.271 313.969 129.101 312.001 131.897C311.69 132.346 311.173 132.622 310.862 132.864C309.55 132.76 309.067 132.104 309.654 131.241C311.69 128.135 313.796 125.097 316.005 122.094C316.281 121.714 317.179 121.749 317.8 121.611C317.766 122.197 318.076 122.991 317.8 123.406Z" fill="#83838F"/>
<path d="M288.735 114.707C288.77 114.707 288.77 114.707 288.804 114.707C288.632 116.812 288.563 118.953 288.287 121.058C288.183 121.714 287.527 122.301 287.113 122.922C286.733 122.301 286.043 121.714 286.077 121.127C286.181 117.848 286.388 114.569 286.699 111.324C286.768 110.772 287.493 110.288 287.907 109.771C288.218 110.323 288.77 110.875 288.839 111.462C288.942 112.532 288.77 113.637 288.735 114.707Z" fill="#83838F"/>
<path d="M295.881 106.284C295.605 106.698 295.225 107.285 294.88 107.837C294.397 107.32 293.534 106.871 293.43 106.319C292.912 103.454 292.498 100.554 292.222 97.6544C292.153 97.1711 292.809 96.6188 293.119 96.101C293.568 96.5152 294.327 96.895 294.431 97.3782C294.983 100.174 295.398 103.074 295.881 106.284Z" fill="#83838F"/>
<path d="M280.174 154.093C279.933 154.68 279.829 155.06 279.657 155.405C278.345 157.683 277.033 159.961 275.652 162.205C275.204 162.93 274.617 163.896 273.685 163.103C273.305 162.792 273.34 161.549 273.65 160.997C274.928 158.615 276.308 156.337 277.758 154.059C278.034 153.61 278.828 153.403 279.415 153.265C279.622 153.23 279.933 153.817 280.174 154.093Z" fill="#83838F"/>
<path d="M306.202 151.78C306.029 152.367 305.995 153.23 305.615 153.541C303.578 155.06 301.473 156.44 299.367 157.856C298.849 158.201 298.297 158.477 297.641 158.857C297.227 158.581 296.709 158.408 296.606 158.097C296.502 157.752 296.64 157.062 296.916 156.889C299.54 155.025 302.198 153.196 304.89 151.47C305.132 151.263 305.753 151.642 306.202 151.78Z" fill="#83838F"/>
<path d="M285.525 115.466C285.214 115.811 284.8 116.295 284.351 116.778C283.937 116.329 283.281 115.915 283.178 115.397C282.694 113.222 282.28 111.013 282.039 108.804C281.969 108.217 282.591 107.596 282.901 106.975C283.419 107.423 284.248 107.803 284.386 108.321C284.834 110.53 285.111 112.843 285.525 115.466Z" fill="#83838F"/>
<path d="M306.34 80.9817C305.788 83.1909 305.132 85.3656 304.407 87.5403C304.303 87.851 303.475 88.1962 303.199 88.0581C302.785 87.8855 302.578 87.2642 302.232 86.8154C302.923 84.6062 303.544 82.5006 304.304 80.4639C304.442 80.1187 305.201 79.67 305.443 79.7735C305.857 79.9807 306.409 80.671 306.34 80.9817Z" fill="#83838F"/>
<path d="M311.829 154.956C311.173 155.784 310.966 156.337 310.551 156.544C308.964 157.338 307.376 158.132 305.719 158.719C305.236 158.891 304.545 158.477 303.924 158.339C304.234 157.821 304.407 157.027 304.856 156.786C306.409 155.923 308.032 155.198 309.654 154.576C310.172 154.438 310.862 154.783 311.829 154.956Z" fill="#83838F"/>
<path d="M140.442 104.348C140.476 105.833 139.233 106.868 137.68 106.903C136.196 106.937 135.126 106.109 134.78 104.659C134.401 102.864 134.194 101.069 133.917 99.2396C133.952 99.2396 134.021 99.2396 134.056 99.2396C134.056 98.6528 134.021 98.1005 134.056 97.5136C134.194 96.0293 134.78 94.8212 136.403 94.5105C138.06 94.1998 139.268 95.3044 139.544 96.5816C140.131 99.136 140.407 101.759 140.442 104.348Z" fill="#7D7D88"/>
<path d="M178.585 101.759C178.447 101.794 178.309 101.863 178.136 101.932C178.102 102.795 178.136 103.658 177.964 104.486C177.688 105.971 176.652 106.799 175.237 106.903C173.96 107.006 172.717 106.454 172.475 105.108C172.026 102.415 171.647 99.6881 171.647 96.9956C171.647 96.1671 172.82 94.9244 173.718 94.6828C174.477 94.4412 176.065 95.097 176.41 95.7874C177.377 97.6169 177.86 99.7226 178.585 101.759Z" fill="#7D7D88"/>
<path d="M216.211 102.242C216.107 102.277 216.038 102.277 215.935 102.311V102.657C215.9 105.176 214.692 106.833 212.862 106.937C211.067 107.04 209.721 105.487 209.48 102.898C209.307 101.241 209.134 99.5843 209.065 97.9274C209.031 96.2015 210.066 94.8207 211.413 94.51C212.793 94.1994 214.14 94.9933 214.795 96.7883C215.417 98.5488 215.727 100.413 216.211 102.242Z" fill="#7D7D88"/>
</svg>
