<svg width="26" height="26" viewBox="0 0 26 26" fill="none" xmlns="http://www.w3.org/2000/svg">
<path d="M25.2778 0H0.722222C0.530677 0 0.346977 0.0760912 0.211534 0.211534C0.0760912 0.346977 0 0.530677 0 0.722222V25.2778C0 25.4693 0.0760912 25.653 0.211534 25.7885C0.346977 25.9239 0.530677 26 0.722222 26H25.2778C25.4693 26 25.653 25.9239 25.7885 25.7885C25.9239 25.653 26 25.4693 26 25.2778V0.722222C26 0.530677 25.9239 0.346977 25.7885 0.211534C25.653 0.0760912 25.4693 0 25.2778 0ZM10.1111 3.61111C10.1111 3.75395 10.0688 3.89359 9.9894 4.01236C9.91004 4.13113 9.79724 4.22369 9.66527 4.27836C9.5333 4.33302 9.38809 4.34732 9.24799 4.31946C9.10789 4.29159 8.9792 4.2228 8.8782 4.1218C8.77719 4.02079 8.70841 3.89211 8.68054 3.75201C8.65268 3.61191 8.66698 3.4667 8.72164 3.33473C8.77631 3.20276 8.86887 3.08996 8.98764 3.01061C9.10641 2.93125 9.24605 2.88889 9.38889 2.88889C9.58043 2.88889 9.76413 2.96498 9.89958 3.10042C10.035 3.23587 10.1111 3.41957 10.1111 3.61111ZM7.22222 3.61111C7.22222 3.75395 7.17986 3.89359 7.10051 4.01236C7.02115 4.13113 6.90835 4.22369 6.77638 4.27836C6.64441 4.33302 6.4992 4.34732 6.3591 4.31946C6.219 4.29159 6.09032 4.2228 5.98931 4.1218C5.88831 4.02079 5.81952 3.89211 5.79166 3.75201C5.76379 3.61191 5.77809 3.4667 5.83275 3.33473C5.88742 3.20276 5.97999 3.08996 6.09875 3.01061C6.21752 2.93125 6.35716 2.88889 6.5 2.88889C6.69155 2.88889 6.87525 2.96498 7.01069 3.10042C7.14613 3.23587 7.22222 3.41957 7.22222 3.61111ZM3.61111 2.88889C3.75395 2.88889 3.89359 2.93125 4.01236 3.01061C4.13113 3.08996 4.22369 3.20276 4.27836 3.33473C4.33302 3.4667 4.34732 3.61191 4.31946 3.75201C4.29159 3.89211 4.2228 4.02079 4.1218 4.1218C4.02079 4.2228 3.89211 4.29159 3.75201 4.31946C3.61191 4.34732 3.4667 4.33302 3.33473 4.27836C3.20276 4.22369 3.08996 4.13113 3.01061 4.01236C2.93125 3.89359 2.88889 3.75395 2.88889 3.61111C2.88889 3.41957 2.96498 3.23587 3.10042 3.10042C3.23587 2.96498 3.41957 2.88889 3.61111 2.88889ZM24.5556 24.5556H1.44444V7.22222H10.8333C10.9284 7.22277 11.0226 7.20455 11.1106 7.16861C11.1986 7.13267 11.2786 7.07971 11.3461 7.01278L14.0183 4.33333H24.5556V24.5556Z" fill="#6A65CD"/>
<path d="M10.8983 9.07831L10.2916 10.3855C10.0413 10.5026 9.79995 10.6378 9.56938 10.79L8.12493 10.6672C7.98807 10.6559 7.85083 10.6839 7.72931 10.7479C7.60779 10.8118 7.50702 10.9091 7.43882 11.0283L5.99438 13.5272C5.92118 13.6428 5.88232 13.7768 5.88232 13.9136C5.88232 14.0504 5.92118 14.1844 5.99438 14.3L6.81771 15.4844C6.81771 15.6144 6.81771 15.7516 6.81771 15.8889C6.81771 16.0261 6.81771 16.1633 6.81771 16.2933L6.05215 17.4778C5.97896 17.5933 5.9401 17.7273 5.9401 17.8641C5.9401 18.001 5.97896 18.1349 6.05215 18.2505L7.4966 20.7494C7.5648 20.8686 7.66557 20.9659 7.78709 21.0299C7.90861 21.0938 8.04585 21.1218 8.18271 21.1105L9.62715 20.9878C9.85773 21.14 10.0991 21.2751 10.3494 21.3922L10.956 22.6994C11.0106 22.8149 11.0949 22.9139 11.2002 22.9862C11.3055 23.0585 11.4281 23.1016 11.5555 23.1111H14.4444C14.5817 23.1121 14.7165 23.0739 14.8329 23.0009C14.9493 22.928 15.0425 22.8234 15.1016 22.6994L15.7083 21.3922C15.9585 21.2751 16.1999 21.14 16.4305 20.9878L17.8749 21.1105C18.0118 21.1218 18.149 21.0938 18.2706 21.0299C18.3921 20.9659 18.4928 20.8686 18.561 20.7494L20.0055 18.2505C20.0787 18.1349 20.1175 18.001 20.1175 17.8641C20.1175 17.7273 20.0787 17.5933 20.0055 17.4778L19.1822 16.2933C19.1822 16.1633 19.1822 16.0261 19.1822 15.8889C19.1822 15.7516 19.1822 15.6144 19.1822 15.4844L20.0055 14.3C20.0787 14.1844 20.1175 14.0504 20.1175 13.9136C20.1175 13.7768 20.0787 13.6428 20.0055 13.5272L18.561 11.0283C18.4928 10.9091 18.3921 10.8118 18.2706 10.7479C18.149 10.6839 18.0118 10.6559 17.8749 10.6672L16.4305 10.79C16.1999 10.6378 15.9585 10.5026 15.7083 10.3855L15.1016 9.07831C15.0425 8.9543 14.9493 8.8497 14.8329 8.77678C14.7165 8.70387 14.5817 8.66566 14.4444 8.66664H11.5555C11.4181 8.66566 11.2833 8.70387 11.1669 8.77678C11.0505 8.8497 10.9573 8.9543 10.8983 9.07831ZM11.5555 15.8889C11.5555 15.6032 11.6402 15.3239 11.7989 15.0864C11.9576 14.8488 12.1832 14.6637 12.4472 14.5544C12.7111 14.445 13.0015 14.4164 13.2817 14.4722C13.5619 14.5279 13.8193 14.6655 14.0213 14.8675C14.2233 15.0695 14.3609 15.3269 14.4166 15.6071C14.4724 15.8873 14.4438 16.1777 14.3344 16.4416C14.2251 16.7056 14.04 16.9312 13.8024 17.0899C13.5649 17.2486 13.2856 17.3333 12.9999 17.3333C12.6168 17.3333 12.2494 17.1811 11.9786 16.9102C11.7077 16.6394 11.5555 16.272 11.5555 15.8889Z" fill="#6A65CD"/>
</svg>
