<svg width="29" height="13" viewBox="0 0 29 13" fill="none" xmlns="http://www.w3.org/2000/svg">
<path d="M29 12.6505C28.5779 12.7738 28.112 12.7735 27.6902 12.6497C27.2684 12.5259 26.9198 12.2871 26.7102 11.9784L22.5415 7.52454L21.9373 6.90188L17.1003 11.984C16.9034 12.2797 16.5737 12.51 16.1729 12.6316C15.7722 12.7533 15.3278 12.758 14.9229 12.6449L21.1555 6.18494L15.3579 0.349511C15.7748 0.233451 16.2307 0.231913 16.6489 0.345154C17.067 0.458396 17.4219 0.6795 17.6538 0.971235L21.9748 5.48013L26.3199 0.989905C26.5184 0.699382 26.8482 0.475338 27.2465 0.360367C27.6448 0.245395 28.084 0.247512 28.4804 0.366315L26.2305 2.67304L23.1831 5.73778C23.0985 5.7961 23.0307 5.86759 22.9844 5.94754C22.938 6.0275 22.914 6.11413 22.914 6.20174C22.914 6.28936 22.938 6.37598 22.9844 6.45594C23.0307 6.53589 23.0985 6.60738 23.1831 6.6657L28.9879 12.6514L29 12.6505ZM0.00243116 6.10465L0.509931 4.1676C1.90435 0.337376 7.58834 -1.25614 11.4985 1.115C13.7883 2.50501 14.3598 4.47286 14.2475 6.69091H1.34851C1.13947 10.6518 4.83939 13.0435 9.57001 11.8215C10.3369 11.6083 11.0233 11.2514 11.5678 10.7828C12.1123 10.3143 12.4979 9.74867 12.6899 9.13672C12.9401 8.515 13.3521 8.40858 14.1085 8.58781C13.9825 9.34619 13.6355 10.0726 13.0936 10.7124C12.5517 11.3522 11.8291 11.8888 10.9801 12.2817C9.57776 12.8744 7.96876 13.1093 6.38318 12.9528C4.7976 12.7964 3.31664 12.2567 2.15206 11.4108C1.00055 10.4095 0.304606 9.14465 0.170389 7.80926C0.170389 7.58988 0.0737228 7.38451 0.00847283 7.18754C0.0025907 6.82691 -0.000228806 6.46625 1.44955e-05 6.10559L0.00243116 6.10465ZM1.36422 5.83767H13.0295C12.957 2.96616 10.6116 0.929227 7.48322 0.910556C4.0008 0.873215 1.50922 2.86534 1.35576 5.8246L1.36422 5.83767Z" fill="#9C9C9C"/>
</svg>
