<svg width="19" height="29" viewBox="0 0 19 29" fill="none" xmlns="http://www.w3.org/2000/svg">
<path d="M4.75 29C7.372 29 9.5 26.8347 9.5 24.1667V19.3334H4.75C2.128 19.3334 0 21.4987 0 24.1667C0 26.8347 2.128 29 4.75 29Z" fill="#0ACF83"/>
<path d="M0 14.5C0 11.832 2.128 9.66663 4.75 9.66663H9.5V19.3333H4.75C2.128 19.3333 0 17.168 0 14.5Z" fill="#A259FF"/>
<path d="M0 4.83333C0 2.16533 2.128 0 4.75 0H9.5V9.66667H4.75C2.128 9.66667 0 7.50133 0 4.83333Z" fill="#F24E1E"/>
<path d="M9.5 0H14.25C16.872 0 19 2.16533 19 4.83333C19 7.50133 16.872 9.66667 14.25 9.66667H9.5V0Z" fill="#FF7262"/>
<path d="M19 14.5C19 17.168 16.872 19.3333 14.25 19.3333C11.628 19.3333 9.5 17.168 9.5 14.5C9.5 11.832 11.628 9.66663 14.25 9.66663C16.872 9.66663 19 11.832 19 14.5Z" fill="#1ABCFE"/>
</svg>
