<svg width="26" height="26" viewBox="0 0 26 26" fill="none" xmlns="http://www.w3.org/2000/svg">
<path d="M18.9582 4.33329C16.8673 4.33329 15.1665 6.03413 15.1665 8.12496C15.1665 9.80846 16.2769 11.2222 17.799 11.7162C17.6408 12.7259 17.2064 13.5579 16.4665 14.2328C14.3583 16.1535 10.4789 16.329 8.6665 16.2987V9.57338C10.2265 9.10321 11.3748 7.66996 11.3748 5.95829C11.3748 3.86746 9.674 2.16663 7.58317 2.16663C5.49234 2.16663 3.7915 3.86746 3.7915 5.95829C3.7915 7.66996 4.93984 9.10321 6.49984 9.57338V16.4265C4.93984 16.8967 3.7915 18.33 3.7915 20.0416C3.7915 22.1325 5.49234 23.8333 7.58317 23.8333C9.674 23.8333 11.3748 22.1325 11.3748 20.0416C11.3748 19.4447 11.2232 18.8879 10.9773 18.3852C13.2089 18.1837 16.0223 17.5651 17.9203 15.8394C19.1088 14.7593 19.7956 13.3867 19.983 11.7574C21.5744 11.3078 22.7498 9.85829 22.7498 8.12496C22.7498 6.03413 21.049 4.33329 18.9582 4.33329ZM5.95817 5.95829C5.95817 5.06238 6.68725 4.33329 7.58317 4.33329C8.47909 4.33329 9.20817 5.06238 9.20817 5.95829C9.20817 6.85421 8.47909 7.58329 7.58317 7.58329C6.68725 7.58329 5.95817 6.85421 5.95817 5.95829ZM7.58317 21.6666C6.68725 21.6666 5.95817 20.9375 5.95817 20.0416C5.95871 19.6144 6.12749 19.2045 6.42797 18.9008C6.72845 18.5971 7.13646 18.4239 7.56367 18.4188L7.7045 18.4296C7.91705 18.4376 8.12594 18.4873 8.31926 18.576C8.51258 18.6647 8.68653 18.7906 8.83119 18.9466C8.97585 19.1025 9.08838 19.2854 9.16235 19.4848C9.23633 19.6842 9.2703 19.8962 9.26234 20.1088C9.25437 20.3213 9.20462 20.5302 9.11592 20.7235C9.02722 20.9169 8.90132 21.0908 8.74539 21.2355C8.58947 21.3801 8.40658 21.4927 8.20716 21.5666C8.00775 21.6406 7.79572 21.6746 7.58317 21.6666ZM18.9582 9.74996C18.0623 9.74996 17.3332 9.02088 17.3332 8.12496C17.3332 7.22904 18.0623 6.49996 18.9582 6.49996C19.8541 6.49996 20.5832 7.22904 20.5832 8.12496C20.5832 9.02088 19.8541 9.74996 18.9582 9.74996Z" fill="#FF7262"/>
</svg>
