<svg width="18" height="24" viewBox="0 0 18 24" fill="none" xmlns="http://www.w3.org/2000/svg">
<path d="M2.08008 0H3.16208V1.069H4.15208V0H5.23408V3.236H4.15208V2.153H3.16208V3.236H2.08108V0H2.08008Z" fill="#FF4343"/>
<path d="M6.6561 1.073H5.7041V0H8.6911V1.073H7.7381V3.236H6.6561V1.073Z" fill="#FF4343"/>
<path d="M9.16504 0H10.293L10.987 1.137L11.68 0H12.808V3.236H11.731V1.632L10.987 2.783H10.968L10.223 1.633V3.236H9.16504V0Z" fill="#FF4343"/>
<path d="M13.3462 0H14.4292V2.167H15.9492V3.237H13.3462V0Z" fill="#FF4343"/>
<path fill-rule="evenodd" clip-rule="evenodd" d="M2.046 22.072L0 4.71704H18L15.953 22.07L8.99 24L2.046 22.072ZM6.183 12.572L5.989 10.392H14.134L14.324 8.26404H3.664L4.238 14.701H11.615L11.368 17.461L8.994 18.103H8.992L6.622 17.463L6.47 15.766H4.332L4.63 19.108L8.99 20.318L13.357 19.108L13.889 13.144L13.941 12.573H6.183V12.572Z" fill="#FF4343"/>
</svg>
