<svg width="24" height="24" viewBox="0 0 24 24" fill="none" xmlns="http://www.w3.org/2000/svg">
<g clip-path="url(#clip0)">
<path d="M13.3013 5.601C12.6733 4.073 12.7613 2.354 13.6683 0.971L14.3463 0C13.0923 2.35 14.2863 5.236 16.2063 6.749C16.7201 7.15111 17.2928 7.47154 17.9043 7.699C18.0683 7.759 18.2543 7.823 18.4243 7.866C20.5703 8.406 22.3193 8.033 23.3603 6.477C23.3283 6.525 23.2873 6.601 23.2353 6.697C22.7713 7.557 21.4133 10.074 17.4753 9.284C17.4003 9.269 17.3283 9.244 17.2563 9.221L17.1923 9.199L17.1463 9.184C17.1251 9.17666 17.1037 9.16966 17.0823 9.163C17.024 9.14293 16.966 9.12192 16.9083 9.1C15.3233 8.496 13.9643 7.224 13.3013 5.601Z" fill="#4094F8"/>
<path d="M8.1203 2.96598C6.5833 5.26098 6.6673 8.33398 7.8663 10.762C8.08799 11.2138 8.34268 11.6486 8.6283 12.063C8.8373 12.376 9.0673 12.723 9.3363 12.965C9.4473 13.092 9.5633 13.215 9.6813 13.336L9.7493 13.406L9.7723 13.429C9.89168 13.5497 10.0141 13.6674 10.1393 13.782L10.1403 13.783L10.1423 13.785C10.2935 13.9217 10.4485 14.0541 10.6073 14.182L10.6473 14.214C10.7873 14.326 10.9303 14.436 11.0773 14.541L11.0833 14.545L11.0903 14.55C11.1373 14.584 11.1853 14.617 11.2333 14.649L11.2863 14.685C11.3177 14.7057 11.3487 14.7271 11.3793 14.749C11.4843 14.819 11.5903 14.886 11.6983 14.952L11.7283 14.969L11.7433 14.979C11.8591 15.048 11.9761 15.115 12.0943 15.18L12.1253 15.196L12.1653 15.218C12.2173 15.246 12.2693 15.275 12.3233 15.302L12.3533 15.317C12.508 15.3957 12.6647 15.4704 12.8233 15.541L12.8553 15.554C13.0041 15.6195 13.1545 15.6815 13.3063 15.74L13.3363 15.751C13.4393 15.791 13.5423 15.827 13.6463 15.863L13.6983 15.881L13.7863 15.91C13.8253 15.922 13.8643 15.936 13.9023 15.949C14.0113 15.987 14.1203 16.024 14.2343 16.044C22.1683 17.408 24.0003 11.068 24.0003 11.068C22.3493 13.536 19.1513 14.714 15.7393 13.794C15.5882 13.7527 15.4382 13.7077 15.2893 13.659C15.2493 13.647 15.2093 13.633 15.1693 13.619L15.1543 13.614C15.0489 13.5786 14.9443 13.5413 14.8403 13.502L14.8373 13.5C14.6647 13.4347 14.494 13.3646 14.3253 13.29L14.2693 13.265C14.0727 13.1761 13.8792 13.0804 13.6893 12.978L13.6473 12.956L13.5273 12.892C13.4177 12.8308 13.3094 12.7674 13.2023 12.702C12.9908 12.5728 12.784 12.436 12.5823 12.292C12.4367 12.1868 12.2936 12.0781 12.1533 11.966L12.1183 11.937C12.0979 11.9204 12.0775 11.9038 12.0573 11.887C10.5633 10.663 9.3793 8.98998 8.8173 7.09398C8.2273 5.12598 8.3543 2.91798 9.3763 1.12598L8.1203 2.96598Z" fill="#4094F8"/>
<path d="M1.52413 5.637C-0.599868 8.807 -0.335868 12.932 1.28713 16.3C1.31713 16.365 1.35013 16.429 1.38213 16.492L1.40613 16.54L1.43613 16.599C1.46128 16.6514 1.48796 16.7031 1.51613 16.754L1.52913 16.779L1.59913 16.909L1.61413 16.936C1.66413 17.028 1.71613 17.12 1.76913 17.212L1.78613 17.242C1.86627 17.3818 1.94996 17.5195 2.03713 17.655L2.05513 17.685L2.11413 17.778C2.19813 17.908 2.28413 18.039 2.37413 18.168V18.169C2.37626 18.1722 2.3786 18.1752 2.38113 18.178L2.40513 18.211L2.42513 18.239C2.50313 18.349 2.58213 18.459 2.66313 18.567L2.75313 18.685C2.94914 18.939 3.15188 19.1878 3.36113 19.431L3.36713 19.438L3.37213 19.443L3.37913 19.451C3.59129 19.69 3.81072 19.9225 4.03713 20.148L4.06713 20.178L4.13813 20.248C4.25146 20.3588 4.36681 20.4675 4.48413 20.574L4.51713 20.604L4.54313 20.626C4.66828 20.7377 4.79496 20.8477 4.92313 20.956L4.97913 21.003C5.06413 21.073 5.15013 21.143 5.23713 21.211L5.37413 21.32C5.47013 21.393 5.56613 21.465 5.66313 21.535L5.67913 21.547L5.76913 21.613L5.79713 21.633C5.88513 21.697 5.97413 21.757 6.06413 21.817L6.07813 21.827C6.11849 21.8542 6.15849 21.8818 6.19813 21.91C6.36507 22.0196 6.5341 22.1259 6.70513 22.229L6.75913 22.261C6.91054 22.3504 7.06357 22.4371 7.21813 22.521L7.27113 22.55L7.33013 22.582C7.38913 22.614 7.44713 22.646 7.50713 22.677L7.53213 22.689L7.56213 22.704L7.59613 22.721C7.61613 22.731 7.63713 22.741 7.65813 22.753C7.78213 22.814 7.90613 22.874 8.03213 22.933L8.07913 22.954L8.11113 22.969C8.42362 23.1113 8.74153 23.2414 9.06413 23.359L9.07413 23.362L9.11613 23.378C9.34411 23.46 9.57419 23.536 9.80613 23.606C9.92213 23.645 10.0391 23.683 10.1591 23.706C20.4361 25.652 23.4211 17.296 23.4211 17.296C20.9141 20.686 16.4641 21.581 12.2471 20.585C12.0885 20.5465 11.9316 20.5008 11.7771 20.448L11.6591 20.411C11.5071 20.363 11.3561 20.311 11.2061 20.258L11.1441 20.235C11.0091 20.185 10.8771 20.135 10.7441 20.081L10.6321 20.035C10.4871 19.975 10.3431 19.914 10.2011 19.849L10.1551 19.829C10.0196 19.7661 9.88496 19.7014 9.75113 19.635L9.71013 19.613C9.68873 19.6028 9.6674 19.5925 9.64613 19.582L9.43213 19.469L9.36413 19.433C9.34187 19.4209 9.31954 19.4089 9.29713 19.397L9.17713 19.331C9.06313 19.268 8.95113 19.201 8.83913 19.134L8.79613 19.109L8.72613 19.069C8.55205 18.9616 8.38002 18.8509 8.21013 18.737L8.16713 18.707C7.74035 18.4224 7.33126 18.1122 6.94213 17.778C6.82324 17.6775 6.70589 17.5751 6.59013 17.471L6.57413 17.456C6.42212 17.3162 6.27276 17.1735 6.12613 17.028C6.04145 16.9443 5.9581 16.8593 5.87613 16.773L5.84213 16.739C5.71261 16.6036 5.58592 16.4656 5.46213 16.325L5.45613 16.319L5.45413 16.316C5.34813 16.196 5.24413 16.072 5.14213 15.948L5.06013 15.847C4.95545 15.7172 4.8531 15.5855 4.75313 15.452C4.66513 15.332 4.57813 15.214 4.49313 15.093C2.15313 11.779 1.31213 7.207 3.18313 3.453L1.52413 5.637Z" fill="#4094F8"/>
</g>
<defs>
<clipPath id="clip0">
<rect width="24" height="24" fill="white"/>
</clipPath>
</defs>
</svg>
