<svg width="24" height="26" viewBox="0 0 24 26" fill="none" xmlns="http://www.w3.org/2000/svg">
<path d="M11.9946 26C11.6347 26 11.2695 25.9071 10.9526 25.7317L7.63832 23.8486C7.14414 23.5803 7.38586 23.4874 7.547 23.4359C8.2077 23.214 8.34199 23.1676 9.04566 22.7806C9.12086 22.7394 9.21755 22.7548 9.29275 22.8013L11.8389 24.251C11.9302 24.3026 12.0591 24.3026 12.145 24.251L22.0662 18.7513C22.1576 18.6997 22.2167 18.5965 22.2167 18.4933V7.4938C22.2167 7.38545 22.1576 7.28743 22.0609 7.23068L12.145 1.73608C12.0537 1.68449 11.9302 1.68449 11.8389 1.73608L1.92838 7.23584C1.83169 7.28743 1.77261 7.39061 1.77261 7.49896V18.4933C1.77261 18.5965 1.83169 18.6997 1.92838 18.7461L4.64637 20.2526C6.12355 20.9594 7.02596 20.1288 7.02596 19.2878V8.43278C7.02596 8.278 7.15488 8.15934 7.31603 8.15934H8.57296C8.72874 8.15934 8.86303 8.278 8.86303 8.43278V19.293C8.86303 21.1813 7.78872 22.2647 5.9248 22.2647C5.35005 22.2647 4.89884 22.2647 3.6419 21.6662L1.04208 20.2268C0.397493 19.8708 0 19.2053 0 18.4881V7.4938C0 6.78182 0.397493 6.11112 1.04208 5.75513L10.9526 0.255382C11.581 -0.0851275 12.4136 -0.0851275 13.0367 0.255382L22.9579 5.76029C23.6025 6.11628 24 6.78182 24 7.49896V18.4933C24 19.2053 23.6025 19.8708 22.9579 20.232L13.0367 25.7317C12.7198 25.9071 12.3599 26 11.9946 26ZM20.0036 15.1604C20.0036 13.1019 18.5533 12.555 15.5076 12.1681C12.4244 11.776 12.1128 11.5748 12.1128 10.8834C12.1128 10.3107 12.376 9.54718 14.6589 9.54718C16.6947 9.54718 17.4467 9.97023 17.7583 11.291C17.7851 11.4148 17.9033 11.5077 18.0376 11.5077H19.3268C19.4073 11.5077 19.4825 11.4767 19.5363 11.42C19.59 11.3632 19.6168 11.2858 19.6115 11.2085C19.4127 8.93323 17.8389 7.87558 14.6589 7.87558C11.8281 7.87558 10.1415 9.02093 10.1415 10.9453C10.1415 13.0297 11.8227 13.6075 14.5354 13.8655C17.7851 14.1699 18.0376 14.629 18.0376 15.243C18.0376 16.3058 17.1459 16.7598 15.0564 16.7598C12.4297 16.7598 11.855 16.1252 11.6616 14.8715C11.6401 14.7374 11.5219 14.6393 11.3769 14.6393H10.0931C9.93196 14.6393 9.80842 14.7632 9.80842 14.9128C9.80842 16.5173 10.7162 18.4314 15.0618 18.4314C18.1987 18.4262 20.0036 17.2344 20.0036 15.1604V15.1604Z" fill="#E6DA9E"/>
</svg>
