<svg width="37" height="25" viewBox="0 0 37 25" fill="none" xmlns="http://www.w3.org/2000/svg">
<path d="M18.2861 25C18.1647 25 18.0433 24.9617 17.9334 24.898L16.8234 24.1709C16.6558 24.0688 16.7367 24.0306 16.7945 24.0114C17.0142 23.9285 17.0605 23.9094 17.2975 23.7563C17.3206 23.7436 17.3553 23.75 17.3784 23.7627L18.2341 24.324C18.263 24.3431 18.3092 24.3431 18.3381 24.324L21.6797 22.1938C21.7086 22.1746 21.7317 22.1364 21.7317 22.0917V17.8377C21.7317 17.7931 21.7144 17.7548 21.6797 17.7357L18.3381 15.6119C18.3092 15.5928 18.2687 15.5928 18.2341 15.6119L14.8925 17.7357C14.8578 17.7548 14.8405 17.7995 14.8405 17.8377V22.0917C14.8405 22.13 14.8636 22.1683 14.8925 22.1874L15.8059 22.7678C16.3031 23.042 16.6095 22.7168 16.6095 22.3979V18.1949C16.6095 18.1375 16.65 18.0865 16.7078 18.0865H17.1298C17.1819 18.0865 17.2281 18.1311 17.2281 18.1949V22.3979C17.2281 23.1313 16.8697 23.5459 16.2395 23.5459C16.0487 23.5459 15.8927 23.5459 15.4706 23.3163L14.5919 22.7614C14.378 22.6211 14.2392 22.366 14.2392 22.0917V17.8377C14.2392 17.5635 14.3722 17.302 14.5919 17.1681L17.9334 15.0379C18.1473 14.904 18.4248 14.904 18.633 15.0379L21.9745 17.1681C22.1884 17.3084 22.3272 17.5635 22.3272 17.8377V22.0917C22.3272 22.366 22.1942 22.6275 21.9745 22.7614L18.633 24.8916C18.5347 24.9617 18.4133 25 18.2861 25ZM20.9859 20.8034C20.9859 20.0062 20.5003 19.7957 19.4712 19.6427C18.4306 19.4896 18.3266 19.4131 18.3266 19.1452C18.3266 18.922 18.4133 18.6286 19.1822 18.6286C19.8702 18.6286 20.1245 18.7944 20.2286 19.3046C20.2402 19.3557 20.2748 19.3875 20.3211 19.3875H20.7547C20.7836 19.3875 20.8067 19.3748 20.8241 19.3557C20.8414 19.3301 20.853 19.3046 20.8472 19.2727C20.7778 18.3926 20.2517 17.9844 19.1822 17.9844C18.2283 17.9844 17.6617 18.4309 17.6617 19.1707C17.6617 19.9807 18.2283 20.1975 19.1417 20.2996C20.2344 20.4207 20.3211 20.5929 20.3211 20.8289C20.3211 21.2435 20.0205 21.4157 19.3152 21.4157C18.4306 21.4157 18.2341 21.1733 18.1705 20.6886C18.1647 20.6376 18.1242 20.5993 18.0722 20.5993H17.6386C17.5866 20.5993 17.5403 20.644 17.5403 20.7077C17.5403 21.3264 17.8467 22.0662 19.3094 22.0662C20.3789 22.0662 20.9859 21.607 20.9859 20.8034ZM24.1367 17.6081C24.1367 17.9972 23.8477 18.3161 23.495 18.3161C23.1423 18.3161 22.8533 17.9972 22.8533 17.6081C22.8533 17.2063 23.1539 16.9002 23.495 16.9002C23.8419 16.8938 24.1367 17.2063 24.1367 17.6081ZM24.0327 17.6081C24.0327 17.2765 23.7898 17.015 23.4892 17.015C23.1944 17.015 22.9516 17.2765 22.9516 17.6081C22.9516 17.9398 23.1944 18.2077 23.4892 18.2077C23.7898 18.2013 24.0327 17.9334 24.0327 17.6081ZM23.7725 18.0036H23.6222C23.6164 17.9653 23.5933 17.7612 23.5933 17.7548C23.5817 17.7102 23.5702 17.6847 23.5181 17.6847H23.3909V18.0036H23.2522V17.2063H23.5008C23.5875 17.2063 23.7552 17.2063 23.7552 17.4168C23.7552 17.5635 23.6684 17.5954 23.6164 17.6145C23.7147 17.6209 23.7205 17.6911 23.7378 17.7931C23.7436 17.8569 23.7552 17.9653 23.7725 18.0036ZM23.6106 17.4423C23.6106 17.3339 23.5413 17.3339 23.5066 17.3339H23.3909V17.5571H23.5008C23.5933 17.5571 23.6106 17.487 23.6106 17.4423ZM7.93766 8.35397C7.93766 8.18177 7.85672 8.02871 7.72375 7.9458L4.17984 5.69444C4.12203 5.65617 4.05266 5.63704 3.98328 5.63066H3.94859C3.87922 5.63066 3.81563 5.65617 3.75203 5.69444L0.213906 7.9458C0.0809375 8.02871 0 8.18815 0 8.35397L0.00578125 14.4129C0.00578125 14.4958 0.04625 14.5723 0.109844 14.617C0.173438 14.6616 0.254375 14.6616 0.32375 14.617L2.42813 13.284C2.56109 13.1947 2.64203 13.0416 2.64203 12.8758V10.0441C2.64203 9.87827 2.72297 9.71882 2.85594 9.63591L3.75203 9.06829C3.82141 9.02364 3.89078 9.00451 3.96594 9.00451C4.04109 9.00451 4.11625 9.02364 4.17984 9.06829L5.07594 9.63591C5.20891 9.71882 5.28984 9.87827 5.28984 10.0441V12.8758C5.28984 13.0416 5.37078 13.2011 5.50375 13.284L7.60813 14.617C7.67172 14.6616 7.75844 14.6616 7.82203 14.617C7.88563 14.5787 7.92609 14.4958 7.92609 14.4129L7.93766 8.35397ZM27.3164 1.74021V12.9906C27.3164 13.1564 27.2355 13.3159 27.1025 13.3988L23.5586 15.6565C23.4256 15.7395 23.2638 15.7395 23.1308 15.6565L19.5869 13.3988C19.4539 13.3159 19.373 13.1564 19.373 12.9906V8.47515C19.373 8.30933 19.4539 8.14989 19.5869 8.06697L23.1308 5.80924C23.2638 5.72633 23.4256 5.72633 23.5586 5.80924L24.4431 6.37048C24.5414 6.43426 24.6686 6.35135 24.6686 6.23017V0.235052C24.6686 0.0564739 24.842 -0.0583263 24.9866 0.0309627L27.0967 1.33203C27.2297 1.40856 27.3164 1.56801 27.3164 1.74021ZM24.657 9.96118C24.657 9.91653 24.6339 9.87827 24.605 9.85913L23.3909 9.08104C23.3563 9.06191 23.3158 9.06191 23.2811 9.08104L22.067 9.85913C22.0323 9.87827 22.015 9.91653 22.015 9.96118V11.511C22.015 11.5556 22.0381 11.5939 22.067 11.613L23.2811 12.3847C23.3158 12.4039 23.3563 12.4039 23.3852 12.3847L24.5992 11.613C24.6339 11.5939 24.6513 11.5556 24.6513 11.511V9.96118H24.657ZM36.7861 9.91653C36.9191 9.83362 37 9.67418 37 9.50835V8.41775C37 8.25193 36.9191 8.09249 36.7861 8.00957L33.2653 5.75184C33.1323 5.66893 32.9705 5.66893 32.8375 5.75184L29.2936 8.00957C29.1606 8.09249 29.0797 8.25193 29.0797 8.41775V12.9332C29.0797 13.1054 29.1606 13.2585 29.2936 13.3414L32.8144 15.5545C32.9416 15.6374 33.1034 15.6374 33.2364 15.5545L35.3639 14.247C35.5084 14.1578 35.5084 13.9282 35.3639 13.8389L31.7969 11.5811C31.7275 11.5365 31.687 11.46 31.687 11.377V9.96118C31.687 9.87827 31.7275 9.80173 31.7969 9.75709L32.9069 9.04915C32.9705 9.00451 33.0572 9.00451 33.1208 9.04915L34.2308 9.75709C34.2944 9.80173 34.3406 9.87827 34.3406 9.96118V11.0709C34.3406 11.2495 34.5198 11.3643 34.6644 11.275L36.7861 9.91653ZM32.3172 10.1398C32.2941 10.1589 32.2767 10.1844 32.2767 10.2163V11.0837C32.2767 11.1156 32.2941 11.1474 32.3172 11.1602L32.9994 11.5939C33.0225 11.613 33.0572 11.613 33.0803 11.5939L33.7625 11.1602C33.7856 11.1411 33.803 11.1156 33.803 11.0837V10.2163C33.803 10.1844 33.7856 10.1525 33.7625 10.1398L33.0803 9.70607C33.0572 9.68693 33.0225 9.68693 32.9994 9.70607L32.3172 10.1398ZM17.6213 12.9141V8.42413C17.6213 8.25831 17.5287 8.09886 17.3958 8.01595L13.8634 5.77097C13.742 5.69444 13.5744 5.68168 13.4356 5.77097L9.90328 8.01595C9.77031 8.09886 9.67781 8.25193 9.67781 8.42413V12.9141C9.67781 13.0927 9.78766 13.2457 9.90906 13.3223L13.4472 15.5673C13.5859 15.6565 13.7478 15.6502 13.875 15.5673L17.4016 13.3223C17.5056 13.2585 17.5808 13.1501 17.6097 13.0225C17.6155 12.9906 17.6213 12.9524 17.6213 12.9141ZM13.3258 4.94824L13.2795 4.98013H13.3431L13.3258 4.94824ZM17.7311 13.2521L17.708 13.2075V13.2649L17.7311 13.2521Z" fill="#0FC157"/>
</svg>
