<svg width="26" height="26" viewBox="0 0 26 26" fill="none" xmlns="http://www.w3.org/2000/svg">
<path fill-rule="evenodd" clip-rule="evenodd" d="M9.94846 0.387583C10.3819 0.133707 10.8741 0 11.3752 0C11.8763 0 12.3685 0.133707 12.802 0.387583L21.3334 5.38433C22.211 5.89795 22.7505 6.84479 22.7505 7.86875V11.6413C22.7505 11.9677 22.6221 12.2808 22.3935 12.5116C22.1649 12.7424 21.8549 12.8721 21.5317 12.8721C21.2085 12.8721 20.8985 12.7424 20.6699 12.5116C20.4413 12.2808 20.3129 11.9677 20.3129 11.6413V9.06009L12.594 13.581V24.0569C12.5941 24.3453 12.5188 24.6286 12.3759 24.8783C12.233 25.128 12.0274 25.3352 11.78 25.4791C11.5325 25.623 11.2518 25.6986 10.9662 25.6981C10.6806 25.6976 10.4002 25.6211 10.1532 25.4763L1.41703 20.3598C0.985991 20.1073 0.628208 19.745 0.379514 19.3089C0.130819 18.8729 -5.45249e-05 18.3785 1.70408e-08 17.8754V7.86875C1.70408e-08 6.84479 0.539511 5.89959 1.41703 5.38433L9.94846 0.387583ZM11.5784 2.51756L19.1023 6.92356L11.3752 11.4493L3.6482 6.92356L11.1721 2.51756C11.2339 2.48155 11.3039 2.4626 11.3752 2.4626C11.4466 2.4626 11.5166 2.48155 11.5784 2.51756ZM2.43755 17.8754V9.06009L10.1565 13.581V22.6325L2.64068 18.2298C2.57904 18.1939 2.52783 18.1422 2.49218 18.08C2.45654 18.0178 2.4377 17.9472 2.43755 17.8754ZM20.0334 23.9207C19.8106 24.1572 19.69 24.4735 19.698 24.7998C19.7061 25.1262 19.8422 25.4359 20.0765 25.6609C20.3107 25.8859 20.6239 26.0078 20.9471 25.9996C21.2703 25.9915 21.577 25.854 21.7998 25.6175L25.6642 21.515C25.8798 21.2862 26 20.9825 26 20.6667C26 20.3508 25.8798 20.0471 25.6642 19.8183L21.7998 15.7159C21.577 15.4793 21.2703 15.3419 20.9471 15.3337C20.6239 15.3255 20.3107 15.4474 20.0765 15.6724C19.8422 15.8974 19.7061 16.2071 19.698 16.5335C19.69 16.8598 19.8106 17.1761 20.0334 17.4126L21.9396 19.4359H16.6566C16.3334 19.4359 16.0234 19.5656 15.7948 19.7964C15.5662 20.0272 15.4378 20.3402 15.4378 20.6667C15.4378 20.9931 15.5662 21.3061 15.7948 21.5369C16.0234 21.7677 16.3334 21.8974 16.6566 21.8974H21.9396L20.0334 23.9207Z" fill="#6A65CD"/>
</svg>
