<svg width="32" height="32" viewBox="0 0 32 32" fill="none" xmlns="http://www.w3.org/2000/svg">
<g clip-path="url(#clip0)">
<path d="M16.1575 7.28796C15.877 7.28547 15.5976 7.32135 15.3268 7.39463C14.9562 7.48396 14.3908 7.8373 14.0562 8.17196C13.5095 8.73596 13.4028 8.98396 13.1735 10.1306C13.0668 10.6946 13.7202 12.0373 14.3028 12.4426C14.9028 12.8653 15.7495 13.112 17.0562 13.2533C18.9615 13.4666 19.5095 14.1013 19.5095 16.1826C19.5095 18.0186 18.9962 18.512 16.8962 18.724C14.6202 18.9533 13.4562 19.836 13.2095 21.5466C13.0682 22.588 13.7562 23.8933 14.7095 24.3346C16.8788 25.3586 18.9095 24.0706 19.3322 21.4066C19.6135 19.6946 20.1615 19.2173 21.9962 19.0773C24.1135 18.9 25.2082 18.1773 25.6135 16.6946C25.9842 15.3346 25.2082 13.8186 23.8842 13.2893C23.5322 13.148 22.7202 12.972 22.0842 12.9013C20.0908 12.688 19.5788 12.336 19.3668 11.048C19.0668 9.2653 18.9442 8.9653 18.3082 8.2613C18.038 7.95726 17.7069 7.71347 17.3364 7.54578C16.9659 7.37808 16.5642 7.29024 16.1575 7.28796ZM9.7775 13.1013C9.55487 13.0968 9.33247 13.1182 9.11483 13.1653C7.15616 13.5893 6.2215 15.9 7.31483 17.5586C8.8855 19.924 12.5735 18.8293 12.6082 15.9893C12.6242 14.3986 11.3015 13.132 9.7775 13.1013ZM2.7855 18.92C2.59392 18.9246 2.40325 18.9478 2.21616 18.9893C-0.661169 19.624 -0.766503 23.824 2.07483 24.5653C2.7815 24.7586 2.85083 24.7586 3.55616 24.5826C5.14416 24.1586 6.04416 22.6413 5.6215 21.1066C5.25083 19.7466 4.09616 18.888 2.7855 18.92ZM29.2175 18.9306C28.9068 18.9333 28.5815 19.008 28.1722 19.1466C26.3188 19.7826 25.6842 21.936 26.8655 23.5946C27.6082 24.6533 29.4788 25.0053 30.6255 24.2826C32.5135 23.1173 32.4428 20.2066 30.5015 19.288C29.9948 19.04 29.6175 18.9266 29.2175 18.9306Z" fill="white"/>
</g>
<defs>
<clipPath id="clip0">
<rect width="32" height="32" fill="white"/>
</clipPath>
</defs>
</svg>
