<svg width="26" height="22" viewBox="0 0 26 22" fill="none" xmlns="http://www.w3.org/2000/svg">
<path d="M12.572 13.2053C13.8101 13.2053 14.8138 12.2182 14.8138 11.0006C14.8138 9.78289 13.8101 8.79578 12.572 8.79578C11.3338 8.79578 10.3301 9.78289 10.3301 11.0006C10.3301 12.2182 11.3338 13.2053 12.572 13.2053Z" fill="#4094F8"/>
<path d="M6.29486 15.3842L5.79876 15.2594C2.11378 14.3441 0 12.7878 0 10.9956C0 9.20214 2.11503 7.64707 5.79876 6.73181L6.29486 6.60829L6.43427 7.09124C6.80671 8.35568 7.2839 9.58797 7.86104 10.7757L7.96779 10.9956L7.86104 11.2155C7.2833 12.4049 6.80478 13.6376 6.43427 14.9024L6.29486 15.3842ZM5.57017 7.85581C2.77064 8.6315 1.05124 9.81479 1.05124 10.9956C1.05124 12.174 2.76939 13.3585 5.57017 14.1329C5.91305 13.0608 6.32751 12.0121 6.80729 10.9956C6.32404 9.97737 5.91074 8.92842 5.57017 7.85581ZM18.8482 15.3842L18.71 14.9C18.3366 13.6353 17.859 12.4026 17.282 11.2142L17.1752 10.9956L17.282 10.7745C17.8597 9.58751 18.3357 8.35358 18.71 7.08877L18.8482 6.60706L19.3443 6.73057C23.0305 7.64583 25.143 9.20091 25.143 10.9956C25.143 12.7891 23.0292 14.3441 19.3443 15.2594L18.8482 15.3842ZM18.3332 10.9956C18.8356 12.0653 19.2538 13.1176 19.5728 14.1329C22.3736 13.3585 24.093 12.174 24.093 10.9956C24.093 9.81479 22.3749 8.63273 19.5728 7.85581C19.2303 8.92809 18.8162 9.97696 18.3332 10.9956Z" fill="#4094F8"/>
<path d="M5.56226 7.85089L5.42411 7.36917C4.38668 3.7773 4.70067 1.20445 6.28695 0.307719C7.83806 -0.575426 10.3336 0.468291 12.9473 3.10537L13.304 3.46604L12.9473 3.82548C12.019 4.77493 11.1705 5.79689 10.4103 6.88128L10.2683 7.08138L10.0222 7.10114C8.6853 7.2044 7.35923 7.41466 6.05711 7.72984L5.56226 7.85089ZM7.54919 1.02165C7.26785 1.02165 7.01917 1.08217 6.80943 1.20075C5.76949 1.78992 5.58612 3.84153 6.30202 6.61078C7.42108 6.36745 8.55018 6.19329 9.68808 6.09571C10.3469 5.17682 11.0655 4.30089 11.8395 3.47345C10.203 1.9085 8.6582 1.02165 7.54919 1.02165ZM17.5931 21.9997C16.101 21.9997 14.1844 20.893 12.195 18.8846L11.8395 18.5252L12.195 18.167C13.1234 17.216 13.9723 16.1929 14.7333 15.1075L14.8739 14.9099L15.1176 14.8864C16.4549 14.785 17.7815 14.5755 19.0839 14.2602L19.58 14.1367L19.7194 14.6196C20.7518 18.209 20.4391 20.7856 18.8553 21.6823C18.4708 21.8967 18.035 22.0062 17.5931 21.9997ZM13.304 18.5166C14.9392 20.0815 16.4853 20.9696 17.5931 20.9696C17.8757 20.9696 18.1243 20.9078 18.3328 20.7905C19.374 20.2001 19.5587 18.1448 18.8402 15.3755C17.7224 15.6201 16.5921 15.7955 15.4517 15.8931C14.7957 16.8134 14.0782 17.6898 13.304 18.5166Z" fill="#4094F8"/>
<path d="M19.5803 7.85083L19.0842 7.72855C17.7818 7.41239 16.4553 7.20211 15.1179 7.09985L14.8742 7.07885L14.7336 6.87876C13.9736 5.79377 13.1247 4.77175 12.1953 3.82295L11.8398 3.46352L12.1953 3.10532C14.8077 0.469473 17.302 -0.574244 18.8556 0.307666C20.4406 1.20563 20.7559 3.77849 19.7197 7.36912L19.5803 7.85083ZM15.452 6.09566C16.6501 6.20065 17.7855 6.37728 18.8405 6.61072C19.5577 3.84148 19.3743 1.78987 18.3331 1.19946C17.2982 0.610281 15.3502 1.51195 13.3043 3.4734C14.0779 4.30096 14.7963 5.17546 15.452 6.09566ZM7.54947 21.9997C7.10754 22.0059 6.67189 21.8963 6.28724 21.6822C4.70096 20.7855 4.38697 18.2102 5.42314 14.6196L5.55878 14.1366L6.05488 14.2601C7.26563 14.5603 8.59945 14.7715 10.0212 14.8863L10.2649 14.9098L10.4068 15.1074C11.1654 16.1919 12.0144 17.2159 12.9438 18.167L13.3005 18.5251L12.9438 18.8846C10.9556 20.8942 9.03904 21.9997 7.54947 21.9997ZM6.30231 15.3767C5.58641 18.146 5.76978 20.2013 6.80971 20.7917C7.84588 21.3722 9.78759 20.4767 11.8398 18.5165C11.0661 17.6888 10.3475 16.8129 9.68837 15.8942C8.54933 15.7952 7.41819 15.6223 6.30231 15.3767Z" fill="#4094F8"/>
<path d="M12.572 16.0253C11.7091 16.0253 10.8237 15.9895 9.93446 15.9166L9.6883 15.8956L9.54637 15.6956C9.04494 14.9864 8.57314 14.2575 8.13216 13.5105C7.69445 12.7616 7.28761 11.9956 6.91263 11.2144L6.80713 10.9957L6.91263 10.7746C7.28816 9.99402 7.69384 9.22821 8.13216 8.4797C8.56798 7.74354 9.04399 7.00738 9.54637 6.29346L9.6883 6.09583L9.93446 6.0736C11.6889 5.92908 13.4525 5.92908 15.207 6.0736L15.4506 6.09706L15.5926 6.29469C16.5971 7.71359 17.4793 9.21253 18.2301 10.7759L18.3343 10.997L18.2301 11.2156C17.4814 12.78 16.599 14.2791 15.5926 15.6968L15.4506 15.8969L15.207 15.9179C14.3203 15.9883 13.4336 16.0253 12.572 16.0253ZM10.2685 14.9087C11.8197 15.0236 13.3243 15.0236 14.8741 14.9087C15.7394 13.6627 16.5085 12.3547 17.1751 10.9957C16.5108 9.63552 15.7416 8.32736 14.8741 7.08273C13.3412 6.96662 11.8015 6.96662 10.2685 7.08273C9.40035 8.32691 8.6311 9.63513 7.96763 10.9957C8.63565 12.354 9.40471 13.6619 10.2685 14.9087Z" fill="#4094F8"/>
</svg>
