<svg width="27" height="26" viewBox="0 0 27 26" fill="none" xmlns="http://www.w3.org/2000/svg">
<g clip-path="url(#clip0)">
<path d="M18.7082 18.0863C19.7045 17.9821 20.4604 17.1143 20.426 16.0728C20.3917 15.0314 19.5327 14.1982 18.502 14.1982H18.4333C17.3681 14.233 16.5435 15.1355 16.5779 16.2116C16.6123 16.7324 16.8184 17.1837 17.1276 17.4961C15.9594 19.822 14.1728 21.523 11.4928 22.9463C9.6718 23.9183 7.78212 24.2655 5.89243 24.0225C4.34626 23.8142 3.14371 23.12 2.38771 21.9743C1.2883 20.2733 1.18526 18.4334 2.11296 16.5935C2.76581 15.2744 3.79645 14.3023 4.4493 13.8163C4.31188 13.3651 4.10569 12.6014 4.00264 12.046C-0.979384 15.691 -0.463958 20.6204 1.04783 22.9463C2.18162 24.6821 4.48369 25.7582 7.02622 25.7582C7.71335 25.7582 8.40048 25.6887 9.08771 25.5153C13.4857 24.6474 16.8185 22.009 18.7082 18.0863ZM24.7553 13.7817C22.144 10.6921 18.2959 8.9911 13.8979 8.9911H13.3482C13.039 8.36625 12.3861 7.94961 11.6646 7.94961H11.5959C10.5308 7.98434 9.70629 8.88688 9.74057 9.96311C9.77495 11.0045 10.6339 11.8377 11.6646 11.8377H11.7333C12.4892 11.8029 13.142 11.3169 13.4169 10.6573H14.0354C16.6467 10.6573 19.1204 11.421 21.3538 12.9138C23.0717 14.0594 24.3086 15.5522 24.9958 17.3572C25.5799 18.8153 25.5455 20.2385 24.927 21.4536C23.965 23.2934 22.3502 24.3002 20.2199 24.3002C18.8456 24.3002 17.54 23.8836 16.8527 23.5711C16.4748 23.9183 15.7876 24.4737 15.3066 24.8209C16.7841 25.5152 18.2959 25.8971 19.7389 25.8971C23.0373 25.8971 25.4768 24.0571 26.4045 22.2173C27.4009 20.2038 27.3321 16.7324 24.7553 13.7817ZM7.30107 18.6763C7.33546 19.7178 8.19439 20.5509 9.22514 20.5509H9.29391C10.359 20.5162 11.1836 19.6136 11.1492 18.5375C11.1149 17.496 10.2559 16.6629 9.22514 16.6629H9.15648C9.08771 16.6629 8.98456 16.6629 8.91601 16.6975C7.50726 14.337 6.92318 11.7682 7.12937 8.99099C7.26669 6.90811 7.95392 5.10293 9.15648 3.61016C10.1528 2.32572 12.0769 1.70087 13.3826 1.66624C17.0246 1.59676 18.5706 6.17905 18.6738 8.01897C19.1204 8.12308 19.8763 8.36614 20.3917 8.53972C19.9794 2.91605 16.5435 0 13.2452 0C10.1528 0 7.30107 2.25646 6.16718 5.58904C4.58673 10.0325 5.61747 14.3023 7.54154 17.6697C7.36984 17.9126 7.26669 18.2945 7.30107 18.6764V18.6763Z" fill="#764ABC"/>
</g>
<defs>
<clipPath id="clip0">
<rect width="27" height="26" fill="white"/>
</clipPath>
</defs>
</svg>
