<svg width="36" height="23" viewBox="0 0 36 23" fill="none" xmlns="http://www.w3.org/2000/svg">
<path d="M16.9785 17.3883C16.9616 17.417 16.9447 17.44 16.9785 17.3883V17.3883ZM30.9922 13.2199C29.8609 13.2196 28.7446 13.4409 27.7297 13.8667C27.3978 13.2965 27.0547 12.7983 26.9984 12.4245C26.9309 11.9885 26.8578 11.7298 26.9366 11.2123C27.0153 10.6949 27.3697 9.96182 27.3641 9.90911C27.3584 9.85641 27.2853 9.59289 26.5597 9.5881C25.834 9.58331 25.2097 9.70788 25.1371 9.87078C25.0089 10.1685 24.9092 10.4745 24.839 10.7859C24.7096 11.3465 23.3883 13.3493 22.6401 14.3937C22.3926 13.9865 22.1845 13.6271 22.1395 13.3397C22.072 12.9037 21.9989 12.6449 22.0776 12.1275C22.1564 11.61 22.5107 10.877 22.5051 10.8242C22.4995 10.7715 22.4264 10.508 21.7013 10.5032C20.9762 10.4984 20.3513 10.623 20.2782 10.7859C20.205 10.9488 20.1263 11.3321 19.98 11.7011C19.8338 12.07 18.0737 15.4047 17.613 16.2719C17.3768 16.7127 17.1742 17.0673 17.028 17.3068C17.0055 17.3452 16.9886 17.3691 16.9774 17.3883C16.9942 17.3643 17.0055 17.3404 17.0055 17.35C16.8817 17.556 16.8086 17.671 16.8086 17.671V17.6758C16.713 17.8291 16.6061 17.968 16.5555 17.968C16.5217 17.968 16.4486 17.5656 16.5724 17.0146C16.8367 15.8551 17.4611 14.0536 17.4555 13.9913C17.4499 13.9577 17.5736 13.6463 17.0449 13.4786C16.533 13.3205 16.3474 13.584 16.3024 13.584C16.2574 13.584 16.2236 13.6798 16.2236 13.6798C16.2236 13.6798 16.7917 11.6483 15.1329 11.6483C14.0979 11.6483 12.6579 12.6162 11.9503 13.493C11.5059 13.699 10.544 14.1446 9.53147 14.6189C9.14334 14.801 8.74396 14.9879 8.36708 15.1651C8.33896 15.1412 8.31646 15.1172 8.28833 15.0933C6.27512 13.263 2.55808 11.9694 2.71558 9.51144C2.77183 8.61547 3.13746 6.26295 9.86335 3.40735C15.3759 1.06921 19.7832 1.71124 20.542 3.13904C21.6332 5.17533 18.1856 8.96523 12.461 9.51144C10.279 9.71746 9.13209 8.99877 8.84521 8.73046C8.54709 8.44777 8.50208 8.4334 8.38958 8.4861C8.20396 8.57235 8.32208 8.82149 8.38958 8.97002C8.55834 9.34853 9.26147 10.0193 10.459 10.3547C11.5109 10.647 14.0692 10.8099 17.1624 9.78933C20.6376 8.64901 23.3427 5.47239 22.5496 2.81323C21.7418 0.110954 16.4812 -0.775432 11.507 0.729029C8.54315 1.625 5.33799 3.03363 3.03227 4.86869C0.293428 7.05351 -0.144765 8.95565 0.0352375 9.751C0.675932 12.5731 5.24236 14.4129 7.06994 15.7736C6.97994 15.8168 6.89557 15.8551 6.81682 15.8934C5.90049 16.2815 2.41914 17.8339 1.54782 19.4725C0.563431 21.3315 1.71094 22.6635 2.46414 22.8456C4.81486 23.4013 7.22182 22.4 8.51502 20.7566C9.80823 19.1132 9.65129 16.9667 9.05503 15.9892C9.0494 15.9749 9.03815 15.9653 9.03253 15.9509C9.26878 15.8311 9.51066 15.7114 9.75254 15.5916C10.2189 15.3568 10.6745 15.1412 11.0739 14.9543C10.8489 15.4718 10.6857 16.0947 10.6014 16.9954C10.5001 18.0495 11.012 19.415 11.6757 19.9516C11.9683 20.1864 12.3221 20.1912 12.5414 20.1912C13.3177 20.1912 13.6665 19.645 14.054 18.9934C14.5322 18.198 14.954 17.2733 14.954 17.2733C14.954 17.2733 14.4253 19.7744 15.8709 19.7744C16.3991 19.7744 16.9279 19.1946 17.1647 18.8975V18.9023C17.1647 18.9023 17.1759 18.8832 17.2041 18.8448C17.2603 18.773 17.2884 18.7299 17.2884 18.7299V18.7155C17.5022 18.404 17.9691 17.6901 18.6716 16.5115C19.5829 14.9879 20.4542 13.0857 20.4542 13.0857C20.5384 13.5039 20.6549 13.9168 20.803 14.3219C20.9605 14.7771 21.2924 15.2753 21.5567 15.7593C21.343 16.0084 21.2136 16.1521 21.2136 16.1521C21.214 16.1558 21.216 16.1592 21.2192 16.1617C21.0505 16.3534 20.8592 16.5594 20.6624 16.7606C19.9429 17.4889 19.0873 18.3226 18.9748 18.5622C18.8398 18.8448 18.8736 19.0557 19.1323 19.2186C19.3236 19.3431 19.6611 19.3623 20.0149 19.3383C20.6618 19.3 21.1174 19.1659 21.3368 19.0796C21.7412 18.9561 22.1235 18.7852 22.4725 18.5717C23.1756 18.1309 23.6031 17.4985 23.5638 16.6648C23.5413 16.2049 23.3669 15.7449 23.1531 15.3137C23.215 15.237 23.2825 15.1556 23.3444 15.0741C24.4576 13.6894 25.3182 12.1696 25.3182 12.1696C25.4024 12.5878 25.5189 13.0007 25.667 13.4058C25.802 13.7939 26.0658 14.2203 26.3077 14.6371C25.262 15.3606 24.6151 16.1991 24.3901 16.7501C23.9738 17.7706 24.3001 18.2306 24.9132 18.336C25.1888 18.3839 25.5826 18.2737 25.8751 18.1683C26.3095 18.0451 26.7191 17.8657 27.0896 17.6365C27.7927 17.1957 28.4728 16.5776 28.4278 15.7391C28.4109 15.3606 28.2871 14.9821 28.124 14.618C29.0071 14.3018 30.1541 14.1293 31.6166 14.273C34.7486 14.5844 35.3618 16.2518 35.2436 16.9465C35.1255 17.6413 34.4674 18.0294 34.248 18.1444C34.0286 18.2594 33.9611 18.3025 33.978 18.3887C34.0061 18.5133 34.1074 18.5085 34.293 18.4797C34.5518 18.4414 35.935 17.9144 35.9968 16.6255C36.0868 14.9965 34.248 13.2046 30.9905 13.2189L30.9922 13.2199ZM6.85057 20.1529C5.81612 21.1159 4.36485 21.48 3.74103 21.1734C3.07165 20.8418 3.33603 19.4246 4.61235 18.3983C5.38861 17.7754 6.38931 17.2005 7.05307 16.8459C7.20495 16.7693 7.42432 16.6543 7.69433 16.5153C7.73933 16.4914 7.76183 16.4818 7.76183 16.4818C7.81245 16.453 7.8687 16.4291 7.92495 16.4003C8.39127 17.8569 7.94183 19.1409 6.85057 20.1519V20.1529ZM14.4084 15.7736C14.0484 16.5259 13.2896 18.4424 12.8283 18.3418C12.4346 18.2555 12.1927 16.7942 12.7496 15.3568C13.0308 14.6333 13.6271 13.7709 13.9815 13.4355C14.549 12.8941 15.1734 12.7216 15.3197 12.9372C15.5165 13.2199 14.6334 15.3041 14.4084 15.7736ZM20.6522 18.313C20.5003 18.3801 20.3597 18.4232 20.2922 18.3897C20.2416 18.3657 20.3541 18.2747 20.3541 18.2747C20.3541 18.2747 21.136 17.5608 21.4454 17.235C21.6254 17.0433 21.8335 16.8181 22.0579 16.569C22.0579 16.5929 22.0636 16.6169 22.0636 16.6456C22.0562 17.5033 21.0893 18.083 20.6505 18.313H20.6522ZM25.4662 17.3787C25.3537 17.3116 25.3705 17.0864 25.7474 16.3869C25.8937 16.1138 26.2306 15.6539 26.8162 15.2131C26.8825 15.3799 26.9185 15.5544 26.923 15.7305C26.9174 16.8086 26.0118 17.211 25.4667 17.3787H25.4662Z" fill="#F061B7"/>
</svg>
