<svg width="30" height="23" viewBox="0 0 30 23" fill="none" xmlns="http://www.w3.org/2000/svg">
<path d="M17.0306 22.7417C17.0767 22.6651 17.1928 22.6118 17.2772 22.5472C18.5651 21.553 19.864 20.5676 21.1344 19.5612C21.5319 19.2909 21.8391 18.9565 22.0319 18.5843C22.2247 18.212 22.298 17.8119 22.2458 17.4153C22.2059 17.2455 22.1536 17.0774 22.0891 16.9117C21.7427 17.1539 21.4205 17.3742 21.096 17.5961C20.5918 17.9415 20.0898 18.2885 19.5812 18.6299C19.2813 18.855 18.8957 19.0079 18.4754 19.0683C18.055 19.1286 17.6196 19.0937 17.2268 18.9681C16.8292 18.8605 16.4832 18.6693 16.2318 18.4182C15.9804 18.1672 15.8348 17.8673 15.8129 17.5558C15.8011 17.5157 15.7853 17.4763 15.7657 17.4379C15.3788 17.68 15.0083 17.9028 14.6411 18.132L7.00903 22.8935C6.95642 22.9265 6.89942 22.9677 6.8501 23H17.0251L17.0098 22.9927C16.955 22.9645 16.9835 22.816 17.0306 22.7417Z" fill="#FFCEBF"/>
<path d="M6.67951 22.7305C6.76751 22.6414 6.87371 22.5641 6.99388 22.5017L17.2625 15.7246C17.963 15.262 18.6603 14.7969 19.3544 14.3294C19.4402 14.2828 19.5074 14.2185 19.5483 14.1437C19.7144 13.5808 19.7379 12.9983 19.6176 12.4284C19.511 12.4865 19.4535 12.5113 19.4045 12.552C18.5637 13.1372 17.7271 13.7275 16.8821 14.3095C16.6021 14.5286 16.2401 14.6731 15.8479 14.7221C15.4558 14.7711 15.0537 14.7222 14.6996 14.5822C14.3384 14.4495 14.036 14.2362 13.8311 13.9695C13.6261 13.7027 13.5278 13.3945 13.5487 13.0842V12.8156C13.3942 12.9035 13.2812 12.9623 13.1757 13.0286C9.06587 15.5886 4.95671 18.1467 0.84826 20.7028C0.662836 20.818 0.441181 21.075 0.198212 20.8255C-0.0447573 20.5759 0.325024 20.4731 0.511514 20.3571C4.89135 17.623 9.27332 14.8914 13.6574 12.1623C14.3714 11.7172 14.4183 11.5306 13.9537 10.8235L13.6766 11.0258C12.9168 11.5754 12.1484 12.1176 11.4004 12.6763C11.0935 12.9066 10.7092 13.0646 10.2918 13.1322C9.87434 13.1998 9.44087 13.1742 9.04139 13.0583C8.64191 12.9424 8.29272 12.7409 8.03413 12.4772C7.77554 12.2135 7.6181 11.8983 7.57999 11.5679C7.43826 11.6508 7.31571 11.7114 7.19955 11.7818L0.699068 15.7014C0.586953 15.7869 0.459095 15.859 0.319696 15.9153C0.214488 15.94 0.101512 15.9356 0 15.9028V23H6.66673C6.64194 22.9573 6.6302 22.9108 6.63241 22.8641C6.63463 22.8173 6.65076 22.7716 6.67951 22.7305Z" fill="#FFCEBF"/>
<path d="M24.5749 0.28628C24.3978 0.744493 24.2259 1.20353 24.0707 1.66668C23.9274 1.99397 23.944 2.35176 24.1175 2.66985C24.2909 2.98794 24.6086 3.24336 25.0083 3.386C26.2306 3.89341 27.608 4.12133 28.9854 4.04412V0.364431C28.9701 0.283755 28.9758 0.201462 29.0021 0.122574C29.0313 0.0779502 29.0681 0.0367061 29.1115 0H24.5707C24.6405 0.0641662 24.6166 0.176868 24.5749 0.28628Z" fill="#FF6196"/>
<path d="M15.4077 8.33018C15.384 8.7369 15.1849 9.12845 14.8377 9.45113C13.5962 10.5963 12.1705 11.6332 10.59 12.5403C10.3351 12.7089 10.012 12.8155 9.66714 12.8447C9.32225 12.874 8.97324 12.8245 8.67019 12.7032C8.36855 12.6111 8.11422 12.4545 7.94214 12.255C7.77006 12.0554 7.68867 11.8227 7.70916 11.5888C7.74567 11.3015 7.91261 11.0305 8.18454 10.8173C9.95195 9.61302 11.8668 8.52436 13.9063 7.56441C14.0398 7.48956 14.203 7.44662 14.3726 7.44165C14.5422 7.43668 14.7096 7.46993 14.8513 7.53671C15.0376 7.61935 15.1882 7.73723 15.2864 7.87729C15.3846 8.01735 15.4265 8.17411 15.4077 8.33018Z" fill="#FF87AF"/>
<path d="M13.7086 13.0899C13.6823 12.9097 13.7144 12.7277 13.8024 12.558C13.8903 12.3883 14.0317 12.2356 14.2154 12.112C15.9325 10.971 17.7748 9.93181 19.7242 9.00462C19.7831 8.97773 19.8374 8.95083 19.9018 8.92313C20.0721 8.83456 20.2784 8.7893 20.4883 8.79446C20.6982 8.79963 20.8998 8.85492 21.0613 8.95165C21.2176 9.04701 21.3281 9.17543 21.3773 9.31866C21.4264 9.46189 21.4116 9.61263 21.335 9.74947C21.0884 10.3413 20.6332 10.877 20.0138 11.3044C18.7559 12.1972 17.4736 13.072 16.1678 13.9284C15.9711 14.0741 15.7128 14.1686 15.4335 14.1969C15.1542 14.2252 14.8697 14.1858 14.6249 14.0849C14.3676 13.9886 14.1485 13.8467 13.9882 13.6727C13.828 13.4986 13.7317 13.2981 13.7086 13.0899Z" fill="#FF87AF"/>
<path d="M21.7259 13.6246C21.4219 13.8993 21.1092 14.1611 20.8171 14.4422C20.7293 14.5508 20.6564 14.6676 20.6 14.7901C20.7607 14.8304 20.9485 14.9366 21.0788 14.8991C21.7422 14.7114 22.3893 14.4862 23.1179 14.249C22.9593 14.5567 22.8399 14.8405 22.6716 15.1005C21.9783 16.083 21.11 16.9698 20.0973 17.7299C19.7122 18.043 19.3122 18.3424 18.8975 18.6281C18.6778 18.7818 18.4137 18.8835 18.1321 18.9229C17.8506 18.9623 17.5616 18.9379 17.2949 18.8522C17.0282 18.7665 16.7932 18.6226 16.6141 18.4352C16.4349 18.2479 16.318 18.0237 16.2753 17.7858C16.2579 17.6534 16.2718 17.5195 16.3162 17.3918C16.3605 17.264 16.4345 17.1449 16.5338 17.0414C18.0113 15.6885 19.6999 14.511 21.5533 13.5413C21.5758 13.534 21.5997 13.5299 21.6238 13.5294L21.7259 13.6246Z" fill="#FF87AF"/>
<path d="M23.9741 10.7239L25.9872 4.05884L27.399 4.30527L26.6707 5.95487C25.9907 7.48959 25.3024 9.0243 24.6389 10.5608C24.5094 10.8449 24.34 10.8975 23.9741 10.7239Z" fill="#FF6196"/>
<path d="M22.2617 14.2058C22.4497 13.6072 22.6367 13.0536 22.7946 12.4939C22.9484 11.9511 23.2411 11.4425 23.6525 11.0028C23.9049 10.7265 24.1885 10.8365 24.4783 10.8963C24.7463 10.9508 24.8138 11.1146 24.8252 11.3295C24.8675 11.9236 24.6505 12.5105 24.2145 12.9816C23.6953 13.5185 23.0243 13.9392 22.2617 14.2058Z" fill="#FF6196"/>
</svg>
